<?xml version="1.0" standalone="no"?>
<!DOCTYPE svg PUBLIC "-//W3C//DTD SVG 1.1//EN" "http://www.w3.org/Graphics/SVG/1.1/DTD/svg11.dtd" >
<svg xmlns="http://www.w3.org/2000/svg" xmlns:xlink="http://www.w3.org/1999/xlink" version="1.1">
<metadata>
Created by FontForge 20170731 at Mon Aug 24 05:23:55 2020
 By Aleksey,,,
Copyright 2014 The Caveat Project Authors (https://github.com/googlefonts/caveat)
</metadata>
<defs>
<font id="Caveat-Bold" horiz-adv-x="0" >
  <font-face 
    font-family="Caveat"
    font-weight="700"
    font-stretch="normal"
    units-per-em="1000"
    panose-1="0 0 0 0 0 0 0 0 0 0"
    ascent="800"
    descent="-200"
    x-height="357"
    cap-height="697"
    bbox="-115 -315 1247.91 970.25"
    underline-thickness="50"
    underline-position="-150"
    unicode-range="U+000D-FB04"
  />
<missing-glyph horiz-adv-x="603" 
d="M392 960h519l-455 -1250h-519zM375 -228l14 461l-318 -461h304zM393 341l14 469l-343 -946zM785 807l-330 -478l-14 -470zM777 897h-304l-14 -460z" />
    <glyph glyph-name="f_f" unicode="ff" horiz-adv-x="500" 
d="M345 -118q-6 -4 -27.5 5.5t-35.5 25.5q-7 8 -9 17t1 34q4 11 4.5 23.5t0.5 16.5q0 6 3.5 28t7.5 46.5t7 37.5q0 1 1 5t2 7q2 9 5.5 24t6.5 37q5 19 10 30.5t7 24.5q-12 0 -30.5 -2t-37.5 -5.5t-32.5 -6t-15.5 -4.5q-4 -2 -8.5 -13.5t-9.5 -30t-9 -42.5q-12 -46 -13 -94.5
t5 -71.5q6 -24 -5.5 -43.5t-23.5 -24.5q-19 -1 -38 33t-19 83q-4 41 7 104.5t33 142.5q8 27 22 64t29.5 73t27.5 60.5t15 27.5q6 -2 6 9q0 2 8 15t15 28q13 19 33.5 39t42 36.5t37.5 22.5q15 6 30 6q25 0 48 -16t33 -42q17 20 40 35.5t36 25.5q22 11 36 15t35 4
q19 0 36.5 -12t30.5 -24q14 -15 16 -20t2 -19q-2 -10 -12 -28.5t-23.5 -38.5t-25 -34.5t-15.5 -14.5q-23 -7 -23 24q0 7 -7.5 13.5l-7.5 6.5q0 3 1.5 11.5t5.5 15.5q5 10 2.5 20t-13.5 7q-3 -2 -11.5 -8.5t-18 -14t-16.5 -15t-7 -10.5l-4 -8.5t-15 -21.5q-7 -10 -12.5 -19.5
t-5.5 -11.5q0 -4 -0.5 -8.5t-5.5 -4.5l-3 -9t-11 -23q-4 -10 -10 -20.5t-10 -14.5h1l-4.5 -11t-9.5 -22.5t-5 -13.5q0 -4 12.5 -4t30 3.5t33.5 7.5q14 4 19 4t20 -4q8 -5 13.5 -19.5t8 -28t-0.5 -17.5q-1 -4 -22 -11t-42 -11q-18 -4 -40 -9t-38.5 -9t-16.5 -7q-4 0 -7 -4.5
t-3 -7.5q0 -14 -4 -21q-2 -6 -7 -22t-10.5 -35.5t-9 -35.5t-3.5 -22q-6 -7 -7 -17.5t-1 -18.5q-4 -8 -5 -14.5t-1 -10.5v-4t-1 -6q-1 -10 -2.5 -26.5t-1.5 -32.5l-3 -29q-1 -13 -3.5 -28.5t-7.5 -20.5zM256 310q4 0 18.5 2.5t35.5 6.5t44 7l6 11q15 42 25 67.5t20 46.5l2 9
q0 2 4.5 12t4.5 20q7 34 11 48.5t0 18.5t-22 4q-5 1 -15.5 -3t-19 -9.5t-8.5 -10.5v-4q-3 1 -14.5 -12t-26 -33t-26.5 -40q-8 -17 -19 -44t-28 -71l-8 -24z" />
    <glyph glyph-name="f_i" unicode="fi" horiz-adv-x="459" 
d="M136 -121q-9 0 -24 9t-27 22q-8 9 -13.5 19t-5.5 20q0 11 4 32t4 25q0 9 3.5 31.5t8 46t6.5 35.5q1 5 1.5 7l0.5 2q5 17 8.5 31.5t5.5 27.5q9 39 12.5 58.5t9.5 35.5q3 9 7 17q3 7 7 15t10 18q20 56 33 88.5t26 57.5q1 2 1.5 4t1.5 3q10 27 26.5 54t40 54t53.5 54
q21 10 41.5 18t39.5 8q20 0 36 -8.5t27 -19.5q13 -12 19.5 -25.5t6.5 -21.5q-4 -16 -15.5 -36.5t-25.5 -38.5t-25.5 -30t-15.5 -12q-10 0 -12.5 9.5t-7.5 20.5q-2 4 -4.5 8t-5.5 7q0 5 4.5 17.5t4.5 22.5q0 6 -3.5 12t-9.5 1q-9 -6 -16.5 -11.5t-14.5 -11.5t-14.5 -15.5
t-17.5 -23.5q-4 -6 -8 -11.5t-6 -10.5q-6 -9 -8.5 -15.5t-4.5 -11.5q-2 -6 -3 -8t-3 -2q1 2 -3.5 -9t-11.5 -25q-4 -10 -9 -19t-10 -14h1l-4.5 -11.5t-9.5 -23.5t-5 -14q0 -5 17.5 -2t39 7.5t33.5 4.5q8 0 14.5 -2.5t10.5 -6.5q9 -8 13.5 -21.5t4.5 -27.5q0 -8 -15 -13.5
t-46 -13.5q-27 -6 -45.5 -10t-30.5 -7t-20 -8q-7 -4 -10.5 -9.5t-5.5 -13.5q0 -4 -0.5 -6.5t-1.5 -4.5q-1 -4 -4 -15.5t-6.5 -26.5t-7 -30.5t-6.5 -29.5q-1 -10 -2.5 -18t-1.5 -12q-4 -5 -8.5 -24t-5.5 -30v-4.5v-4.5q0 -4 -2.5 -24.5t-2.5 -42.5l-3 -29q-1 -14 -3.5 -25.5
t-10.5 -11.5zM434 6q-16 0 -30 16t-14 44q0 21 4.5 40t11.5 48q7 17 15.5 43.5l17 53t14.5 46t7 22.5q1 5 5 8t11 3q10 0 23 -9t23.5 -22.5t12.5 -25.5q0 -10 -1.5 -16t-5.5 -15.5t-11 -30t-17.5 -58t-25.5 -100.5q-6 -25 -15 -36t-25 -11zM485 453q0 11 9 31.5t22 38
t25 17.5q6 0 11.5 -1t10.5 -3q21 -8 32.5 -32t3.5 -51.5t-46 -47.5q-4 -2 -7.5 -2h-8.5q-18 0 -29.5 9.5t-17 21.5t-5.5 19z" />
    <glyph glyph-name="f_l" unicode="fl" horiz-adv-x="460" 
d="M132 -121q-6 -4 -27.5 9.5t-35.5 29.5q-7 8 -9 17t1 34q4 11 4.5 21t0.5 14q0 6 3.5 28t7.5 46.5t7 37.5q0 1 1 5t2 7q2 9 5.5 24t6.5 37q8 25 13.5 49.5t5.5 33.5q0 18 14 26q1 5 6 15.5t9 17.5q20 57 33 90.5t27 58.5q6 17 13.5 35t15.5 28q5 13 23 33.5t38 40t32 29.5
q22 11 42.5 18.5t41.5 7.5q19 0 36.5 -12t30.5 -24q14 -15 16 -20t2 -19q-2 -10 -12 -28.5t-23 -38.5t-24 -34.5t-15 -14.5q-23 -7 -23 24q0 7 -7.5 13.5l-7.5 6.5q0 3 1.5 10.5t5.5 14.5q5 10 3 21.5t-13 8.5q-3 -2 -12 -8.5t-18.5 -14.5t-16.5 -15.5t-7 -10.5l-4 -8.5
t-15 -21.5q-7 -10 -12.5 -19.5t-5.5 -11.5q0 -4 -0.5 -8.5t-5.5 -4.5l-3 -9t-11 -23q-4 -10 -10 -20.5t-10 -14.5h1l-4.5 -11.5t-9.5 -23.5t-5 -14q0 -4 12 -4t29 3.5t33 7.5q14 4 19 4t20 -4q8 -5 13.5 -18.5t8 -26t-0.5 -16.5q-1 -4 -22 -11t-42 -11q-18 -4 -41 -9t-40 -9
t-17 -7q-4 0 -7 -4.5t-3 -7.5q0 -14 -4 -21q-2 -6 -6.5 -25t-9.5 -41t-8.5 -41t-3.5 -25q-6 -7 -7 -17.5t-1 -18.5q-4 -8 -5 -14.5t-1 -10.5v-4t-1 -6q-1 -10 -2.5 -26.5t-1.5 -32.5l-3 -29q-1 -13 -3 -22.5t-7 -14.5zM394 -30q-13 5 -21.5 15.5t-9.5 30.5q0 13 2 38.5
t6 51.5q0 2 0.5 4.5t0.5 3.5q1 4 2 12.5t2.5 14t1.5 0.5l6 27q5 18 10 37t9 33.5t5 16.5l4 11.5t8 23.5q16 50 30.5 83t25.5 48q1 3 3 7.5t3 7.5q0 11 1.5 16t4.5 9q2 4 6 10.5t9 16.5l3 11q6 13 15 30.5t13 26.5q3 9 12 21.5t20 16.5l-1 1q5 9 19 14.5t23 5.5q14 0 21.5 -8
t7.5 -22q0 -15 -0.5 -21.5t-7.5 -14.5h1q2 2 -1 -6t-5 -11q-2 -5 -4.5 -11t-5.5 -9q-3 -4 -15.5 -27.5t-29 -55t-30.5 -61t-20 -45.5l-4 -15q-2 -4 -2 -6l-6 -14t-6 -12l-17 -62l-4 -21l-9 -23l-6 -19q-2 -6 -2.5 -13t-3.5 -10q0 -1 -0.5 -2.5t-0.5 -2.5q-4 -16 -14 -45
t-12 -64q0 -1 -0.5 -2t-0.5 -2q-3 -21 -12 -32.5t-24 -7.5z" />
    <glyph glyph-name="f_f_i" unicode="ffi" horiz-adv-x="654" 
d="M340 -119q-9 0 -25 7.5t-28 19.5q-10 10 -13 23.5t1 38.5q2 11 3 20.5t1 13.5q0 19 3 35t7.5 33.5t9.5 39.5q2 6 3 11.5t2 11.5q2 12 4.5 25t3.5 29q5 19 10 30.5t7 24.5q-12 0 -30.5 -2t-37.5 -5.5t-32.5 -6t-15.5 -4.5q-4 -2 -9.5 -17.5t-11 -38.5t-10.5 -50
q-8 -47 -8 -78.5t3 -51t3 -31.5q0 -19 -10.5 -33.5t-20.5 -18.5q-24 0 -41 39t-17 97q0 41 11 98.5t30 127.5q8 27 22 64t29.5 73t27.5 60.5t15 27.5h1h1q2 0 1.5 -1.5t4 8.5t21.5 45q24 34 57.5 61.5t61.5 37.5q15 5 24 5q25 0 48 -16t33 -42q17 20 40 35.5t36 25.5
q21 11 35 15t33 4q20 0 35 -9t28 -20q19 -20 22 -26t3 -20q-3 -18 -15.5 -38t-27 -38t-26.5 -29.5t-15 -11.5q-9 0 -11.5 8t-4.5 17q-2 7 -5 12.5t-9 7.5q0 7 5 21.5t5 19.5q0 6 -3 10t-9 4q-12 -7 -22 -15.5t-17.5 -16.5t-12 -14t-5.5 -8q-4 -7 -9 -14t-10 -15
q-4 -7 -7 -12t-5 -9q-5 -11 -6 -15t-4 -4q0 2 -4 -9.5t-11 -25.5q-4 -10 -9 -18.5t-10 -13.5h1l-4.5 -11t-9.5 -22.5t-5 -13.5q0 -4 11 -3.5t27 4t31 6.5t24 3q6 0 11.5 -2t9.5 -5q11 -8 16.5 -23t5.5 -30q0 -4 -14.5 -16t-55.5 -15q-25 -6 -42.5 -10t-28.5 -7t-17 -7
t-8.5 -9t-4.5 -14q0 -6 -2 -10q-5 -15 -10.5 -30.5t-10 -31t-8 -30.5t-4.5 -28q-3 -7 -4.5 -16.5t-3.5 -17.5q-1 -7 -2 -12.5t-1 -9.5l-0.5 -3.5t-0.5 -8.5l-2.5 -25t-1.5 -32l-3 -29q-6 -18 -5 -34t-11 -16zM256 310q4 0 18.5 2.5t35.5 6.5t44 7l6 11q16 49 27 72.5
t18 41.5l2 9q0 2 4.5 12t4.5 20q6 33 11 48t1 19t-23 4q-5 0 -15.5 -3.5t-19 -9t-8.5 -10.5v-4q-2 1 -14 -12t-27 -33t-26 -40q-9 -16 -19.5 -43.5t-27.5 -71.5l-8 -24zM652 19q-6 0 -21 7.5t-16 11.5q-6 15 -17 20.5t-11 15.5q2 8 3.5 18.5t4 25t6.5 35.5t10 51
q11 56 13 81t3 33t7 13q8 6 17 7t20 -5.5t24 -21.5q19 -20 14 -60t-16 -102q-6 -32 -13.5 -61.5t-14.5 -48.5t-13 -20zM732 378q-8 0 -26 9.5t-32.5 25t-14.5 34.5q0 6 8 21t17 29t13 16q5 0 11 -1.5t13 -3.5t13 -5q11 -22 26 -40t15 -41q0 -11 -4.5 -21.5t-14 -16.5
t-24.5 -6z" />
    <glyph glyph-name="f_f_l" unicode="ffl" horiz-adv-x="670" 
d="M345 -118q-6 -4 -27.5 5.5t-35.5 25.5q-7 8 -9 17t1 34q4 11 4.5 23.5t0.5 16.5q0 6 3.5 28t7.5 46.5t7 37.5q0 1 1 5t2 7q2 9 5.5 24t6.5 37q5 19 10 30.5t7 24.5q-12 0 -30.5 -2t-37.5 -5.5t-32.5 -6t-15.5 -4.5q-4 -2 -8.5 -13.5t-9.5 -30t-9 -42.5q-12 -46 -13 -94.5
t5 -71.5q6 -24 -5.5 -43.5t-23.5 -24.5q-19 -1 -38 33t-19 83q-4 41 7 104.5t33 142.5q8 27 22 64t29.5 73t27.5 60.5t15 27.5q6 -2 6 9q0 2 8 15t15 28q13 19 33.5 39t42 36.5t37.5 22.5q15 6 30 6q25 0 48 -16t33 -42q17 20 40 35.5t36 25.5q22 11 36 15t35 4
q19 0 36.5 -12t30.5 -24q14 -15 16 -20t2 -19q-2 -10 -12 -28.5t-23.5 -38.5t-25 -34.5t-15.5 -14.5q-23 -7 -23 24q0 7 -7.5 13.5l-7.5 6.5q0 3 1.5 11.5t5.5 15.5q5 10 2.5 20t-13.5 7q-3 -2 -11.5 -8.5t-18 -14t-16.5 -15t-7 -10.5l-4 -8.5t-15 -21.5q-7 -10 -12.5 -19.5
t-5.5 -11.5q0 -4 -0.5 -8.5t-5.5 -4.5l-3 -9t-11 -23q-4 -10 -10 -20.5t-10 -14.5h1l-4.5 -11t-9.5 -22.5t-5 -13.5q0 -4 12.5 -4t30 3.5t33.5 7.5q14 4 19 4t20 -4q8 -5 13.5 -19.5t8 -28t-0.5 -17.5q-1 -4 -22 -11t-42 -11q-18 -4 -40 -9t-38.5 -9t-16.5 -7q-4 0 -7 -4.5
t-3 -7.5q0 -14 -4 -21q-2 -6 -7 -22t-10.5 -35.5t-9 -35.5t-3.5 -22q-6 -7 -7 -17.5t-1 -18.5q-4 -8 -5 -14.5t-1 -10.5v-4t-1 -6q-1 -10 -2.5 -26.5t-1.5 -32.5l-3 -29q-1 -13 -3.5 -28.5t-7.5 -20.5zM256 310q4 0 18.5 2.5t35.5 6.5t44 7l6 11q15 42 25 67.5t20 46.5l2 9
q0 2 4.5 12t4.5 20q7 34 11 48.5t0 18.5t-22 4q-5 1 -15.5 -3t-19 -9.5t-8.5 -10.5v-4q-3 1 -14.5 -12t-26 -33t-26.5 -40q-8 -17 -19 -44t-28 -71l-8 -24zM607 -30q-13 5 -21.5 15.5t-9.5 30.5q0 13 2 38.5t6 51.5q0 2 0.5 4.5t0.5 3.5q1 4 2 12.5t2.5 14t1.5 0.5l6 27
q5 18 10 37t9 33.5t5 16.5l4 11.5t8 23.5q16 50 30.5 83t25.5 48q1 3 3 7.5t3 7.5q0 11 1.5 16t4.5 9q2 4 6 10.5t9 16.5l3 11q6 13 15 30.5t13 26.5q3 9 12 21.5t20 16.5l-1 1q5 9 19 14.5t23 5.5q14 0 21.5 -8t7.5 -22q0 -15 -0.5 -21.5t-7.5 -14.5h1q2 2 -1 -6t-5 -11
q-2 -5 -4.5 -11t-5.5 -9q-3 -4 -15.5 -27.5t-29 -55t-30.5 -61t-20 -45.5l-4 -15q-2 -4 -2 -6l-6 -14t-6 -12l-17 -62l-4 -21l-9 -23l-6 -19q-2 -6 -2.5 -13t-3.5 -10q0 -1 -0.5 -2.5t-0.5 -2.5q-4 -16 -14 -45t-12 -64q0 -1 -0.5 -2t-0.5 -2q-3 -21 -12 -32.5t-24 -7.5z
" />
    <glyph glyph-name="f_t" unicode="ft" horiz-adv-x="582" 
d="M134 -121q-6 -4 -19 2t-27 22q-7 8 -18.5 17t-8.5 34q4 11 4.5 28.5t0.5 21.5q0 6 3.5 28t7.5 46.5t7 37.5q0 1 1 5t2 7q2 9 5.5 24t6.5 37q8 25 13.5 49.5t5.5 33.5q0 18 14 26q1 5 6 15.5t9 17.5q20 57 31 90.5t25 58.5q6 17 17.5 35t19.5 28q5 13 23 33.5t38 40
t32 29.5q22 11 42.5 18.5t41.5 7.5q19 0 35 -9.5t29 -21.5q14 -15 16 -20t2 -19q-2 -10 -12 -29.5t-23 -40.5t-24 -36t-15 -15q-23 -7 -23 24q0 7 -7.5 13.5l-7.5 6.5q0 3 3.5 16.5t7.5 20.5q5 10 2.5 15t-13.5 2q-3 -2 -12.5 -8.5t-20 -14t-18 -15t-7.5 -10.5l-4 -8.5
t-15 -21.5q-7 -10 -12.5 -19.5t-5.5 -11.5q0 -4 -0.5 -8.5t-5.5 -4.5l-3 -9t-11 -23q-4 -10 -10 -20.5t-10 -14.5h1l-3 -12t-6.5 -25t-4.5 -17q14 1 34.5 6t45.5 8q39 5 72 11t68 22q9 22 19.5 45t20 40.5t13.5 22.5q17 9 33.5 13t26.5 -12q5 -7 10 -10.5t7 -11t-3.5 -23.5
t-22.5 -48q-5 -10 -9 -17.5l-4 -7.5q4 -1 12 -1t20 1q11 2 21 3.5t20 -0.5q23 0 34 -16t12 -36q2 -11 -12 -17t-41 -6q-9 0 -26 -1t-34.5 -1.5t-30 -2t-12.5 -3.5q-3 -2 -7.5 -17t-9 -35t-9.5 -37q-7 -34 -12.5 -64t-5 -51.5t9.5 -31.5q9 -9 31.5 -7.5t38.5 14.5
q24 21 39 17t17.5 -21t-10.5 -36q-12 -18 -34 -33.5t-45 -22.5t-40 -2q-14 4 -30.5 9.5t-31.5 18.5q-12 16 -18.5 33.5t-8.5 40t-2 51.5q0 12 4.5 35.5t11 49.5t12 46.5t6.5 26.5q-3 6 -11.5 7t-31 -2t-68.5 -10q-18 -4 -42 -10t-42 -11.5t-18 -8.5q-4 0 -7 -8t-3 -11
q0 -14 -4 -21q-2 -6 -6.5 -22t-9 -34.5t-7.5 -34.5t-3 -22q-6 -7 -7 -17.5t-1 -18.5q-4 -8 -5 -14.5t-1 -10.5v-4t-1 -6q-1 -10 -2.5 -26.5t-1.5 -32.5l-3 -29q-1 -13 -3 -30t-7 -22z" />
    <glyph glyph-name=".notdef" horiz-adv-x="603" 
d="M392 960h519l-455 -1250h-519zM375 -228l14 461l-318 -461h304zM393 341l14 469l-343 -946zM785 807l-330 -478l-14 -470zM777 897h-304l-14 -460z" />
    <glyph glyph-name=".null" 
 />
    <glyph glyph-name="nonmarkingreturn" horiz-adv-x="333" 
 />
    <glyph glyph-name="NULL" 
 />
    <glyph glyph-name="NULL" 
 />
    <glyph glyph-name="CR" unicode="&#xd;" horiz-adv-x="242" 
 />
    <glyph glyph-name="space" unicode=" " horiz-adv-x="242" 
 />
    <glyph glyph-name="exclam" unicode="!" horiz-adv-x="210" 
d="M199 161q-28 -5 -44 23.5t2 100.5q6 12 10 23.5t4 18.5q4 13 10.5 30.5t13.5 33t10 20.5q4 0 8.5 7t4.5 14q0 8 3.5 18t7.5 14q0 5 4 11t4 10t2.5 7t2.5 7q9 16 23.5 47.5t29 66.5t24.5 62t10 33q2 8 6 15t12 5q4 3 12 3.5t12 0.5l9 -4t16 -12q8 -7 9 -19t1 -24
q-1 -19 -14 -43t-29 -53q-10 -19 -19.5 -36t-9.5 -21t-4 -12t-9 -20q-6 -10 -11.5 -24t-9.5 -25.5t-4 -14.5q-1 -4 -2.5 -8t-5.5 -8q-4 0 -4.5 -5.5l-0.5 -5.5q0 -4 -4.5 -18.5t-14.5 -34.5q-19 -53 -27 -84.5t-10 -53.5q-2 -24 -11 -32.5t-17 -12.5zM146 6q-21 -8 -35 -7.5
t-31 13.5q-20 20 -13.5 40.5t35.5 39.5q20 13 29.5 13.5t28.5 -7.5q34 -21 30 -46.5t-44 -45.5z" />
    <glyph glyph-name="quotedbl" unicode="&#x22;" horiz-adv-x="237" 
d="M200 431q-16 -3 -25.5 -0.5t-16.5 8.5q-2 11 3 22.5t10 18.5q12 20 27.5 47.5t20.5 42.5q2 11 6.5 28.5t4.5 36.5q0 5 2.5 16t7 20t9.5 6q9 -4 23 -11t24.5 -16t8.5 -20q-2 -24 -10.5 -52t-14.5 -48q-6 -22 -22.5 -45.5t-33.5 -43.5q1 -4 -6 -5t-18 -5zM331 431
q-15 -3 -24.5 -0.5t-16.5 8.5q-3 11 2 22.5t10 18.5q12 20 27.5 47.5t20.5 42.5q2 11 6.5 28.5t4.5 36.5q0 5 2.5 16t7 20t9.5 6q9 -4 23 -11t24.5 -16t8.5 -20q-2 -24 -10.5 -52t-14.5 -48q-6 -22 -22.5 -45.5t-33.5 -43.5q1 -4 -6 -5t-18 -5z" />
    <glyph glyph-name="numbersign" unicode="#" horiz-adv-x="559" 
d="M402 -148q-19 -5 -33.5 10t-20.5 44t2 66q5 12 8 23.5t3 18.5q2 8 10 35.5t19.5 63.5t23 71.5t20 60t10.5 27.5q4 0 7 7t3 14q0 8 3.5 18t7.5 14q0 5 2.5 11.5t2.5 10.5t2.5 8t2.5 8q6 11 18.5 41.5t29 72t33.5 86t32 84.5t24 66t9 30q0 8 11 16.5t19 8.5q3 3 7.5 4
t8.5 1l4 -4l12 -12q8 -7 17 -20.5t9 -25.5q0 -13 -3 -23t-12 -29t-28 -59q-3 -8 -12 -28t-19.5 -45t-21 -48.5t-17 -39.5t-6.5 -18q0 -4 -3.5 -12t-7.5 -20q-4 -8 -11 -23.5t-14.5 -33t-12.5 -30t-5 -14.5q0 -4 -0.5 -8t-4.5 -8q-4 0 -4.5 -5.5l-0.5 -5.5q0 -10 -16 -53
q-7 -22 -17 -57t-21.5 -74.5t-21.5 -77t-16.5 -65.5t-6.5 -39q0 -24 -8.5 -31.5t-16.5 -11.5zM140 173q-6 0 -15 0.5t-20 4.5q-15 0 -24 6t-13 13q-11 15 2 22.5t50 11.5q11 3 45 5t80.5 3.5t98 2.5t99 1.5t83 1t48.5 0.5q26 0 35 -4t20 -15q15 -15 7.5 -31t-30.5 -12
q-7 -1 -22.5 -2t-33.5 -3q-4 0 -32.5 -0.5t-72 -1t-92 -1t-94 -1t-77.5 -1t-42 -0.5zM154 -148q-19 -5 -33.5 10t-20.5 44t2 66q5 12 8 23.5t3 18.5q2 8 10 35.5t19.5 63.5t23 71.5t20 60t10.5 27.5q4 0 7 7t3 14q0 8 3.5 18t7.5 14q0 5 2.5 11.5t2.5 10.5t2.5 8t2.5 8
q6 11 18.5 41.5t29 72t33.5 86t32 84.5t24 66t9 30q0 8 11 16.5t19 8.5q3 3 7.5 4t8.5 1l4 -4l12 -12q8 -7 17 -20.5t9 -25.5q0 -13 -3 -23t-12 -29t-28 -59q-3 -8 -12 -28t-19.5 -45t-21 -48.5t-17 -39.5t-6.5 -18q0 -4 -3.5 -12t-7.5 -20q-4 -8 -11 -23.5t-14.5 -33
t-12.5 -30t-5 -14.5q0 -4 -0.5 -8t-4.5 -8q-4 0 -4.5 -5.5l-0.5 -5.5q0 -10 -16 -53q-7 -22 -17 -57t-21.5 -74.5t-21.5 -77t-16.5 -65.5t-6.5 -39q0 -24 -8.5 -31.5t-16.5 -11.5zM201 374q-6 0 -15 0.5t-20 4.5q-15 0 -23.5 5.5t-12.5 12.5q-11 15 1.5 23t49.5 12
q11 3 45 5t81 3.5t98.5 2.5t99 1.5t83 1t48.5 0.5q26 0 35 -4t20 -15q15 -15 7 -31t-31 -12q-7 -1 -22 -2t-33 -3q-4 0 -32.5 -0.5t-72 -1t-92.5 -1t-94.5 -1t-77.5 -1t-42 -0.5z" />
    <glyph glyph-name="dollar" unicode="$" horiz-adv-x="450" 
d="M170 -124q-11 0 -17.5 8t-6.5 23t4 35.5t11 46.5q4 5 6.5 10t4.5 10t3 9l2 8t1 7q3 8 14 34t26 60t29.5 67.5t25.5 57t13 26.5q4 0 9 7t6 14q0 7 1.5 13t4.5 11t6 9l6 8t4.5 8.5t1.5 8.5q0 -5 13 19t33 64.5t42.5 88t43 92t33.5 74.5t13 35q5 13 15 13q1 0 6 1t9 1
l2.5 -1t10.5 -6q2 -3 5.5 -9t6 -14.5t2.5 -18.5q-1 -9 -3 -15.5t-5.5 -13t-9.5 -16.5t-15 -25.5t-22 -39.5q-10 -18 -25 -44.5t-30 -53.5t-26.5 -48.5t-15.5 -29.5q-1 -3 -3 -6.5t-3.5 -6.5t-3 -6.5t-3.5 -6.5q-9 -17 -21 -38.5t-21 -39t-11 -23.5q-1 -4 -2.5 -8.5
t-3.5 -6.5q-4 0 -5 -4.5t-4.5 -16t-18.5 -33.5q-9 -22 -22.5 -55.5t-28.5 -70.5t-29 -72t-23 -61.5t-11 -37.5q-1 -27 -5.5 -34t-18.5 -7zM164 33q-16 0 -28.5 2t-15.5 5q-13 0 -31 13.5t-31 32.5t-13 36t12 28t29.5 13t35.5 -7q-16 -27 -5.5 -40.5t62.5 -13.5
q14 0 22.5 0.5t19.5 1.5q13 1 24.5 2.5t21.5 3.5q49 11 67 28t22 30q0 15 3.5 19.5t3.5 9.5q0 9 1.5 17.5t-2 20t-18 29t-45.5 43.5q-7 12 -17.5 26.5t-23.5 21.5q-4 5 -8 13.5t-7 9.5q2 -1 -7 10t-9 33q0 23 10.5 48t34.5 44q8 10 24.5 22.5t32 22t18.5 9.5q8 0 23.5 8.5
t51.5 11.5q21 5 31 7.5t19 2.5h11.5t39.5 -12q29 -11 39 -26t7.5 -28.5t-11 -22.5t-17.5 -9q-8 0 -20 6t-26.5 12t-32.5 6q-34 0 -60.5 -5t-47.5 -29q-26 -16 -37 -33t-11 -29q2 -4 5.5 -14.5t11.5 -19.5q31 -34 47.5 -50.5t23 -22.5t7.5 -7.5t1 -5.5q1 0 5.5 -5.5
t9.5 -12.5q6 -8 10.5 -15.5t4.5 -9.5q0 2 6 -9.5t11.5 -32t5.5 -46.5q0 -8 -9 -21.5t-22 -27t-24 -22.5q-14 -11 -30.5 -21.5t-35 -18.5t-39.5 -14q-14 -4 -29.5 -7.5t-32 -6t-34 -3.5t-35.5 -1z" />
    <glyph glyph-name="percent" unicode="%" horiz-adv-x="600" 
d="M140 -91q-19 2 -30.5 15t-7.5 37.5t30 60.5q8 8 14.5 16t8.5 14q5 6 21.5 26t39 45.5t44.5 50.5t37.5 42.5t17.5 20.5q4 -1 9 3.5t7 11.5q3 8 9.5 14t11.5 7q2 5 6.5 9t5.5 8q1 3 4.5 5.5t4.5 6.5q9 7 30.5 29t50.5 52.5t59.5 63.5t57 62t43.5 48.5t18 22.5q4 13 20 8
q7 4 16 0l8.5 -10t13.5 -19q6 -9 6.5 -18t-4.5 -17q-4 -11 -10.5 -18.5t-21 -20.5t-44.5 -40q-7 -7 -25.5 -26t-39.5 -40.5t-36 -38t-15 -18.5q-3 -2 -8.5 -7.5t-12.5 -14.5q-8 -7 -25.5 -23.5t-31.5 -30.5t-15 -16l-4 -6t-8 -5q-2 1 -4.5 -2.5l-2.5 -3.5q0 -4 -9 -15
t-24 -25q-16 -19 -43 -52t-55.5 -68t-49.5 -63.5t-26 -39.5q-7 -19 -20 -29t-21 -12zM479 36q15 17 24.5 32.5t17.5 40.5q3 11 3 29t-4 21q-8 4 -19.5 2.5t-23.5 -13.5q-21 -16 -35.5 -42t-29.5 -58q-10 -23 -4.5 -37.5t24.5 -10t47 35.5zM396 -81q-10 0 -17 4t-15 12
q-16 16 -26 35.5t-7 33.5q2 7 1.5 12.5l-0.5 5.5q-4 5 -2 6t3 4q5 0 3 10q-1 6 7.5 28.5t20.5 42.5q5 8 16.5 27t25 38t23.5 27q21 18 39 26.5t37 12.5q19 5 26 5t19 -14q19 -7 36.5 -27t19.5 -43q2 -25 -4 -56.5t-38 -78.5q-21 -29 -39 -47t-41 -32q-17 -11 -43 -21
t-45 -11zM333 408q15 17 25 32.5t17 40.5q4 11 4 29t-5 21q-7 4 -18.5 2.5t-23.5 -13.5q-22 -16 -36.5 -42t-29.5 -58q-9 -23 -3.5 -37.5t24 -10t46.5 35.5zM250 292q-10 0 -17 4t-15 12q-16 16 -26 35t-7 33q2 7 1.5 12.5l-0.5 5.5q-4 5 -2 6t3 4q5 0 3 10q-1 6 7.5 28.5
t20.5 42.5q5 8 16.5 27.5t25 38.5t23.5 27q21 18 39 26t37 12q19 5 26 5t19 -14q19 -7 36.5 -26.5t19.5 -42.5q2 -25 -4 -56.5t-38 -78.5q-21 -29 -39 -47.5t-41 -32.5q-17 -11 -43 -20.5t-45 -10.5z" />
    <glyph glyph-name="ampersand" unicode="&#x26;" horiz-adv-x="564" 
d="M667 -54q1 -12 -13.5 -16.5t-37 -3t-45.5 8t-38 15.5q-19 5 -48 37t-68 78q-40 -22 -65 -35.5t-45.5 -22t-48.5 -16.5q-66 -6 -121 13q-8 3 -23 12t-29.5 19t-19.5 15q-5 3 -7.5 18.5t-3 31.5t0.5 19q3 9 17.5 31.5t37 52.5t49 61t52.5 57q-24 35 -33 69t0.5 73.5
t37.5 89.5q10 16 26.5 35t34 36.5t30.5 27.5t14 8q4 -7 8 -5t8 2q4 2 17.5 1.5t30.5 -2.5t30 -7q36 -4 50.5 -8t26.5 -18q15 -11 28 -27t21.5 -31.5t8.5 -24.5q0 -13 -20.5 -40t-54.5 -57q-13 -16 -26.5 -28.5l-13.5 -12.5q0 -4 -5 -11t-13 -10q-11 -10 -31 -28t-36 -33
t-17 -18q-1 -2 7 -15.5t21 -31.5t26.5 -35.5t24.5 -29t15 -11.5q33 32 68.5 62.5t72.5 64.5q25 26 38 34t21 4.5t15 -10.5q13 -2 14 -17.5t-3 -30t-5 -15.5q-13 -17 -35 -38t-46 -42.5t-46 -41.5t-37 -35l12.5 -14.5t24.5 -25.5q33 -34 51 -47.5t41 -21.5q31 -10 42 -23.5
t12 -35.5zM186 77q30 -9 51.5 -6.5t46.5 16.5t63 40l19 14l-25 29q-7 8 -16 22t-23 31q-15 14 -19.5 22l-4.5 8q-3 0 -13.5 -10t-22 -23.5t-17.5 -23.5q-23 -18 -35 -35.5t-27 -40.5q-7 -16 -5 -23t10 -10t18 -10zM280 377q11 12 31.5 27.5t43.5 33t43 36t31 37t6 35.5
q-2 4 -11 9t-21 9t-24 3q-20 2 -37 -14t-40 -49q-25 -37 -33.5 -67.5t11.5 -59.5z" />
    <glyph glyph-name="quotesingle" unicode="'" horiz-adv-x="117" 
d="M198 431q-16 -3 -25.5 -0.5t-16.5 8.5q-3 11 2 22.5t10 18.5q12 20 27.5 47.5t20.5 42.5q2 11 6.5 28.5t4.5 36.5q0 5 2.5 16t7.5 20t10 6q9 -4 23 -11t24.5 -16t8.5 -20q-2 -24 -11 -52t-15 -48q-6 -22 -22 -45.5t-33 -43.5q1 -4 -6 -5t-18 -5z" />
    <glyph glyph-name="parenleft" unicode="(" horiz-adv-x="330" 
d="M284 -138q-48 7 -81 42.5t-47 78.5q-19 42 -18 109.5t20 137.5q5 19 9 39t5 27q3 10 13 33t23 52.5t25.5 59t21.5 52.5q11 25 32.5 59t45 68t43 59t27.5 31q5 5 14 13t16 9q4 11 16 18t21 7q23 12 49 7t34 -35q3 -14 0.5 -18t-22.5 -13q-10 -4 -25 -11.5t-22 -15.5
q-9 -11 -20 -22t-17 -15q-18 -7 -18 -16l-8.5 -17t-27.5 -41q-12 -19 -28 -47t-25 -42q-9 -16 -14.5 -26.5t-15.5 -21.5q0 -3 -3 -14t-12 -25q-6 -22 -24 -59q-7 -16 -16.5 -42t-16 -50t-6.5 -34q-2 0 -3.5 -5.5t-4 -24t-8.5 -59.5q-1 -45 2.5 -74t14.5 -49.5t29 -40.5
q11 -10 22 -15t26 -6l34 -21q-6 -23 -24.5 -33.5t-35.5 -8.5z" />
    <glyph glyph-name="parenright" unicode=")" horiz-adv-x="330" 
d="M72 -135q-19 5 -37 21.5t-19 31.5q1 3 1 12t4 16l6.5 -3t22.5 1q20 -1 30 4t25 22q11 15 25.5 31.5t19.5 29.5q16 11 23 20.5t13 19.5q0 5 3 18.5t15 32.5q11 25 21 42.5t10 22.5l3 7t2 17q6 3 10.5 13.5t3.5 21.5q0 3 9 23.5t10 41.5q11 36 16.5 64.5t8.5 62.5t6 87
l3 67.5t-0.5 34.5t-9.5 24q-10 32 -17 32q-3 0 -5 12t2 26q-1 4 14.5 9t24.5 4q7 0 15.5 -5.5t11.5 -9.5q4 4 12.5 -13t18.5 -46q6 -14 9 -23.5t4 -21t0 -32t-3 -56.5q0 -35 -4.5 -76.5t-10.5 -81t-13 -71.5q-7 -26 -19 -62.5t-26.5 -73.5t-27 -66t-20.5 -41q2 0 -5.5 -12
t-20 -30.5t-25.5 -38t-22 -33.5q-15 -21 -38 -40t-44.5 -29.5t-35.5 -6.5z" />
    <glyph glyph-name="asterisk" unicode="*" horiz-adv-x="363" 
d="M414 392q-10 -7 -24 6t-24 31q-3 7 -7.5 20.5t-10.5 29.5q-1 13 -1.5 25l-0.5 12q-1 1 -25 -20t-69 -66q-28 -26 -37 -31t-15 -4q-7 1 -13 5.5t-6 5.5q-1 3 -1 21t3 25q5 6 20.5 22.5t34 35.5t33 34t18.5 18q8 8 8 11t-8 10q-4 5 -6.5 7.5t1.5 2.5l-0.5 3t-4.5 4
q-3 5 -4.5 10t-1.5 7q0 5 -4 15l-4 10q-4 3 -2.5 11.5t5.5 17.5t6 11l2.5 -0.5t6.5 -4.5q4 0 16 -14t19 -25q8 -16 11 -16h10l7.5 13.5t9.5 31.5q14 19 20 29t11 17q2 6 6 11l4 5l2 5t6 6v0v0q7 8 17 13t12 3q4 -5 8.5 -8.5t6.5 -11.5l18 -15l-13 -17q-22 -33 -35.5 -60.5
t-11.5 -27.5l9.5 4t19.5 6q11 5 17 7t8 3q10 0 24 9q15 5 24 0q8 -7 14 -23t6 -21q-1 -1 -18.5 -13.5t-43.5 -20.5q-25 -7 -44 -14t-21 -12q-12 0 0 -17q2 -6 2 -11t1 -16q5 -19 7.5 -31.5t3.5 -12.5q4 0 4 6q0 4 9 4q3 0 8.5 -6.5t10 -13.5t2.5 -9v-3v-3q4 -1 -4.5 -10
t-18.5 -17.5t-13 -8.5z" />
    <glyph glyph-name="plus" unicode="+" horiz-adv-x="446" 
d="M170 172q-6 0 -15 0.5t-20 4.5q-15 0 -23.5 6.5t-12.5 13.5q-11 15 1.5 23.5t49.5 12.5q17 4 50.5 6.5t72.5 4t74 2.5t55 1q26 0 46.5 -5t31.5 -16q15 -15 7 -31.5t-31 -12.5q-5 0 -19 -1t-30.5 -2t-28.5 -2q-6 0 -33 -1t-62.5 -2t-67 -1.5t-45.5 -0.5zM304 16
q-15 -11 -23.5 1.5t-12.5 49.5q-4 17 -6.5 50.5t-4 72.5t-2.5 74t-1 55q0 26 5 46.5t15 31.5q15 15 32 7t13 -31q1 -5 1.5 -19t1.5 -30.5t2 -28.5q0 -6 1 -33t2 -62.5t1.5 -67t0.5 -45.5q0 -6 -0.5 -15t-4.5 -20q0 -15 -6.5 -23.5t-13.5 -12.5z" />
    <glyph glyph-name="comma" unicode="," horiz-adv-x="198" 
d="M55 -86q-11 0 -18.5 5t-11.5 12q0 7 4 12t11 12q11 10 21 24.5t18.5 29.5t13.5 24q4 11 8 26t8 33q0 8 0.5 14.5t4.5 10.5q8 7 19.5 12.5t23 -4t17.5 -47.5q4 -22 0 -40t-17 -44q-2 -7 -14.5 -23t-25 -29.5t-15.5 -13.5q-4 0 -7 -2.5t-8 -6.5q-4 -4 -12 -4.5t-20 -0.5z
" />
    <glyph glyph-name="hyphen" unicode="-" horiz-adv-x="326" 
d="M170 172q-6 0 -15 0.5t-20 4.5q-15 0 -23.5 6.5t-12.5 13.5q-11 15 1.5 23.5t49.5 12.5q34 8 67 11t73 3q26 0 42.5 -5t27.5 -16q15 -15 7 -31.5t-31 -12.5q-7 -1 -29.5 -2t-40.5 -3q-11 -1 -39 -3t-57 -2z" />
    <glyph glyph-name="period" unicode="." horiz-adv-x="198" 
d="M162 52q-21 -7 -35 -6.5t-31 12.5q-20 20 -13.5 40.5t35.5 40.5q20 12 29.5 12.5t28.5 -7.5q34 -21 30 -46.5t-44 -45.5z" />
    <glyph glyph-name="slash" unicode="/" horiz-adv-x="330" 
d="M79 -115q-30 -1 -43.5 30.5t14.5 98.5q6 11 11.5 22t6.5 18q3 7 13 27.5t25 49.5t31.5 60t31 58.5t24.5 45.5t12 21q5 -1 9 5.5t5 13.5q2 9 7 18t10 11q1 5 4 11t4 10t4 7.5t3 7.5q8 10 24.5 37t37.5 63.5t43 76t41 74.5t31 58.5t13 27.5q1 15 19 12q7 5 16 3l10.5 -10.5
t17.5 -20.5q8 -8 7.5 -17t-3.5 -20q-2 -13 -6.5 -23t-17 -27t-37.5 -53q-6 -9 -18.5 -30t-26 -44t-22.5 -40t-9 -19q-1 -4 -6.5 -11.5t-10.5 -19.5q-6 -7 -15.5 -21.5t-19.5 -30t-17.5 -27t-7.5 -13.5q-1 -3 -2.5 -7t-6.5 -7q-3 1 -5 -4.5l-2 -5.5q2 -8 -24 -50
q-10 -21 -27 -55l-36.5 -73t-37.5 -76t-30 -65t-14 -39q-4 -23 -13 -39t-17 -19z" />
    <glyph glyph-name="zero" unicode="0" horiz-adv-x="450" 
d="M293 3q-7 0 -25.5 5t-38 12.5t-30.5 16.5q-34 29 -49 64.5t-17.5 72.5t2.5 70q11 64 46 127.5t84 105.5q26 23 52 39t56 23q11 3 31.5 3.5t27.5 0.5q20 0 44.5 -8.5t42.5 -20t18 -21.5q0 -7 -1 -14t-9 -3h-10l10 -30q4 -8 7 -21.5t3 -24.5q0 -10 -2.5 -29.5t-7 -41.5
t-9 -41t-8.5 -28q-3 -6 -3.5 -11.5t-0.5 -9.5q-4 -8 -13 -28t-13 -28q-4 -4 -6.5 -7t1.5 -7q0 -3 -5 -13.5t-10.5 -19.5t-8.5 -9l-2.5 -0.5t-2.5 -3.5q0 -4 -13.5 -21t-31.5 -35q-10 -10 -32 -25.5t-43.5 -27t-32.5 -11.5zM291 99q11 0 21 3.5t17 10.5q18 12 34.5 32
t27.5 46q11 15 17.5 31.5t20.5 56.5q8 11 11 27t3 27t0.5 30t4.5 32q0 26 -1 30.5t-8 12.5q-4 3 -10.5 6t-13.5 3t-18.5 -3.5t-19.5 -8.5q-7 -4 -15.5 -1t-8.5 8q0 14 -13.5 -1.5t-35.5 -42.5q-18 -18 -30.5 -36.5t-12.5 -22.5t-3 -10t-6 -14q-5 -7 -12 -23t-13.5 -31.5
t-8.5 -23.5v-21.5v-32.5q0 -17 1 -25t3.5 -13l7.5 -15q4 -7 12.5 -16.5t11.5 -13.5q11 -10 14.5 -7.5t22.5 6.5z" />
    <glyph glyph-name="one" unicode="1" horiz-adv-x="450" 
d="M363 -18q-3 -2 -14.5 -1t-24 5.5t-19.5 10.5q-4 4 -8 9.5t-3.5 19.5t6.5 45q4 20 10 42t11 38l5 16q5 2 14.5 30t21.5 68q4 14 14 47t20 64q9 29 17 45l8 16l-12 -7t-31 -19t-40 -28q-17 -10 -38.5 -27.5t-39.5 -28.5q-27 -21 -36.5 -27t-18.5 -1q-13 11 -24.5 32.5
t-5.5 31.5q2 1 13.5 9t26.5 19t27.5 20t17.5 12q3 0 11 7t17 13q5 6 35 27t65 47q37 23 66 37t33 13q3 0 14.5 -7t22.5 -16t12 -15q6 -7 -6 -32q-4 -9 -13 -32.5t-19.5 -54t-20 -60t-15.5 -50.5q-8 -31 -14.5 -48t-12 -32.5t-12.5 -42.5q-7 -16 -14.5 -40.5t-13.5 -48
t-9 -38.5q-8 -22 -13 -43t-10 -25z" />
    <glyph glyph-name="two" unicode="2" horiz-adv-x="450" 
d="M162 8q-4 2 -13.5 11t-18.5 20.5t-12 17.5q-3 5 0.5 18t7.5 13q3 -2 8 7t10 19.5t5 12.5q1 4 5.5 6.5t8.5 5.5q5 8 13.5 16.5t13.5 14.5q8 10 29 30t41 41q21 23 37 40.5t17 24.5l3.5 3.5t8.5 6.5t13.5 10t14.5 13q2 8 9.5 18.5t17.5 20.5q8 12 15 26.5t9 21.5
q3 11 -2 13.5t-27 9.5q-24 8 -45 3t-56 -30q-14 -3 -25.5 -8t-19.5 -4q-4 2 -9 9t-11 13l-10 43l31 17q41 26 78.5 39.5t65.5 4.5q11 0 20 -2.5l9 -2.5q8 1 23.5 -8t31 -23t21.5 -28q16 -24 12 -58t-29 -71q-5 -6 -22 -25t-38.5 -42.5t-39 -41.5t-22.5 -23q-7 -3 -23.5 -19
t-35 -35.5t-31 -34t-10.5 -14.5q-1 -4 10.5 0.5t20.5 7.5q15 5 35.5 9.5t41.5 7.5t36.5 4t18.5 -2q2 -5 3.5 -3.5l1.5 1.5q2 7 25.5 4t42.5 -9q11 -3 17.5 -8t6.5 -9l2.5 -4.5t8.5 -11.5q16 -13 0.5 -28t-55.5 -8q-26 0 -43 -3q-4 -2 -17 -2t-25 -1q-18 2 -36 -1.5
t-43 -11.5q-9 -3 -28 -9t-41 -12t-39.5 -9t-22.5 -2z" />
    <glyph glyph-name="three" unicode="3" horiz-adv-x="450" 
d="M244 1q-25 0 -48.5 9.5t-37.5 22.5t-13 25q1 16 11 25t32 6q34 -7 69 -4.5t65.5 13.5t49.5 30q27 26 28 44.5t-28 37.5q-13 9 -32 17t-37.5 12.5t-32.5 3.5q-9 -1 -22 3.5t-26 11.5q-6 7 -11 23t-7 20q-1 5 7 12t32 21.5t70 39.5q42 23 64.5 35.5t35 20t21.5 15.5
q12 14 11 21t-27 12q-25 2 -40 0.5t-15 -5.5h-0.5h-3.5q-5 2 -22 -1t-32.5 -7t-16.5 -7q-1 -2 -13.5 -6.5t-25 -7.5t-15.5 -3q-5 2 -11.5 14t-10.5 25.5t-2 18.5q2 4 14.5 12.5t28.5 18t27 14.5q14 4 41.5 7.5t55 6t39.5 1.5q46 -5 74 -23.5t36 -58.5q3 -14 0 -29t-13 -30
t-30 -33q-25 -16 -38.5 -26.5t-36.5 -21.5q-7 -5 -22 -11t-28 -11t-13 -7l9.5 -1.5t21 -4t16.5 -7.5q29 -10 53.5 -34.5t34.5 -38.5q14 -31 3.5 -67.5t-37 -69t-61.5 -53.5q-28 -16 -68.5 -22.5t-72.5 -8.5z" />
    <glyph glyph-name="four" unicode="4" horiz-adv-x="450" 
d="M331 -12q-4 0 -19.5 14t-15.5 42q1 31 10.5 65.5t18.5 61.5q6 18 10.5 30t4.5 15q-1 0 -10.5 -2t-23.5 -5q-49 -10 -74.5 -10t-43.5 30q-6 6 -16 22t-13.5 35t9.5 32q10 25 16 36t8.5 16t2.5 10l3 6t5 8q9 15 25.5 39t35 48.5t33.5 44t22 25.5q6 3 21.5 9t22.5 6
q8 0 15.5 -10.5t12.5 -21.5t5 -15l-1 -2t-4 -7q-4 -6 -11.5 -16t-21.5 -26q-12 -14 -30 -40.5t-35.5 -56t-29.5 -52.5t-12 -31q0 -5 3.5 -7.5t13.5 -2.5q13 2 23.5 4t19.5 4q11 2 19 4.5t15 4.5q8 3 14.5 5.5t11.5 6.5q12 10 18 27t19 46q8 20 16.5 36.5t15.5 30.5
q25 46 42 67.5t19 21.5q3 0 14 -8t21 -17q8 -7 13 -12.5t5 -7.5q0 -12 -5.5 -24.5t-15.5 -28.5t-23 -41q-15 -29 -28 -57.5t-25 -56t-22 -53.5t-19 -49q-22 -59 -30 -87t-7.5 -38.5t3.5 -17.5q0 -13 -8 -24.5t-20 -18.5t-23 -7z" />
    <glyph glyph-name="five" unicode="5" horiz-adv-x="434" 
d="M171 16q-18 13 -18 22q-4 6 -9 6q-3 -1 -5.5 10t-4 24t-0.5 17q4 8 15.5 12t23 3.5t12.5 -8.5q2 -8 15.5 -13t35.5 -4q28 1 51.5 9t43 23t35.5 36q7 14 13 37t8 41t-3 18l-1.5 7t-4.5 15q-5 15 -23 30.5t-35 22.5q-7 2 -29 0t-37 -4q-16 -1 -18.5 0.5l-2.5 1.5
q-5 1 -16.5 10t-21 19t-9.5 15q2 7 11 24t22.5 37t27.5 39t26 31q30 33 72 49.5t83 14.5q29 -1 43.5 -7.5t26.5 -22.5q8 -14 6 -29t-10 -23t-20 -2q-14 9 -38 7t-51 -10q-21 -8 -34 -13.5t-18 -16.5q-4 -3 -5.5 -6t-5.5 -2l-3 -3.5t-3 -7.5q-5 -6 -6.5 -8.5t-5.5 1.5v-3
t-1 -7q-1 -7 4.5 -9.5t24.5 -4.5q25 -4 37.5 -7.5t37.5 -18.5q28 -16 41.5 -47.5t16 -69t-2.5 -71.5q-3 -22 -6 -34t-17 -33q-23 -32 -59 -56.5t-76 -38.5t-75.5 -15.5t-57.5 13.5z" />
    <glyph glyph-name="six" unicode="6" horiz-adv-x="471" 
d="M297 16q-33 -9 -62.5 -6.5t-50.5 22.5q-14 11 -28.5 30t-17.5 39q-5 15 -6 24t1.5 22t7.5 40q8 36 14 56.5t24 45.5q8 21 18.5 42.5t15.5 27.5l15 21t21 26q10 13 18.5 24.5l8.5 11.5q5 3 9.5 6t9.5 10q8 9 26 22.5t41 27.5t45 23.5t38 11.5q32 11 30 -1l10.5 -10.5
t18.5 -12.5q4 -1 6.5 -6.5t5.5 -10.5q2 -8 -8 -21.5t-24 -26.5q-14 -10 -19.5 -11t-9.5 3q1 4 -4 5.5l-5 1.5q-6 2 -22.5 -3.5t-35 -17t-33.5 -27.5q-9 -8 -16 -16t-9 -12q-13 -13 -23 -25.5l-10 -12.5q3 -6 14.5 -3t12.5 7q0 4 22.5 10.5t45.5 8.5q9 4 24.5 1t25.5 -5
q22 -4 30 -8t20 -19q20 -19 27.5 -41t6.5 -48q0 -16 -3 -28t-14 -25q-8 -13 -21 -32.5t-25.5 -35.5t-21.5 -22q-4 -2 -7.5 -4.5l-3.5 -2.5q-1 -6 -15.5 -16.5t-36 -23t-43.5 -22.5t-38 -14zM237 93q16 -2 24 -2.5t30 8.5q8 2 14 4t9 1l12.5 8.5t28.5 18.5q47 29 70 63.5
t18 58.5q1 6 -2 13.5t-3 9.5q-2 0 -8.5 2t-15.5 3q-10 3 -19 3t-27.5 -3.5t-58.5 -13.5q-7 -1 -14.5 -4.5t-15.5 -5.5q-2 -3 -10 -7t-13 -6q-10 -1 -17 -16t-17 -59q-5 -31 -6.5 -41t2.5 -17q2 -10 7 -13t12 -5z" />
    <glyph glyph-name="seven" unicode="7" horiz-adv-x="446" 
d="M237 -26q-12 2 -28 17t-22 29q-4 19 16 66.5t54 111.5q22 36 22 42t-20 6q-9 2 -24.5 5.5t-18.5 7.5q-16 8 -18.5 17.5t6.5 10.5q10 5 6.5 13.5t-1.5 13.5q5 0 8 -0.5t11 -2.5q14 0 26.5 -1t23.5 -1h12.5t13.5 -1q14 -2 19 2.5t19 22.5q8 14 21 30.5t26 41.5q35 50 39 67
t-16 15q-16 -2 -35.5 -7.5t-57.5 -19.5q-28 -11 -43.5 -13.5t-26.5 3.5q-6 1 -9.5 12t-4 24.5t0.5 20.5q2 11 41 24t90 26q23 4 52 5t52.5 -2t27.5 -11l2.5 -2.5t3.5 1.5q4 -1 6 -7.5t8 -16.5q10 -17 12.5 -25t-0.5 -23q-3 -11 -10 -22t-11 -14q-5 -4 -7.5 -9l-2.5 -5
q-1 -4 -6 -7.5t-10 -9.5q-1 -4 -4.5 -9t-4.5 -8q-1 -1 -8 -11.5t-16 -24.5t-17 -26t-11 -17q-14 -13 -14 -19t13 -12q17 -7 28 -16.5t15 -23.5q1 -23 -8 -27q-5 -7 -16.5 -10t-14.5 1q-3 6 -13.5 11.5t-20.5 8.5t-13 3q-4 -2 -8 -7.5t-9 -11.5q-7 -10 -18 -30.5t-22 -40
t-17 -29.5q-1 -5 -5.5 -10t-6.5 -12q-4 -7 -7 -20.5t-3 -24t3 -11.5q8 2 11.5 -1.5t5.5 -11.5q5 -7 -7.5 -18.5t-30 -20t-28.5 -6.5z" />
    <glyph glyph-name="eight" unicode="8" horiz-adv-x="450" 
d="M182 -47q-7 1 -19 9t-24 17.5t-18 14.5q-7 17 -10 26t0 30q0 12 2.5 28t9.5 26q7 20 22.5 47t34 54t35 49.5t24.5 32.5q11 14 10.5 23.5t-20.5 36.5q-4 11 -9 16.5t-1 5.5l-2.5 3.5t-5.5 10.5q-15 14 -14.5 43t14.5 57q16 36 43 62t57 30q11 -1 38.5 -6t57 -11t46.5 -14
q12 -5 31.5 -18t35.5 -26t17 -19q0 -3 3.5 -6.5t4.5 -8.5q6 -11 6.5 -30t-2.5 -37t-9 -27q-25 -28 -35 -32q-5 -4 -11.5 -10t-14.5 -8q-5 -7 -9.5 -12t-8.5 -5q-4 3 -8 3.5t-4 -3.5q0 -2 -13.5 -9t-27.5 -12t-18 -3h-3t-9 -4q-13 2 15 -32q23 -43 34.5 -82.5t-3.5 -60.5
q-19 -43 -41 -70.5t-35 -26.5l-4.5 -3t-9.5 -6q-2 -7 -8.5 -9.5t-11.5 -1.5q-9 4 -31 -10q-13 -9 -34 -15t-40.5 -8t-26.5 1zM205 29q10 -1 26.5 5t35 16t33.5 20q32 25 43.5 50t1.5 50l-13 26t-12 22q-6 9 -10.5 13t-9.5 7l-4.5 -6.5t-9.5 -17.5q-11 -14 -13 -17t-6 -10
l-13 -13l-9 -9q0 -3 -6 -17.5t-14 -28.5q-22 -38 -27.5 -63t7.5 -27zM360 355q21 19 33 22t18 -8q2 -4 19.5 5.5t33.5 26.5q6 11 3.5 11t-4.5 16q1 10 0 16t-9 12t-29 14q-62 22 -95 14.5t-46 -42.5q-6 -19 -6 -31t8 -29q9 -4 12 -10.5l3 -6.5q0 -9 8 -9q2 -5 14 -11t37 10z
" />
    <glyph glyph-name="nine" unicode="9" horiz-adv-x="438" 
d="M312 -42q-5 1 -14.5 6.5t-17.5 12.5t-8 9q1 5 -4 5l-2 6.5t-1 13.5q0 3 1 15t1 19q2 20 10 53t19 69.5t21 65.5q14 36 12.5 44t-25.5 6q-31 -5 -57 10t-41 42.5t-13 56.5q1 15 6.5 27.5t18.5 34.5q21 31 50.5 59t61.5 48t58 25q16 3 38 2t34 -6q15 -6 33 -26t30.5 -42
t9.5 -34q-7 -33 -16 -50t-22 -31q-16 -14 -37.5 -51t-43 -84.5t-37.5 -93.5q-14 -42 -17.5 -76t3.5 -35q4 0 14 -3t14 -3q3 -4 3 -9t-5 -16q-3 -7 -13.5 -19t-24 -23.5t-24.5 -19.5t-15 -8zM283 369q15 -16 36 -13.5t44 21.5t44 52q12 14 15.5 22.5t7.5 11.5q13 14 18 22
t-2 15q-7 11 -15 12t-32 -8q-16 -3 -24.5 -10t-29.5 -21q-4 -4 -8 -4.5t-8 0.5l-2 -0.5t-2 -4.5q5 -9 -12 -23q-26 -28 -33 -44.5t3 -27.5z" />
    <glyph glyph-name="colon" unicode=":" horiz-adv-x="198" 
d="M233 262q-21 -7 -35 -6.5t-31 12.5q-20 20 -13 40.5t36 40.5q20 12 29.5 12.5t28.5 -7.5q33 -21 29.5 -46.5t-44.5 -45.5zM163 52q-21 -7 -35 -6.5t-31 12.5q-20 20 -13 40.5t36 40.5q20 12 29.5 12.5t28.5 -7.5q33 -21 29.5 -46.5t-44.5 -45.5z" />
    <glyph glyph-name="semicolon" unicode=";" horiz-adv-x="198" 
d="M57 -86q-11 0 -18.5 5t-11.5 12q0 7 4 12t11 12q11 10 21 24.5t18.5 29.5t13.5 24q4 11 8 26t8 33q0 8 0.5 14.5t4.5 10.5q8 7 19.5 12.5t23 -4t17.5 -47.5q4 -22 0 -40t-17 -44q-2 -7 -15 -23t-25.5 -29.5t-15.5 -13.5q-4 0 -7 -2.5t-7 -6.5t-12 -4.5t-20 -0.5zM233 262
q-21 -7 -35 -6.5t-31 12.5q-20 20 -13 40.5t36 40.5q20 12 29.5 12.5t28.5 -7.5q33 -21 29.5 -46.5t-44.5 -45.5z" />
    <glyph glyph-name="less" unicode="&#x3c;" horiz-adv-x="446" 
d="M348 43q-31 8 -54 14.5t-51 28.5q-34 20 -54.5 32.5t-39.5 39.5l-33 40l-11 53q8 2 15.5 5.5t8.5 4.5q12 6 24.5 14.5t33.5 22.5t59 35q47 24 80.5 44t43.5 30q6 7 14 9.5t12 2.5q6 2 19 -8.5t17 -13.5q11 -7 16 -10t6 -11l-2.5 -9t-9.5 -15q-13 -11 -35.5 -23t-55 -28.5
t-76.5 -43.5q-27 -16 -41 -22.5t-18 -11.5t-2 -18q17 -20 55.5 -40.5t113.5 -43.5q37 -11 55.5 -22t23.5 -22t3 -24q-5 -9 -25 -14.5t-45.5 -5t-46.5 9.5z" />
    <glyph glyph-name="equal" unicode="=" horiz-adv-x="446" 
d="M241 267q-6 0 -15.5 0.5t-26.5 4.5q-15 0 -24 3.5t-13 10.5q-14 15 -3 30.5t62 14.5q39 8 83 11t90 3q31 0 44.5 -5.5t24.5 -16.5q18 -15 13 -32.5t-29 -13.5q-10 -1 -35.5 -2t-48.5 -3q-7 0 -27.5 -1.5t-46 -2.5t-48.5 -1zM186 124q-6 0 -15.5 0.5t-25.5 4.5
q-16 0 -24.5 3.5t-12.5 10.5q-14 15 -3 30.5t61 14.5q39 8 83 11t90 3q31 0 45 -6t25 -17q18 -15 12.5 -32t-28.5 -13q-10 -1 -37 -2t-50 -3q-7 0 -27 -1.5t-45 -2.5t-48 -1z" />
    <glyph glyph-name="greater" unicode="&#x3e;" horiz-adv-x="446" 
d="M198 20q-6 -2 -18.5 8.5t-17.5 13.5q-10 8 -15 10.5t-7 10.5l2.5 9t9.5 15q14 12 36.5 23.5t55 28.5t75.5 43q27 17 41 23t18 11t2 18q-17 20 -55.5 40.5t-113.5 43.5q-37 12 -55 22.5t-23.5 21.5t-3.5 24q5 9 25 14.5t45.5 5.5t46.5 -10q31 -8 54 -14.5t51 -28.5
q34 -19 54.5 -32t39.5 -40l33 -40l11 -53q-8 -1 -15 -5t-9 -5q-12 -6 -24.5 -14.5t-33.5 -22t-59 -35.5q-46 -24 -80 -44t-44 -30q-6 -7 -13.5 -9.5t-12.5 -2.5z" />
    <glyph glyph-name="question" unicode="?" horiz-adv-x="374" 
d="M247 183q-16 2 -23 13.5t-7 23.5q0 2 -2 12t0 18q0 6 6 19t13 31q11 20 34 45t39 37q9 7 13 9.5l4 2.5q0 4 14 15.5t24 15.5l13 9t20 16q23 23 34 42.5t17 44.5t13 62q1 35 -3 43.5t-16 17.5q-25 5 -48.5 -1.5t-43 -25t-34.5 -52.5q-6 -17 -6.5 -23t2.5 -16q0 -8 2.5 -19
t2.5 -16q-4 -1 -16 -4.5t-25.5 -3t-25.5 11.5l-8 10t-10 14q-6 8 -5.5 15.5t0.5 22.5q7 20 19 45t31 48t44 36q21 9 39.5 19.5l18.5 10.5l7.5 0.5t25.5 2.5q6 -1 13.5 0t7.5 -4h12h17q12 -3 29 -12.5t32 -20.5t22 -19q7 -22 6 -54.5t-10 -68.5t-23.5 -68.5t-34.5 -54.5
q-6 -6 -22 -20t-33.5 -30.5t-28.5 -28.5q-34 -19 -60 -57t-39 -74q-11 -24 -24 -32t-27 -8zM224 6q-21 -8 -35 -7.5t-31 13.5q-20 20 -13 40.5t35 39.5q20 13 29.5 13.5t29.5 -7.5q33 -21 29 -46.5t-44 -45.5z" />
    <glyph glyph-name="at" unicode="@" horiz-adv-x="643" 
d="M307 -140q-34 0 -73.5 16t-71.5 41q-17 16 -36 39t-31 44q-8 11 -13.5 29.5t-6.5 37.5q-1 17 2 42t9 49t13 38q0 3 1.5 6.5t2.5 9.5q0 6 7.5 20.5t15.5 26.5q34 45 59.5 78t53 60t66.5 55q19 15 47.5 29t58.5 24.5t53 13.5q4 1 12.5 1t30.5 -2q31 -3 63 -15t53 -32
q40 -31 61 -69.5t27 -64.5q4 -14 4 -40t-3 -51.5t-9 -38.5q-11 -24 -30.5 -51.5t-41 -53t-40.5 -43t-30 -20.5q-15 0 -39.5 7t-36.5 17q2 0 -19 12l-7 -7.5t-18 -16.5q-14 -13 -34.5 -23.5t-38.5 -15.5t-26 -3q-19 5 -30 9t-20.5 12.5t-23.5 27.5q-4 10 -10.5 28.5
t-6.5 25.5q0 10 3 22t7 27q6 27 16.5 47t27.5 44q16 23 44.5 47.5t57.5 36.5q12 6 36 6q9 0 18 -2t18 -8q7 -1 19 -11.5t23 -24t15 -23.5q3 -15 3 -22t-3 -24q-1 -4 -2 -10t-3 -12q-1 -8 -4 -21.5t-5 -18.5q-3 -9 -5 -12t1 -11q-1 -4 4 -7.5t12 -5.5t11 -2q5 0 13.5 8
t18.5 20q16 17 25 27t15 20t12 27q1 6 1.5 15t0.5 19q0 50 -20.5 91.5t-73.5 63.5q-11 5 -25.5 6.5t-29.5 1.5q-22 0 -44 -3.5t-43 -12.5q-13 -4 -30.5 -16t-36 -28t-35 -33t-28.5 -31q-43 -51 -67 -103.5t-31 -102.5q-4 -30 0.5 -45t7.5 -21q11 -22 27 -35.5t38 -27.5
q23 -9 54.5 -12t69.5 -1q8 -2 10.5 -4.5t1.5 -11.5q0 -1 1.5 -12t6.5 -22q0 -9 1 -18t-7 -13q-6 -2 -19.5 -5.5t-28 -5.5t-23.5 -2zM376 99q8 5 18.5 14t19.5 18.5t11 15.5l7 13q6 11 12.5 25t8.5 28q2 2 3 5.5t4 12.5q0 5 -1 8.5t-8 7.5h1q-10 2 -24 3.5t-24 -3.5
q-12 -5 -25 -20.5t-23.5 -36.5t-16.5 -41t-5 -34q6 -12 17.5 -17t24.5 1z" />
    <glyph glyph-name="A" unicode="A" horiz-adv-x="511" 
d="M61 -33q-18 10 -19.5 22t13.5 42t47 93q24 45 32.5 70.5t9.5 36.5t1 14q-2 9 2 14.5t13 9.5q5 5 23 18t28 31q9 21 20.5 43t30.5 55.5t51 87.5q20 35 47.5 79t54.5 80q11 14 23 22t21 8q22 0 44 -11.5t39 -28.5t23 -32q5 -8 4 -34t-4 -63t-7 -79q-3 -41 -9 -97
t-11.5 -117t-8.5 -117.5t0 -98.5q1 -9 0 -17t-1 -13q-6 -6 -26 -5.5t-39 6.5t-21 15q-3 3 -4 5t0 19.5t3 64.5l5 153l-13 -1q-9 0 -32.5 -2t-51 -5.5t-50.5 -7t-32 -6.5q-9 0 -21.5 -12t-23.5 -31q-4 -14 -14.5 -29.5t-10.5 -20.5q-7 -5 -11.5 -12l-4.5 -7q0 -6 -8.5 -29.5
t-22 -52t-27.5 -49.5l-27 -38zM300 311l11 2t26.5 4.5t27.5 2.5q23 6 38.5 9t25.5 3.5t16 -2.5q4 -5 7.5 -6l3.5 -1q1 2 4 21t7 47t8 58.5t7 57t4 41.5q1 19 -1 34.5l-2 15.5q-6 0 -22.5 -21.5t-38 -57t-42.5 -76.5q-10 -19 -18.5 -30t-13.5 -11q-2 -2 -10.5 -15.5t-18 -30
t-16 -30t-3.5 -15.5z" />
    <glyph glyph-name="B" unicode="B" horiz-adv-x="523" 
d="M203 -72q-43 28 -50.5 56t19.5 45q6 4 23.5 1t26.5 -12q20 -18 45.5 -22.5t62.5 5.5q42 13 64.5 32.5t50.5 53.5q21 27 29.5 53t8 47.5t-10.5 32.5q-25 35 -62 48.5t-97 -2.5q-7 -1 -21 -4t-25 -5.5t-12 -2.5q-7 -2 -11 -2t-9.5 -9.5t-16.5 -39t-33 -90.5
q-21 -61 -35.5 -86.5t-25.5 -23t-25 21.5q-8 14 -17.5 31t0.5 35q5 9 8 16.5t8 26.5q5 15 19.5 52.5t34.5 88t42 104.5t42.5 102t34.5 81q14 31 17 45t-2 15q0 5 -3 9.5t-2 8.5q0 4 17.5 11t37.5 13t29 4q5 0 12 0.5t7 4.5q3 0 19 2t35 0q67 -6 110 -38.5t42 -103.5
q-1 -17 -14 -44t-32.5 -54t-41.5 -47q-13 -11 -27.5 -22.5t-25 -19l-10.5 -7.5l8 -3t17 -6q46 -17 72.5 -43t37.5 -72q4 -15 0.5 -37t-9.5 -43.5t-13 -36.5q-7 -7 -11 -14.5l-4 -7.5q0 -2 -8 -15.5t-19 -29.5t-21 -28q-10 -8 -28.5 -22.5t-40 -28.5t-40.5 -21
q-28 -12 -62.5 -16.5t-65.5 -1t-49 14.5zM275 343l16.5 3.5t36.5 8t30 8.5q5 3 14.5 8t19.5 15q14 13 30 29.5t31.5 35.5t26.5 41q23 36 25 52t-11 29q-9 11 -25 16.5t-34.5 6t-35.5 -4.5q-13 -4 -20 -9.5t-7 -16.5q0 -9 -5.5 -18.5t-10.5 -14.5q-1 -7 -6.5 -13.5l-5.5 -6.5
q0 -4 -12.5 -24.5t-26.5 -58.5q-18 -43 -24 -62t-6 -24z" />
    <glyph glyph-name="C" unicode="C" horiz-adv-x="477" 
d="M221 -66q-15 6 -35 16.5t-38 27.5t-28 41q-10 29 -13.5 57t-2.5 65q0 52 7.5 90.5t23.5 78.5q2 3 7.5 17.5t13 31.5t11.5 26q8 17 24.5 45.5t35.5 55.5q29 43 49 70.5t38.5 46.5t41 37t56.5 41q22 16 56.5 20t67.5 -10.5t49 -54.5q11 -21 10 -52.5t-12 -67t-28 -66.5
t-38 -50q-13 -12 -34.5 -4t-35.5 21q-9 17 -9.5 20t3.5 4q6 7 16 24t20 36.5t14 31.5q8 42 11 55.5t-6 22.5q-4 4 -11.5 3t-24.5 -10q-23 -10 -54.5 -40.5t-62.5 -72.5q-40 -53 -67 -94t-41 -84q-2 -4 -6.5 -15l-4.5 -11q1 -4 -3 -19.5t-9 -26.5q-11 -46 -13 -88.5t5.5 -74
t22.5 -46.5q13 -9 33 -6t46 14t56 24q24 10 44 22t30 21q8 6 20.5 12.5t21.5 6.5q14 5 21 -8t7 -33q0 -14 -20 -34t-44 -34q-8 -8 -21.5 -14.5t-27.5 -11.5q-21 -16 -52 -31t-62.5 -23t-57.5 -3z" />
    <glyph glyph-name="D" unicode="D" horiz-adv-x="587" 
d="M212 -106q-19 -3 -46 0.5t-58 11.5q-16 5 -22.5 12t-21.5 26q-10 15 -12.5 34t5 34t25.5 18q8 2 19.5 -3.5t24.5 -13.5q21 -12 45 -24.5t44 -9.5q14 3 33.5 3.5t38 3.5t29.5 11q53 36 79 57.5l26 21.5q2 4 7.5 6.5t13.5 5.5q6 6 19 19.5t25.5 26.5t15.5 15q2 9 4 14.5
t2 11.5q8 8 21.5 33.5t27.5 57t20 57.5q13 55 9 100t-23 81t-51 63q-11 9 -30 19.5t-39 20t-35.5 14.5t-18.5 4q-4 -1 -15.5 -30.5t-28 -75.5t-35 -98.5t-35.5 -99.5q-5 -19 -12.5 -40t-12.5 -36.5t-5 -20.5q-11 -17 -23 -52t-20 -100q-9 -34 -13 -56.5t-8 -21.5l-1 -9.5
t-4 -12.5q0 -6 -12 -8t-28 5t-30 27q-3 11 -4.5 32.5t6.5 50.5q5 19 14 49t20 62t20.5 59t13.5 40q7 17 20 64q8 26 16.5 52t16.5 46.5t11 26.5q5 13 12.5 42.5t23.5 67.5l7 33l-11 5q-12 -4 -18.5 -2.5t-8.5 2.5q-6 -2 -15.5 3.5t-17 14.5t-9.5 15q-2 4 -2.5 10.5l-0.5 6.5
q1 6 17 12.5t41.5 12.5t54.5 9t54 1q26 -2 64 -12t65 -20q32 -12 69 -41t67.5 -69t40.5 -84q3 -12 6 -34t3.5 -42.5t-4.5 -26.5q-2 -4 -2.5 -9.5t3.5 -7.5q-1 -3 -7 -22.5t-11 -33.5q-2 -26 -13.5 -60t-25 -64.5t-23.5 -47.5q-4 0 -7.5 -1.5t0.5 -2.5q0 -5 -11 -19
q-4 -3 -12.5 -14.5t-13.5 -15.5q-1 -7 -6 -11.5t-9 -4.5h-1.5t-1.5 -4q-8 -12 -27 -31t-43 -39t-48 -37t-44 -25q-10 -7 -21 -11.5t-21 -9.5q-5 -4 -29 -7t-50.5 -5t-41.5 -5z" />
    <glyph glyph-name="E" unicode="E" horiz-adv-x="534" 
d="M239 -39q-31 2 -62 22.5t-57 38.5q-17 17 -26 36.5t-15 51.5q-4 19 0 50t13 62.5t17 49.5q12 28 30.5 60.5t37 62t29.5 47.5q7 7 6.5 7.5l-0.5 0.5q0 5 10.5 25.5t18.5 36.5q15 16 17 26t-3 16q-2 4 8.5 17t29.5 29.5t42 29.5q24 19 46.5 20.5t26.5 -9.5q0 -3 11.5 -1.5
t27 5t27.5 5.5q5 6 23.5 9.5t43.5 6.5q13 -1 29 -0.5t28.5 1.5l12.5 1q7 2 20.5 -8.5t21.5 -28.5q7 -18 -12 -31t-60 -18q-30 -4 -46.5 -6.5t-35 -6t-53.5 -11.5q-25 -5 -42 -8t-29.5 -12t-27.5 -32q-7 -5 -18 -26l-22 -42q-28 -39 -41.5 -57.5t-9.5 -23.5l14 -3t18 -3
q10 5 24.5 7t23.5 4q62 16 91.5 23.5t42 10.5t22.5 4q14 11 28.5 -1.5t20.5 -29.5q7 -20 0 -31t-30.5 -18t-66.5 -16.5t-108 -27.5q-55 -16 -89 -19t-32 17q-7 4 -15.5 -7.5t-15.5 -31.5t-12.5 -43t-6.5 -43t3 -31q8 -23 25.5 -39.5t51.5 -26.5q20 -1 39 -3t43 8
q59 10 82 21t28 15q8 4 10.5 8t7.5 4q-3 -5 2 0t16 14q21 18 42 22t35 0.5t15 -8.5q6 -10 -6 -31.5t-36.5 -45.5t-57.5 -43q-53 -28 -115 -39.5t-111 -12.5z" />
    <glyph glyph-name="F" unicode="F" horiz-adv-x="466" 
d="M520 301q-6 -4 -24.5 -9.5t-62.5 -10.5q-13 -1 -37 -2t-51.5 -2t-50 -0.5t-31.5 2.5l-4.5 -5t-4.5 -13q-7 -12 -17 -35.5t-21.5 -51.5t-21.5 -55.5t-16.5 -48t-6.5 -28.5q-9 -24 -11 -41t-7 -20q-3 -15 -18.5 -15t-23.5 9q-22 11 -30 28.5t-1 39.5q3 13 10.5 38.5
t17 56.5t20 60.5t20.5 48.5q11 19 14 34.5t8 28.5q-1 11 0 14.5t8 12.5q5 4 12.5 14.5t17.5 32.5q3 10 9.5 27.5t12.5 36t11 31.5t5 14q2 4 6 15.5t6 18.5q4 14 6.5 23t-1.5 9q-8 -2 -32 -3q-12 -2 -17.5 -2.5t-9.5 -1.5q-10 -1 -18 2t-8 12q2 16 11.5 33t24.5 18
q7 2 15.5 3.5t23.5 5.5q19 4 33.5 2.5t20.5 -3.5q5 3 8.5 6.5t4.5 7.5q5 18 18 27.5t27.5 10t23.5 -8t5 -27.5q1 -3 2.5 -5t15 0.5t47.5 9.5q18 2 45.5 4t43.5 -3q17 3 30.5 2.5t18.5 3.5q21 -4 30.5 -5.5t15.5 -6.5q4 -4 3 -7.5l-1 -3.5q-4 2 -1 0.5t8 -5.5q7 -3 7.5 -12.5
t-1 -19t-2.5 -12.5q-1 -9 -10 -10.5t-45 -0.5q-43 6 -79.5 4.5t-91.5 -9.5q-22 -1 -37.5 -5.5l-15.5 -4.5q-4 0 -14 -13.5t-19 -39.5q-4 -7 -13.5 -29t-19.5 -47.5t-18 -45t-10 -21.5q14 -4 43.5 -4t65.5 2.5t68 5.5q15 3 31 5t22 1q12 -1 18 -15.5t4 -30t-15 -22.5z" />
    <glyph glyph-name="G" unicode="G" horiz-adv-x="494" 
d="M159 -46q-27 20 -41.5 57.5t-13.5 69.5q-1 62 10.5 128t30.5 123q13 36 28 73t31 70.5t31 56.5q31 53 63.5 85t49.5 42q28 14 67 21.5t76 -0.5q26 -7 51.5 -20t44.5 -32q11 -10 17 -21t6 -23q0 -15 -14 -29t-31 -19t-26 6q-13 20 -25 30.5t-25 15.5q-11 7 -29.5 7
t-39.5 -6.5t-40 -22.5q-7 -6 -18.5 -17t-24 -26.5t-22.5 -33.5q-28 -46 -47.5 -93.5t-34.5 -103.5q-7 -23 -15 -56.5t-14.5 -66.5t-8.5 -58q-3 -35 2 -55t21 -26.5t45 0.5q26 6 52.5 20.5t51.5 37t45 53.5q18 34 29.5 62t12 44.5t-17.5 15.5q-41 -1 -65.5 3t-33.5 20
q-13 3 -13.5 22t18.5 31q17 9 47 11t61.5 -1.5t50.5 -14.5q22 -11 30.5 -32.5t9 -45.5t-3.5 -45q-9 -35 -24.5 -68t-41.5 -67q-15 -21 -41 -44t-54.5 -41.5t-53.5 -29.5q-40 -18 -83.5 -26t-79.5 19z" />
    <glyph glyph-name="H" unicode="H" horiz-adv-x="574" 
d="M153 -91l-10 3.5t-21.5 6.5t-17.5 3q-16 4 -23 17.5t-3 29.5q4 4 6 17t2 21q4 8 5 11.5t5 19.5q3 17 10.5 47.5t17 65.5t18.5 67t16.5 54t10.5 25v3.5v7.5l1.5 9.5t9.5 21.5q4 11 7 24t3 17q4 5 11.5 24.5t14.5 38.5q6 16 13.5 34t13 31l5.5 13v4.5v0.5q4 4 19.5 40.5
t42.5 94.5q4 8 12 25.5t8 21.5q15 15 29.5 10.5t26 -17.5t16.5 -24l10 -16l-37 -72q-16 -28 -27.5 -51t-11.5 -27l-4.5 -12t-10.5 -30.5t-12 -36.5q-11 -31 -21 -51.5t-10 -24.5q0 2 20.5 3t51.5 1t63.5 0.5t58.5 1t36 2.5l52 5l28 89q8 28 21 68t23 68q16 46 34 64.5
t30 18.5q3 0 11.5 -5.5t17.5 -12.5t11 -13q12 -11 11.5 -25t-16.5 -37q-16 -27 -26.5 -58.5t-18.5 -51.5q0 -12 -3 -19.5t-7 -11.5q-2 -2 -8 -15t-11 -26t-5 -16q0 -7 -3 -17t-7 -14q-2 -6 -9 -30t-16 -56.5t-19 -63t-18 -50.5q0 -7 -5 -17.5t-5 -18.5l-10 -30t-6 -23
q-5 -23 -10.5 -53t-9 -53t-3.5 -26q-26 -3 -39 7t-24 14q-19 11 -22.5 27.5t7.5 39.5q5 8 12.5 39.5t15.5 62.5q6 15 13 38t13.5 45.5t11.5 38.5t7 18v7v3q-2 2 -20 3.5t-45.5 1t-59.5 -2t-61 -5.5h-31.5h-28.5h-18.5h-7.5q-2 -3 -7.5 -20t-13 -41t-15 -49t-13 -45.5
t-7.5 -29.5q-4 -18 -10.5 -45t-14 -55.5t-13 -49.5t-7.5 -27z" />
    <glyph glyph-name="I" unicode="I" horiz-adv-x="409" 
d="M181 -41q-7 11 -24 14t-52 1q-14 -2 -29 2t-24 12t-7 16q1 12 28 26t70 15l42 1l10 20q4 11 6.5 24t9.5 36q4 14 12 39t17 53.5t16 51.5t9 32q4 9 11 30.5t13.5 44t8.5 32.5q26 79 34 110.5t4 32.5q-4 0 -19 -1t-33 -2.5t-32 -3.5t-17 -4q-5 -7 -17 2.5t-15 19.5
q-1 9 0 17t6 11q7 6 29 13.5t49.5 13.5t50.5 9q17 2 34 7.5t27 13.5q9 3 17.5 5t17.5 1q8 -5 27.5 -5t41.5 1q56 5 78.5 -3.5t29.5 -22.5q5 -19 -2 -31.5t-24 -11.5q-9 -2 -25 -3.5t-42 -2.5q-66 -6 -71 -14q-4 -4 -6.5 -8t-6.5 -9q1 -4 -4.5 -23.5t-13.5 -41.5
q-4 -13 -12 -37l-16.5 -49.5t-15.5 -46t-10 -27.5q-4 -9 -6.5 -19.5t-3.5 -15.5q-14 -49 -23.5 -82t-16.5 -57.5t-13 -47t-14 -50.5l17 1.5t43 3.5q47 5 64 6t20 -2.5t6 -12.5q20 -27 -2.5 -45t-78.5 -17q-52 -2 -76.5 -3.5t-31.5 -4.5t-7 -10q1 -16 -19.5 -19.5t-38.5 15.5
z" />
    <glyph glyph-name="J" unicode="J" horiz-adv-x="315" 
d="M92 -204q-23 -13 -50 -12t-51.5 12t-40.5 28q-7 8 -5.5 29.5t5.5 34.5q5 18 13 18q11 0 25 -19q28 -25 55.5 -14t58.5 59q6 15 19 43t27.5 60t26.5 59.5t16 39.5l0.5 3.5t4.5 7.5q1 4 5 16t8 28q4 11 11.5 33t16 46t14.5 40q5 21 12.5 45.5t12.5 37.5q4 8 12 32.5
t18 53.5q12 39 21.5 68t14 46.5t2.5 20.5l-17.5 -3t-38.5 -7q-17 -7 -34.5 -9t-14.5 11v7.5v3.5q-3 -2 -8 4t-9 15.5t-4 14.5q0 8 23.5 18.5t54.5 14.5q20 3 48.5 5.5t41.5 4.5q4 3 18 -2t29 -12t20 -13q6 -8 7.5 -17t-2.5 -25t-14.5 -45.5t-29.5 -80.5q-22 -62 -39 -112.5
t-31 -83.5q-3 -11 -10.5 -32t-14.5 -42.5t-11 -35.5q-8 -19 -15 -41t-11 -35q0 -8 -4 -18t-9 -15l-7 -17.5t-17 -41.5q-8 -20 -17.5 -44.5t-17.5 -37.5q-5 -12 -12 -22.5t-7 -14.5l-0.5 -3t-4.5 -3l-3 -2.5t-3 -7.5q-2 -6 -13 -19t-25 -28.5t-28 -27.5t-22 -17z" />
    <glyph glyph-name="K" unicode="K" horiz-adv-x="508" 
d="M108 -47q-13 8 -24 19.5t-5 32.5q-1 12 1.5 23t3.5 15q5 0 6 5.5t1 9.5q0 8 6 27t12 40q8 17 15.5 36t7.5 23q0 8 4 16.5t9 16.5q5 12 7.5 26.5t2.5 22.5q6 13 13 28t11 31q6 17 18 50.5t25 67.5q9 19 17.5 39.5t15.5 35t10 14.5v3.5v7.5q0 5 8 19.5t15 30.5
q10 15 14 28.5l4 13.5l4 6.5t8 10.5q26 14 44.5 14t25.5 -24q8 -22 7 -30.5t-7 -20.5q-8 -18 -21 -45.5t-27 -58.5t-26.5 -59.5t-20 -48.5t-7.5 -25l-42 -103q-4 -7 -13 -35.5t-21 -68t-24.5 -80t-24.5 -73.5q-6 -17 -11 -28.5t-10 -17.5t-12 -6q-4 0 -9 3t-11 8zM462 -45
q-9 -1 -24.5 8.5t-33 23.5t-33 29t-24.5 26q-16 23 -40.5 62t-36.5 82q-7 32 -14.5 51.5t-7.5 34.5l1 62l73 5q5 -54 16 -89.5t26 -63.5q12 -26 26.5 -51t32.5 -42q23 -25 41 -37t27 -12q19 -9 28 -17t12 -14t2 -11q1 -3 -1 -13.5t-6 -21t-11 -13.5q-7 -7 -18 -8.5t-35 9.5z
M230 337l73 54q3 3 17.5 16.5t56.5 45.5l132 107q25 13 46 29t35 25q17 12 35 25t22 12q8 4 19 -7.5t18.5 -27t6.5 -23.5q2 -10 -3 -17t-26 -19q-25 -11 -39.5 -21t-16.5 -15l-21 -16t-50 -36q-40 -27 -65.5 -47.5t-33.5 -32.5q-4 0 -7.5 -3t-7.5 -2l-8 -5.5t-12 -11.5
q-2 -5 -8.5 -13t-15.5 -7q-7 -4 -25 -16.5t-37.5 -27.5t-33.5 -27t-15 -14z" />
    <glyph glyph-name="L" unicode="L" horiz-adv-x="426" 
d="M194 -61q-40 10 -64.5 41.5t-39.5 75.5q-1 13 -0.5 36t2.5 43t4 23q3 2 3 12q-1 4 1.5 13.5t5.5 19.5q5 12 5 19.5t-1 11.5l3 6.5t7 10.5q6 6 5.5 12l-0.5 6q-1 4 2 11t6 11q2 2 5.5 8.5l3.5 6.5q0 3 4.5 16t10.5 28.5t11.5 28.5t8.5 17v2q4 10 11 21q1 5 5 16.5t9 22.5
q11 24 27.5 54.5t35.5 61t36.5 55t30.5 36.5q17 19 34.5 27.5t32.5 -6.5q7 -7 12 -20.5t4.5 -25t-8.5 -12.5q-7 -4 -19 -22.5t-26.5 -43.5t-28.5 -51.5t-26 -47.5q-13 -29 -24 -50.5l-11 -21.5q-1 -3 -2 -5l-2 -4q-15 -31 -25 -56.5t-20 -53.5q-6 -7 -7 -14l-1 -7
q-2 1 -3 -4.5t-4 -12.5q-5 -4 -6 -12.5t-1 -16.5q-7 -18 -13 -43.5t-8.5 -49t-1.5 -36.5q2 -17 9.5 -28.5t21.5 -18.5q11 -5 20 -8.5t16 -3.5q8 -1 20.5 0.5t34.5 5.5h-1q13 2 27.5 5.5t27.5 6.5q12 2 23 4.5t17 4.5q22 6 35.5 10t18.5 0t11 -15t3 -20q-2 -5 -20 -20.5
t-41 -31t-42 -21.5q-20 -9 -53.5 -12.5t-64.5 -1.5t-47 7z" />
    <glyph glyph-name="M" unicode="M" horiz-adv-x="729" 
d="M675 -48q-4 -4 -19 -2.5t-24 14.5q-7 14 -8 32t0 50q6 35 20 92t31.5 127.5t35.5 144.5q9 35 14.5 59t8 36.5l2.5 12.5q-1 -2 -2.5 -4t-2.5 -4l-2 -4l-3.5 -7t-14.5 -24q-8 -12 -15 -28t-24 -42q-16 -30 -36 -69t-34 -62q-7 -11 -12.5 -19t-7.5 -13q-4 -11 -13 -27
t-21 -31q-6 -9 -15.5 -21t-16.5 -21.5l-7 -9.5q-2 -6 -13 -19t-26.5 -28.5t-31.5 -28.5q-35 -28 -57.5 -35t-51.5 17q-13 16 -21 32.5t-8 45.5t10 81q7 33 15.5 70t17.5 71.5t16.5 60t10.5 35.5q3 25 1 26.5t-10 -11.5q-7 -11 -26 -46t-42.5 -82t-45.5 -94q-41 -76 -69 -127
t-46 -81.5t-27.5 -46t-14 -22t-6.5 -8.5q-15 1 -26 14t-18 31q-2 10 -3 21t2.5 24.5t11.5 29.5q13 26 25 44t15 22q5 7 8 15t4 15q5 6 15.5 25t21.5 41q8 13 22 36.5t30 51t28 50.5q44 79 70 126.5t37 60.5q7 5 12.5 19.5t9.5 21.5q14 28 28.5 46.5t25.5 18.5q8 0 20.5 -6
t24.5 -17q11 -13 20.5 -34.5t3.5 -56.5q-1 -16 -5 -38.5t-8 -44.5t-8 -37q-8 -45 -17.5 -85.5t-17.5 -74.5t-13 -59.5t-6.5 -41.5t3.5 -21q3 -1 8.5 2.5t8.5 7.5q6 8 11 16t13 20q16 22 33.5 48.5t42 66t58.5 98t83 145.5q23 35 44 70t38 54q15 16 37.5 11t41.5 -25t21 -49
q1 -14 -5.5 -49.5t-17.5 -79.5t-25 -86q-3 -17 -10 -45t-15 -57t-15 -52q-7 -34 -11.5 -54t-4.5 -46q-9 -16 -12 -46t-3 -62q-4 -39 -16.5 -55t-16.5 -15q-8 3 -13 -5z" />
    <glyph glyph-name="N" unicode="N" horiz-adv-x="619" 
d="M110 -85q-20 11 -27 26t-5.5 33t6.5 37q8 32 17.5 53.5t19 45t16.5 60.5q16 37 28.5 70t19.5 54l7 21q1 4 8.5 21t19 41.5t22.5 49.5q17 48 32 81.5t30.5 60.5t33.5 54q12 21 34 25t42 -4.5t26 -28.5q5 -10 8.5 -23t7 -38.5t4.5 -73.5q2 -57 2.5 -104.5t4 -87.5t12.5 -73
q3 -18 6 -43.5t6.5 -50.5t7.5 -41.5t8 -16.5q5 0 11.5 8.5t17.5 36.5t28 86t41 156q5 17 13.5 55t12.5 77q7 25 14 55t12.5 53t5.5 26q0 7 0.5 12t-0.5 10q5 0 9 13.5t4 23.5q0 17 4.5 27.5t9.5 15.5q11 20 28.5 20.5t32.5 -10t18 -25.5q2 -11 -5.5 -49.5t-22.5 -103.5
q0 -11 -6 -36t-12.5 -53t-9.5 -48q-4 -26 -9 -48.5t-10 -21.5q-26 -113 -54.5 -192.5t-50.5 -129.5q-24 -55 -61.5 -70.5t-69.5 25.5q-19 26 -32 51t-21 59t-14 86q-6 42 -10.5 82.5t-6.5 83t-1 90.5q1 57 -4.5 67t-15.5 -11t-23 -57q-7 -20 -16.5 -45.5t-19.5 -50.5
t-17 -43t-9 -23q-6 -12 -14 -31.5t-13 -41.5q-36 -94 -53.5 -161.5t-25.5 -89.5q-10 -28 -18.5 -34t-33.5 8z" />
    <glyph glyph-name="O" unicode="O" horiz-adv-x="505" 
d="M187 -35q-37 27 -58.5 50.5t-23.5 45.5q-2 18 0.5 49t6.5 61t7 45q5 5 4.5 13.5l-0.5 8.5q-1 5 7 26.5t15 55.5q20 60 38.5 100.5t36.5 69.5t36 53q41 42 77.5 67t67.5 39q20 12 37 19t28 2q56 -12 95 -49t52 -107q7 -44 8.5 -79.5t-5.5 -70t-25.5 -75.5t-51.5 -96
q-41 -81 -89.5 -135.5t-97 -82.5t-92 -30.5t-73.5 20.5zM267 31q23 3 37.5 9t30.5 23t45 50q26 30 43.5 51t30 43t24 52.5t25.5 78.5q8 30 11.5 44.5t4.5 24.5t0.5 27.5t-0.5 53.5q-1 17 -7 38.5t-14 30.5q-10 11 -30 19t-42 -2q-12 -5 -30 -20.5t-37 -36.5t-36 -42t-27 -38
t-10 -24l-0.5 -5t-4.5 -10q-13 -14 -27 -46t-26 -73t-20 -82t-10 -74v-27t2.5 -19.5t8.5 -18.5t24.5 -20t33.5 -7z" />
    <glyph glyph-name="P" unicode="P" horiz-adv-x="468" 
d="M115 -57q-12 0 -20 13q-6 6 -13 19t-4.5 42.5t21.5 86.5q10 38 16 55.5t6 25.5q0 11 2.5 18.5t2.5 14.5q6 0 12 11t10 30q4 17 7.5 27.5t3.5 14.5q5 8 10.5 25t17.5 41q8 30 18 62.5t20.5 61t17.5 44.5q11 31 17 43.5t0 16.5q-7 5 -6.5 25.5t18.5 35.5q11 13 28 18.5
t39 5.5t46 -2q18 -1 38.5 -1h25.5q9 -4 22 -9t23.5 -9.5t10.5 -7.5q0 -6 4.5 -7.5t9.5 -2.5q7 0 23 -12.5t32.5 -30t23.5 -34.5q8 -17 13.5 -32t0.5 -43q-1 -15 -4.5 -30t-7.5 -20q-6 -4 -11 -10t-5 -11q0 -4 -8 -19.5t-20 -35t-26 -38.5t-26 -30q-13 -16 -30.5 -30
t-31.5 -23q-26 -12 -59.5 -23t-64.5 -17.5t-50 -5.5q-29 -4 -38 -7.5t-13 -17.5q-5 -13 -9.5 -27t-4.5 -20q-2 -4 -8.5 -22t-15 -42t-15.5 -48t-11 -41q-4 -14 -16.5 -21t-21.5 -7zM257 277q4 -4 26 -1t53 15q20 7 40.5 17t39.5 22q10 7 21 17.5t31 35.5q3 5 10.5 19.5
t13.5 27.5q9 14 18 41.5t4 45.5q-5 26 -20 43.5t-38 25.5q-22 4 -36.5 5t-31.5 -2q-16 -5 -22.5 -14t-18.5 -38q-7 -14 -20 -38.5t-22 -49.5q-18 -66 -31.5 -101t-17.5 -46q1 -11 -1 -15.5t2 -9.5z" />
    <glyph glyph-name="Q" unicode="Q" horiz-adv-x="492" 
d="M235 -86q-15 3 -37 16t-40.5 30t-25.5 31q-25 51 -27.5 108.5t14.5 139.5q5 17 13.5 46t18.5 58t18 49t10 20q3 3 3 17q0 5 8.5 21.5t22 37.5t28 40.5t27.5 30.5q20 26 45.5 51.5t50.5 38.5q6 4 21.5 9t33 9t28.5 5q50 3 82.5 -15.5t51.5 -57.5q20 -22 22 -45.5t6 -52.5
q0 -27 -5.5 -63.5t-14.5 -72t-20 -59t-21 -23.5l-3 -0.5t-3 -5.5q2 -7 -4 -31.5t-21 -53.5q-32 -90 -79.5 -154.5t-100 -97t-102.5 -26.5zM441 -126q-16 -1 -37 7t-25 21q-7 6 -7 11.5t-2 7.5q-4 2 -11 10.5t-10 19.5q-7 14 -20.5 40.5t-28.5 55t-26.5 50t-13.5 24.5
q-8 8 2 20q5 12 21 22.5t35 5.5q23 0 42 -48q1 -5 9 -24t18 -37.5t16 -23.5q5 -11 11 -25t13 -23q3 -11 13 -24t14 -27q23 -36 18 -50t-31 -13zM250 0q42 6 78.5 44.5t69.5 104.5t63 151q9 25 22.5 55t24.5 66.5t11 77.5q6 44 -4 60.5t-34 27.5q-32 12 -67 -3t-68.5 -56.5
t-62.5 -111.5q-41 -87 -62.5 -151.5t-26.5 -114.5t5 -95q2 -31 14 -46.5t37 -8.5z" />
    <glyph glyph-name="R" unicode="R" horiz-adv-x="544" 
d="M160 -60q-4 -10 -27 -10t-40 13q-12 12 -15.5 18.5t3.5 22t24 54.5q4 24 14 48.5t15 34.5q4 14 16.5 46.5t29 72.5t31.5 75.5t22 53.5q17 40 35 84t49 111q4 10 -3 21t-24 11q-10 11 -11 23.5t10 17.5l92 31q47 11 96.5 6.5t93.5 -27.5q48 -28 70 -62t24.5 -68.5
t-8.5 -62.5q-8 -21 -30.5 -46t-52 -50t-61 -45.5t-58.5 -31.5q-25 -12 -56 -24.5t-60 -21.5q-16 -4 -38 -4t-33 4l-17 -32q-10 -36 -34.5 -107t-56.5 -156zM557 -79q-8 -3 -26.5 -2t-41.5 16q-44 26 -88 63t-99 100q-21 25 -31.5 50t-26.5 63l-14 54l38 25l44 -36
q16 -35 37.5 -67t43.5 -57q18 -21 49 -50.5t66 -56.5t63 -41q6 -5 3.5 -19.5t-8 -27.5t-9.5 -14zM305 313q23 2 50.5 12.5t58.5 23.5q29 14 57.5 30.5t52 36.5t37 43t11.5 49q0 13 -8 29t-20.5 29t-25.5 17q-40 10 -61 12t-30.5 -6t-14.5 -28q0 -3 -8 -19t-19.5 -40.5
t-22.5 -52.5q-29 -59 -42.5 -86.5t-16 -36.5t1.5 -13z" />
    <glyph glyph-name="S" unicode="S" horiz-adv-x="495" 
d="M266 -65q-18 5 -29 8.5l-11 3.5q2 5 -1.5 9t-14.5 5q-15 10 -31 28t-28 37t-16 28q-7 15 1 18.5t19 8.5q11 8 23.5 12t20.5 -13q13 -23 40.5 -39t63 -19t71.5 12q24 11 26 30.5t-15 45.5q-3 8 -8.5 13t-16 13t-29.5 26q-15 7 -27.5 13t-26.5 13q-16 8 -36 22.5t-37 32
t-26 33.5q-16 15 -20 41.5t1.5 56.5t18.5 54q6 14 22 36.5t36 46.5t38.5 43.5t29.5 26.5q8 8 17 16.5l9 8.5q1 5 3.5 5h2.5q5 3 22 10t37 26q67 32 114 43.5t74 11.5v0v0q25 -1 49 -13.5t41.5 -31.5t20.5 -43q7 -24 -6.5 -57.5t-37 -63t-48.5 -43.5q-28 -12 -47.5 -3
t-18.5 28q0 8 5.5 19t30.5 39q32 47 34 67t-18 23q-6 2 -23 -1t-36.5 -7.5t-34 -9.5t-14.5 -7v-3t-4 -2q-2 0 -13.5 -6.5t-27.5 -16.5t-31.5 -20.5t-26.5 -18.5t-12 -10q-2 -11 -23 -20q-20 -12 -35 -34t-35 -56q-17 -23 -24 -49.5t0 -42.5q5 -16 27.5 -31.5t61.5 -38.5
q34 -19 64 -40t51 -40.5t27 -32.5q12 -17 14.5 -39t0 -42.5t-6.5 -33.5q-7 -16 -21.5 -34t-26.5 -17q-11 -3 -16.5 -7t-12.5 -7q-7 -4 -33 -9.5t-57 -9t-54 -2.5z" />
    <glyph glyph-name="T" unicode="T" horiz-adv-x="458" 
d="M224 -53q-18 -1 -30 17t-11 30q1 16 9 46t18 61t18 49q4 16 7.5 28.5t4.5 16.5q3 4 9.5 21t10.5 33q2 8 8.5 30.5t16 52.5t19 59t16.5 51t9 29q8 12 12 23t5 15q6 4 7 10.5t1 10.5q0 5 3.5 8t3.5 7q4 3 5 1t6 3l5 34l89 1q-2 -12 -6 -29.5t-19 -46.5q-5 -20 -11.5 -36
t-5.5 -21q-2 -2 -8.5 -20t-15 -44l-17 -52t-15 -45.5t-8.5 -24.5q-8 -16 -18 -47t-30 -84q-8 -16 -19.5 -48t-18.5 -58q-11 -39 -19.5 -56t-15.5 -20.5t-15 -4.5zM233 535q-41 -4 -55.5 10t-10.5 30q3 12 14.5 20.5t42.5 14.5q11 2 28.5 5t33.5 6q33 4 54.5 7t44.5 5t58 4
q29 2 49.5 3.5l20.5 1.5q3 0 21 -2t39 -5t31 -7q23 -5 37 -18t18 -30q3 -12 0 -18.5t-11 -10.5q-23 -7 -37.5 -11.5t-28.5 0.5q-5 5 -11.5 9t-22 6.5t-48.5 4.5q-28 -3 -49 -3t-21 -5l-59 -3l-49 -5q-10 -1 -28 -2.5t-35 -3t-26 -3.5z" />
    <glyph glyph-name="U" unicode="U" horiz-adv-x="482" 
d="M229 -60q-52 14 -79.5 53t-30 108.5t18.5 173.5q7 35 20 80t30.5 92.5t37 92t38.5 78.5q23 41 40 55t33 12q24 -4 36.5 -19.5t12 -33t-17.5 -28.5q-11 -13 -28.5 -47.5t-35.5 -66.5q-20 -58 -35 -102.5t-25 -83.5t-18 -82q-9 -42 -14 -64.5t-6.5 -34t-2 -20t-0.5 -22.5
q8 -13 13 -23t13 -12q17 -8 34.5 -8t38.5 12q5 10 13 14l8 4q2 -5 4.5 -2.5t3.5 6.5q-1 4 2 7.5t7 7.5q8 3 20.5 17t24.5 31.5t20.5 32.5t8.5 19q0 5 4 9t9 10q5 5 20.5 32.5t34 64.5t33.5 68q3 11 11 35.5t17.5 56.5t18.5 64.5t16.5 58t9.5 37.5q2 13 6 21.5t5 12.5
q11 9 25 5t26.5 -11.5t18.5 -10.5q6 -8 5 -20t-6.5 -36.5t-15.5 -70.5q-21 -82 -50.5 -151t-63.5 -146v-0.5v-5.5q-12 -7 -19 -21q-5 -9 -8.5 -15.5t-8.5 -9.5q-3 -9 -6 -16l-3 -7q-1 -5 -7 -9l-12 -8q-5 -2 -6 -8t-4 -10q-22 -33 -54 -66.5t-65.5 -58.5t-60.5 -35
q-18 -7 -29.5 -8t-25.5 2z" />
    <glyph glyph-name="V" unicode="V" horiz-adv-x="490" 
d="M264 -60q-5 2 -7 6t-4 16q0 11 -6 16t-23 9q-11 11 -18 25.5t-11 47t-8 96.5q2 35 3.5 59t3.5 45t4.5 45t7.5 60q-2 23 2.5 50t1.5 43q7 22 9 50.5t9 50.5q2 17 4.5 32t2.5 25q-2 20 4.5 42t28.5 32q6 2 16.5 2t16.5 -2q16 -7 18.5 -22t1.5 -26q2 -11 2.5 -38t-2 -59.5
t-9.5 -63.5q-8 -41 -12.5 -83.5t-6.5 -83.5q-4 -82 -8 -136t-1 -78q0 -3 0.5 -8.5t2.5 -9t5 -3.5q4 1 6.5 6t6 15t9.5 23q13 25 26.5 54.5t23.5 56.5q18 42 36 72t34 67q6 16 21.5 46.5t29.5 56.5q17 26 32.5 50t36.5 64q29 48 50 70.5t37 22.5q11 2 18.5 0.5t14.5 -11.5
q8 -11 10 -25t-6.5 -36t-34.5 -59q-20 -30 -44.5 -70t-45 -75.5t-29.5 -52.5q-5 -11 -9 -23t-12 -22q-10 -10 -27 -43t-33 -65q-18 -42 -28.5 -65.5t-17 -38.5t-12.5 -29l-15 -35q-5 -17 -13.5 -29t-9.5 -18q-7 -11 -24.5 -23t-34.5 -19t-24 -4z" />
    <glyph glyph-name="W" unicode="W" horiz-adv-x="720" 
d="M503 -62q-13 -1 -23.5 5.5t-14.5 16.5q-4 5 -13 21.5t-11 28.5q-3 32 -3.5 62t2.5 84q3 44 12 78.5t18 59t14 37t2 12.5q-4 0 -8.5 -7.5t-10 -19.5t-12 -26t-13.5 -27q-14 -31 -32.5 -65.5t-37.5 -66.5t-33 -56q-9 -10 -21 -28.5t-26 -38.5t-29 -33q-22 -21 -45 -25.5
t-43 5.5q-10 1 -21 10.5t-17.5 23.5t-3.5 26q-1 14 0.5 43.5t5.5 65t8.5 68.5t8.5 55q9 64 24.5 131t28.5 135q8 20 14.5 45.5t13.5 47.5q1 22 16 27.5t32.5 1.5t24.5 -14q10 -10 19 -31t-5 -53q-20 -49 -38.5 -119.5t-33.5 -170.5q-4 -24 -8.5 -53.5t-8 -56.5t-5 -44.5
t0.5 -18.5q8 -2 17.5 9t20.5 35q41 68 77.5 135t73.5 140q17 29 34.5 63.5t33.5 63.5q17 30 33 58t28 47.5t18 21.5q27 0 40.5 -14t21.5 -34q2 -5 2.5 -17t-3.5 -21q-1 -7 -8.5 -29t-13.5 -49q-10 -27 -17.5 -53.5t-10.5 -43.5q-8 -43 -20 -94t-20.5 -101t-9.5 -90
q-1 -28 0.5 -36.5t5.5 -17.5q2 -8 9 -4t14 14q14 21 21.5 36t15.5 32.5t22 44.5q25 46 51.5 101t51 109t42.5 96q19 54 32 87.5t24 51.5t21 24q5 4 21.5 4t25.5 -8q4 -4 14 -13t9 -21q-5 -16 -18.5 -52t-31 -79.5t-34 -83t-27.5 -62.5q-11 -21 -21 -36t-10 -23
q0 -4 -10 -24.5t-25.5 -49.5t-33.5 -60t-34 -57t-27 -40q-25 -31 -53.5 -52.5t-50.5 -32.5t-29 -11z" />
    <glyph glyph-name="X" unicode="X" horiz-adv-x="524" 
d="M634 650q20 -1 28.5 -21t3.5 -50.5t-29 -64.5q-23 -23 -26 -39q-7 -9 -21.5 -25.5t-31 -35t-29 -32.5t-16.5 -17q-14 -12 -31.5 -28t-31 -29.5t-17.5 -18.5q-7 -7 -13 -14.5t-11 -9.5q-1 -4 -6 -9.5t-7 -10.5q-2 -1 -13 -11t-24.5 -22.5t-24 -22.5t-11.5 -12
q-11 -10 -34 -34.5t-51 -54.5t-54 -58.5t-43.5 -49t-19.5 -25.5q-4 -8 -12.5 -10.5t-16.5 -0.5q-4 -2 -18 -1t-16 2l-2 5t-4 16q-6 10 -0.5 31.5t9.5 32.5q7 13 14 22t24 24.5t52 48.5q16 16 32.5 30.5t17.5 17.5q1 4 8 11t14 17q7 5 23.5 20.5t36.5 35t39.5 38.5t32.5 31
q6 8 14.5 16.5t18.5 20.5q1 2 13.5 14.5t29.5 30t32.5 34t23.5 25.5q40 47 72.5 91t45.5 72q10 21 15.5 20t13.5 0zM493 -31q-19 2 -43.5 21t-47.5 60q-37 51 -65 123.5t-39 156.5q-5 35 -11 60.5t-8 27.5q-1 4 1.5 5.5l2.5 1.5q3 3 1 6.5t-4 8.5l-5 23t-8 57
q-4 36 -6.5 62.5t-4.5 34.5q-3 2 -3 6v4q2 6 11.5 14.5t12.5 11.5q15 11 33 6.5t31 -21t13 -41.5q0 -26 6 -32q-1 -2 -0.5 -15t2 -29.5t3.5 -30.5t3 -19q-4 -12 0 -17q1 -8 3 -21.5t1 -18.5t2.5 -17.5t6.5 -25.5l26 -90q8 -32 15 -56.5t17 -48t24 -52.5q11 -24 26 -44.5
t27 -27.5q2 -2 10.5 -2.5t10.5 2.5q11 3 15 -7t4.5 -23.5t0.5 -23.5q2 -7 -8 -14.5t-25.5 -12t-30.5 -2.5z" />
    <glyph glyph-name="Y" unicode="Y" horiz-adv-x="504" 
d="M314 259l-35 44q-20 30 -32 56t-17 64q-7 24 -9 45t-1.5 48.5t1.5 68.5q1 38 12 62.5t15 32.5q21 18 34.5 7t20 -37t5.5 -55q3 -107 13.5 -162t26.5 -68q12 -3 21 2.5t23.5 22t40.5 43.5q28 29 56 61.5t53.5 62.5t46 52t32.5 29q4 6 14 10.5t19.5 7l9.5 2.5q8 -2 9 -12.5
t8 -20.5q2 -4 9 -12t6 -13q0 -3 -9 -13.5t-19 -20.5l-15 -15q-13 -11 -40.5 -38.5t-56.5 -59t-49 -56.5q-44 -51 -78.5 -88t-42.5 -44q-1 -2 -13 -2.5t-17 -8.5zM258 -76q-4 1 -16.5 9t-22.5 15q-7 8 -8.5 17t2.5 24t11 42q1 23 9.5 56t20.5 55q0 11 5 30t12.5 39.5
t13.5 35.5l18 52l40 34l52 -36q-4 -6 -7 -14t-8 -27t-15 -59q-8 -27 -17.5 -58t-17.5 -58t-14 -44q-12 -45 -21.5 -71t-18 -35.5t-18.5 -6.5z" />
    <glyph glyph-name="Z" unicode="Z" horiz-adv-x="522" 
d="M118 -57q-21 2 -40 6t-27 23q-9 21 0 46t19 35q17 18 36 39t45.5 47.5t65.5 64t97 88.5q40 34 64 56.5t43 41.5t42 43q35 36 59 62.5t29 46.5q6 20 3.5 28.5t-18.5 12t-51 5.5q-62 5 -113.5 -0.5t-95.5 -13.5q-7 -2 -16.5 7t-9.5 13q4 5 4 14t-8 15q-4 10 0 19.5t8 13.5
q8 4 30 7t45 7q15 3 44.5 4t60 1t48.5 -2q36 -3 74.5 -8.5t68 -17t38.5 -33.5q11 -23 4.5 -41t-17.5 -48q-12 -22 -40.5 -58.5t-65 -76t-74.5 -74.5q-56 -52 -100.5 -92.5t-88.5 -78.5q-28 -24 -52 -45.5t-52 -47.5q-10 -13 -3.5 -21t47.5 -6q23 1 36 4t28 6t42 4
q52 3 86.5 5t62.5 2q8 0 13.5 -2t15.5 -16q9 -3 10 -14.5t-4 -24t-14 -19.5q-7 0 -24.5 -3.5t-38 -6t-36.5 -1.5q-13 1 -49.5 -1.5t-78.5 -7.5q-37 -6 -81 -7t-71 0z" />
    <glyph glyph-name="bracketleft" unicode="[" horiz-adv-x="330" 
d="M66 -144q-17 8 -21 28t8 37q5 3 9 11t4 15t5.5 31t14 56t17.5 63t16.5 53.5t10.5 26.5q0 5 7 22t24 43q16 51 37.5 110.5t44.5 115.5t42.5 99.5t31.5 61.5q3 13 5.5 25.5t2.5 16.5q0 20 10 30.5t39 10.5q29 4 53 5t49.5 5.5t59.5 15.5q15 3 33.5 13.5t22.5 10.5
q12 3 18 -4t14 -20q14 -16 12.5 -26.5t-23.5 -19.5q-17 -5 -45.5 -14t-59 -17t-53.5 -11q-19 -5 -32.5 -9t-16.5 -8q-2 -3 -7.5 -15t-12 -26.5t-11.5 -26t-5 -13.5q-2 -2 -10 -17.5t-18 -36t-18 -39t-10 -27.5q-2 -6 -10.5 -26.5t-17.5 -42.5t-13 -34q-4 -10 -9.5 -27.5
t-11 -34t-9.5 -25.5q0 -3 -2.5 -15t-7.5 -20q-4 -7 -9.5 -20.5t-8.5 -24.5q-4 -7 -8 -13.5t-4 -10.5q0 -3 -0.5 -9t-4.5 -17q-3 -4 -3.5 -9l-0.5 -5q-4 -4 -8 -22t-13 -40q-8 -25 -14.5 -43t-6.5 -26l-5 -28l30 6q18 3 47.5 6.5t57.5 6t43 2.5q18 4 25.5 1t12.5 -10t13 -16
q4 -8 6 -13.5t-1 -8.5q-2 -3 -25 -9t-51.5 -12t-49.5 -9h-26.5h-10.5q0 -9 -33 -9q-11 -6 -29 -10t-25 -8q-22 -9 -38 -9t-27 9z" />
    <glyph glyph-name="backslash" unicode="\" horiz-adv-x="330" 
d="M333 -121q-4 0 -8 2t-6 5q-18 3 -14 19q0 4 -4.5 27t-11.5 57.5t-16 73.5t-18 76t-16 65t-11 39q1 4 -1 8t-1 8q0 5 -1.5 12.5t-0.5 11.5q-4 4 -5.5 13.5t-0.5 17.5t-1 15.5t-7 7.5q-1 3 -5 20.5t-9 42.5t-11 53.5t-11 55.5t-8.5 46.5t-3.5 26.5q2 8 0 19t-4 24
q-4 49 5 76.5t26.5 36.5t35.5 1q6 -5 10 -23.5t0 -41.5q-1 -11 2 -36.5t8 -59t11 -70t11.5 -69t8.5 -55.5q7 -22 8.5 -36.5t-0.5 -18.5v-5.5t4 -5.5q4 -4 4 -8.5t1 -8.5q-1 -2 2 -15t8 -31t10 -34.5t8 -24.5q1 -13 3.5 -22t1.5 -13q0 -2 3.5 -16.5t9.5 -35t11 -39t8 -29.5
q12 -37 18.5 -55.5t8.5 -28.5t-1 -23q0 -11 -2.5 -19.5t-12.5 -15.5t-23 -13.5z" />
    <glyph glyph-name="bracketright" unicode="]" horiz-adv-x="330" 
d="M120 -126h-13.5t-19.5 2q-7 -1 -23.5 -1.5t-33.5 2.5q-15 -1 -33 5.5t-23 5.5l-5 7t-10 13l-14 10l12 5q4 5 22 11t40.5 11t41.5 8t24 1q3 0 13 -1.5t21 -0.5l27 3l10 27q2 12 3.5 24.5t1.5 16.5q6 5 9.5 13t2.5 14q3 8 8.5 23t11.5 34q2 16 12 43.5t14 52.5
q6 20 14.5 43.5t10.5 35.5q2 15 9 31t8 31q9 28 24 72.5t32 95.5t31 97q11 22 16.5 42.5l5.5 20.5l-19.5 -1.5t-48.5 -3.5q-63 -4 -89.5 -5.5t-31.5 -1t-6 2.5q-3 3 -3.5 7.5t-3.5 4.5q-4 -1 -8 7t-5 15q0 9 18.5 18t49 16.5t66.5 11.5q44 5 56.5 3.5t15.5 -1.5q11 3 32.5 6
t42.5 4t28 -4q3 0 9.5 -13t6.5 -23q8 -14 8 -17.5t-6 -11.5q-4 -6 -12.5 -21.5t-17 -33.5t-14 -32t-4.5 -17q0 -3 -1 -5.5t-6 -3.5l-2.5 -1t-2.5 -6q2 -8 -3 -22.5t-9 -14.5l-2.5 -1t-2.5 -6q0 -4 -2.5 -14t-7.5 -24q-10 -35 -20 -58t-10 -26l-3 -7t-5 -14q-4 -8 -8 -26.5
t-6 -34.5q-9 -13 -16 -31.5t-9 -24.5q-3 -10 -4.5 -19l-1.5 -9q0 -3 -4.5 -21.5t-11 -38.5t-11.5 -30q0 -4 -5 -24t-13 -46q-4 -23 -9 -44t-7 -26q0 -3 -4.5 -6.5t-4.5 -8.5v-10.5t-5 -10.5q-3 -5 -3 -10.5v-5.5q3 0 2 -2l-1 -2q-3 0 -3.5 -7t-0.5 -13q0 -21 -8 -34
t-24.5 -17.5t-43.5 -2.5q-24 3 -30 2.5t-4 -2t4 -2t-5 1.5z" />
    <glyph glyph-name="asciicircum" unicode="^" horiz-adv-x="446" 
d="M134 287q-5 4 -11.5 11t-6.5 24.5t13 51.5q17 34 24.5 50t18.5 29q9 16 27.5 36t41 38t44 29.5t36.5 9.5q9 -1 23 -20t30 -48.5t32 -62t29 -61t20 -45.5q5 -12 -1.5 -28t-19.5 -27.5t-26.5 -9t-21.5 28.5q-5 15 -8.5 26t-12 31t-27.5 61q-16 27 -23 40.5t-12 17.5t-15 1
q-13 -4 -25.5 -15t-27 -35.5t-35.5 -70.5q-11 -33 -31 -51.5t-35 -10.5z" />
    <glyph glyph-name="underscore" unicode="_" horiz-adv-x="446" 
d="M114 -14q-6 0 -15 0.5t-20 4.5q-15 0 -23.5 6.5t-12.5 13.5q-11 15 1.5 22t49.5 11q17 4 50.5 6.5t73.5 4t75.5 2.5t55.5 1q26 0 39 -3.5t24 -14.5q15 -15 7 -31.5t-31 -12.5q-5 0 -19 -1t-30.5 -2t-28.5 -2q-6 0 -31 -1t-58 -2t-63 -1.5t-44 -0.5z" />
    <glyph glyph-name="grave" unicode="`" horiz-adv-x="353" 
d="M340 426q-13 -10 -20 -7t-12 27q-4 15 -15 33.5t-22 37.5t-15.5 35t3.5 26q5 8 18 19t28 7q9 -3 19.5 -18t20 -36.5t17 -44t12.5 -40.5q1 -3 -5.5 -11.5t-14.5 -16.5t-14 -11z" />
    <glyph glyph-name="a" unicode="a" horiz-adv-x="446" 
d="M124 21q-4 8 -17.5 16t-13.5 12t-4.5 12.5t-8.5 12.5q-5 6 3 29.5t24 57.5t35 69q8 8 16 21t12 17q0 4 3 7.5t7 3.5l8 16q2 4 12.5 16t25.5 26.5t30.5 27.5t25.5 19q21 14 43.5 13t38.5 -14q3 -3 13.5 -12t24 -20t23.5 -20l37 -33l-17 -50q-13 -40 -6.5 -70t18.5 -52
q5 -11 13.5 -17t22.5 -8q8 -1 15 -6t7 -16q0 -24 -8.5 -34.5t-18.5 -12.5q-33 -4 -63 7t-54 57q-4 6 -10.5 22.5t-7.5 21.5q-4 -5 -10.5 -12.5t-12.5 -13.5q-71 -72 -121.5 -93.5t-84.5 0.5zM179 104q7 -1 22 7.5t40 28.5q34 29 56 48t43 49l22 36q-10 23 -18 30t-16 7
q-13 0 -31 -16.5t-40.5 -48t-50.5 -78.5q-13 -22 -20 -42.5z" />
    <glyph glyph-name="b" unicode="b" horiz-adv-x="444" 
d="M229 6q-20 2 -31.5 10.5t-17.5 21.5q-8 9 -9.5 14t-0.5 9q5 0 9 0.5t5 3.5q0 3 3.5 4t7.5 0q19 -1 46.5 13t60.5 39.5t66 55.5q26 34 36.5 50t11 24.5t-4.5 17.5q-4 8 -19 8t-46 -20q-43 -27 -69 -50t-48 -52q-8 -10 -17.5 -21.5t-16 -19.5l-6.5 -8q0 -4 -11.5 -10
t-19.5 -6q-4 2 -10.5 7.5t-8.5 14.5q-9 7 -15 12.5t-6 18.5q0 8 2.5 20t7.5 31q6 26 13 54.5t13.5 49t9.5 22.5l4 9t4 21q2 12 6.5 21t4.5 13q4 3 12 24t20 55q0 3 7 19.5t17 39t20.5 47t17.5 43.5q12 17 20.5 34.5t15.5 20.5q5 1 17.5 -4t25.5 -13t18 -16q3 -5 3.5 -10
t-4.5 -16.5t-17 -37t-34 -71.5q-28 -60 -43.5 -100t-25 -69t-19.5 -55l-5 -22l26 29q10 10 21 19t24 18q8 6 21.5 12.5t26.5 11.5t19 6q3 1 20.5 4.5t34.5 3.5q22 0 38.5 -15.5t29.5 -37.5q11 -21 8 -53.5t-17 -55.5q-5 -4 -10 -10.5t-5 -10.5q-1 -7 -18 -28.5t-34 -40.5
q-18 -19 -44 -37.5t-51.5 -33t-43.5 -20.5q-8 -1 -23 -3.5t-23 -4.5z" />
    <glyph glyph-name="c" unicode="c" horiz-adv-x="364" 
d="M221 -4q-29 -5 -57.5 5t-47 32.5t-18.5 54.5q-3 30 5.5 71.5t26 83.5t40.5 71q20 24 40 44t36 27q14 6 34.5 9.5t28.5 3.5q16 -4 35.5 -13t19.5 -21l2.5 -2.5l2.5 -2.5q6 0 13.5 -14.5t11.5 -33t-2 -29.5q-4 -19 -15.5 -37t-19.5 -18q-4 0 -7.5 -0.5t-3.5 -5.5t-10.5 -5
t-21.5 4t-14 12q0 5 2 13t6 27q6 28 1 37.5t-25 1.5q-25 -14 -41 -32.5t-28.5 -51.5t-27.5 -92q-6 -23 -1.5 -36t7.5 -14q14 -4 30.5 -1.5t27.5 8.5q16 8 28.5 17.5t27.5 20.5q5 3 9 11.5t12 12.5q8 12 20.5 12.5t24.5 0.5q8 -2 17 -10t13.5 -15.5t-1.5 -10.5
q-4 0 -4.5 -2.5l-0.5 -2.5q2 -4 -8.5 -18t-26.5 -30t-30.5 -27.5t-20.5 -11.5q-10 0 -10 -6q0 -2 -14.5 -10t-33 -16t-32.5 -11z" />
    <glyph glyph-name="d" unicode="d" horiz-adv-x="402" 
d="M374 -19q-13 -3 -25.5 6.5t-17.5 20.5q-6 16 -7.5 30.5t-2.5 33.5l-1 34l-41 -37q-34 -32 -63.5 -45.5t-53.5 -13.5q-11 2 -26.5 14.5t-28 28t-17.5 25.5q-6 14 -3.5 39t12 55t24 59t33.5 50q33 50 82 62.5t87 -8.5q18 -9 26 -7t10 13q4 16 9 30t14 42q25 76 43.5 119
t33.5 75q11 23 22 32t19 8q11 0 27.5 -8t21.5 -22q4 -9 3.5 -19t-6.5 -21q-13 -24 -30.5 -63.5t-35 -86.5t-32.5 -93t-25 -81q-6 -22 -9.5 -56t-5 -69.5t-0.5 -63t3 -35.5q6 -20 0 -30t-17 -13.5t-22 -4.5zM209 102q14 5 25 12t26 18q30 23 43.5 40t21.5 42q5 15 0.5 26
t-15.5 21q-11 9 -28 7.5t-39 -21.5q-24 -22 -41 -51t-28 -83q-2 -10 7 -14t28 3z" />
    <glyph glyph-name="e" unicode="e" horiz-adv-x="334" 
d="M293 20q-30 -17 -63.5 -19.5t-62.5 9t-47 34.5q-10 13 -19 41.5t-3 77.5q6 46 28.5 93t55.5 83t72 49q14 5 28.5 7.5t38.5 0.5q23 -3 41 -11.5t26 -18.5q16 -16 21 -31t4 -29q-5 -32 -28.5 -69t-65.5 -55q-17 -7 -40 -9t-63 6q-24 5 -31.5 -5t-6.5 -39q2 -18 8.5 -31.5
t24.5 -18.5q23 -4 33 -0.5t25 10.5q8 5 15.5 11l15 12t12.5 9q5 4 10 5t10 1q11 -1 21 -12t13 -21q0 -8 -10 -22.5t-26.5 -30t-36.5 -27.5zM280 243q7 3 20.5 14t24.5 23.5t11 19.5q0 11 -14.5 19t-37.5 3q-8 -2 -19 -11t-22 -20.5t-19 -22t-11 -16.5q4 -5 16 -8t26.5 -3
t24.5 2z" />
    <glyph glyph-name="f" unicode="f" horiz-adv-x="300" 
d="M146 -121q-6 -4 -27 9.5t-35 29.5q-7 8 -9 17t1 34q4 11 4.5 21t0.5 14q0 6 3.5 28t7.5 46.5t7 37.5q0 1 1.5 7t2.5 9q2 9 5 22t6 35q8 25 13.5 49.5t5.5 33.5q0 18 14 26q1 5 6 15.5t9 17.5q20 57 33 91t27 59q6 17 13.5 35t15.5 28q7 14 24.5 34.5t37.5 39.5t32 28
q22 11 41 18t40 7q19 0 33.5 -8.5t43.5 -34.5q10 -13 10 -25t-5 -20q-7 -16 -21 -39.5t-27 -42t-19 -19.5q-12 -7 -25 -4t-13 18q0 7 0.5 13l0.5 6q3 13 7.5 23t8.5 17q8 13 4.5 25t-25.5 10q-3 -2 -11.5 -9.5t-18 -17t-16.5 -18t-7 -11.5l-5.5 -10.5t-16.5 -23.5
q-7 -10 -12 -19t-5 -14q0 -4 -1 -7t-5 -3l-3.5 -10t-11.5 -24q-4 -10 -8.5 -18.5t-8.5 -12.5l-1 -2l-4.5 -11.5t-9.5 -23.5t-5 -14q0 -4 12 -4t29 3.5t33 7.5q14 4 20 4t19 -4q8 -5 13 -17.5t7.5 -25t0.5 -18.5q-1 -4 -22.5 -11t-42.5 -11q-18 -4 -40.5 -8.5t-39.5 -9
t-18 -8.5q-4 0 -6.5 -5t-2.5 -9q0 -13 -5 -21q-2 -6 -6.5 -24.5t-9 -40t-8 -40t-3.5 -24.5q-6 -7 -7 -17.5t-1 -18.5q-4 -8 -5 -14.5t-1 -10.5v-4t-1 -6q-1 -10 -2.5 -26.5t-1.5 -32.5l-3 -29q-1 -13 -3.5 -22.5t-7.5 -14.5z" />
    <glyph glyph-name="g" unicode="g" horiz-adv-x="364" 
d="M214 -200q-28 -11 -58.5 3.5t-52.5 45.5q-4 6 -12 21.5t-15.5 33.5t-11 31t-0.5 15q4 11 18 13t28 -1.5t16 -9.5q3 -7 6 -14.5t7.5 -14t8.5 -11.5q11 -17 24 -23.5t20 -1.5q17 13 25.5 30.5t22.5 61.5q11 37 19 64t17 50q3 12 7.5 20.5t8.5 12.5h6q-22 -14 -37 -28
t-41 -25q-6 -7 -29.5 -8.5t-45.5 5.5q-14 8 -22.5 16.5t-14 19.5t-11.5 26q-7 15 -2 49t18 68q12 25 35 54t49 52.5t47 29.5q8 4 28 9.5t38 0.5q17 -2 26 -7.5t29 -22.5q13 -13 32 -33.5t24 -34.5q7 -15 3 -32.5t-14 -30.5q-9 -13 -19 -26t-15 -36q-5 -30 -19 -67.5
t-22 -69.5l-16 -62q-25 -85 -55 -123.5t-50 -49.5zM193 144q20 1 34.5 4.5t27.5 16t30 38.5q17 24 24 44t5 45q-1 16 -9 21t-21 3q-19 -3 -34 -15.5t-35 -38.5q-15 -20 -25 -48q-10 -30 -8.5 -48t11.5 -22z" />
    <glyph glyph-name="h" unicode="h" horiz-adv-x="473" 
d="M139 38q-7 -1 -15.5 5.5t-15.5 11.5q-10 12 -14 21t-4 20t2 26q5 16 12 43t17 58q2 12 7.5 28.5t11.5 32t9 23.5q7 25 14.5 48t18.5 53t27 76l33 90t16 43t7 21q0 8 11.5 15.5t20.5 7.5q14 -1 27 -16.5t18 -37t-7 -41.5q-16 -36 -31.5 -80.5t-30.5 -88.5t-30 -81
q-1 -5 -6.5 -17t-9.5 -20l-7.5 -15l-3.5 -7q-1 -6 -4 -17t-6 -19q-1 -5 -3 -13t-3 -16q5 6 14 14.5t23 21.5q16 14 28 24t24 18q11 8 20.5 15l9.5 7q2 3 4.5 7t5.5 5q2 2 7 5.5t10 7.5q9 6 19 10t21 6t21 2q12 0 25 -9.5t24 -26.5q10 -13 12.5 -30.5t0.5 -46.5
q0 -8 -4.5 -30t-6.5 -33l-9 -34h8q11 4 21.5 1l10.5 -3q5 -3 9.5 -7t8.5 -6q6 -8 -2 -23t-18 -21q-24 -16 -42.5 -20t-38.5 7q-19 13 -25.5 31t-5.5 49q4 44 5 63.5t-10 19.5q-12 0 -32.5 -11.5t-45.5 -31t-49.5 -43t-43.5 -47.5q-12 -15 -26 -29.5t-34 -15.5z" />
    <glyph glyph-name="i" unicode="i" horiz-adv-x="196" 
d="M103 17q-8 8 -11.5 24t-2.5 31.5t5 23.5q0 8 2.5 12.5t1.5 8.5t2 14t6 19q7 16 16 41.5t18 52t15 46t7 23.5q0 12 16 13q12 4 29 -10t27 -30q8 -8 6 -21t-13 -37q-4 -8 -9.5 -26.5t-7.5 -30.5q-4 -8 -9.5 -22.5t-9.5 -27.5q-2 -5 -4 -18.5t-5 -27.5t-8 -22
q-9 -41 -31.5 -48t-39.5 12zM211 418q-11 8 -16.5 19.5t-6 20.5t1.5 11q10 11 17.5 29t16.5 33q2 3 5.5 8.5t7.5 6.5q12 8 33.5 -1t31.5 -25q9 -19 5.5 -39t-21.5 -42q-15 -20 -38 -25.5t-37 4.5z" />
    <glyph glyph-name="j" unicode="j" horiz-adv-x="213" 
d="M65 -209q-22 -22 -56.5 -21.5t-58.5 25.5q-23 32 -31.5 61.5t-3.5 48.5t21 19q5 0 14.5 -4t17.5 -10t8 -14q0 -15 3 -26t16 -13q11 -4 22.5 2.5t22.5 24.5q10 13 22 41t24 58.5t19 49.5q12 41 19 83.5t17 91.5q4 27 9.5 46.5t5.5 23.5t1 16.5t6 22.5q0 15 4.5 34t4.5 23
q3 3 12.5 0.5t20 -7.5t15.5 -10q8 -8 14 -17.5t8.5 -30t-2.5 -62.5q0 -6 -3 -24.5t-8 -41.5t-10 -44.5t-8 -35.5q-4 -15 -9 -33t-6 -25q-1 -6 -7 -23.5t-12.5 -34.5t-7.5 -24q-1 -4 -5.5 -19t-18.5 -46q-5 -12 -21 -34.5t-33 -43t-26 -27.5zM213 476q-11 13 -6.5 42t20.5 50
q13 15 35.5 17t35.5 -9q11 -17 14 -34t-8 -33q-25 -28 -51.5 -36t-39.5 3z" />
    <glyph glyph-name="k" unicode="k" horiz-adv-x="374" 
d="M128 -3q-8 3 -21 16.5t-23 30t-10 27.5q5 11 13.5 39t19.5 63q8 11 12.5 25.5t8.5 26.5q8 18 18 41t19.5 47t17.5 42q14 30 23.5 52.5t19 44.5t20.5 49q15 31 27.5 61.5t22 54.5t11.5 34q-1 8 2 11.5t8 4.5q5 3 16 4t15 1q12 -2 24.5 -19.5t12.5 -29.5q0 -16 -15.5 -59.5
t-44.5 -102.5q-35 -75 -52.5 -116t-23.5 -58t-5 -22l8 3t24 14q11 7 25 18t27.5 20t21.5 11q5 4 14 10t17 11q19 14 30 9t20 -17q11 -13 8.5 -27.5t-31.5 -37.5q-22 -16 -47 -30.5t-45.5 -25.5t-29.5 -18l9 -13t17 -25q8 -16 20 -40.5t18 -34.5q11 -16 22.5 -21t34.5 3
q15 4 25.5 -0.5t17.5 -14.5q4 -8 4 -16t-13 -19q-28 -19 -54.5 -32.5t-50.5 2.5q-21 16 -39.5 36.5t-41.5 50.5q0 4 -6 17t-8 15q-4 8 -8.5 14.5l-4.5 6.5q-3 11 -7.5 18t-11.5 8q-4 -3 -9 -10t-10 -17q-6 -15 -12 -29.5t-10 -31t-5 -39.5q1 -11 -9 -23.5t-26 -12.5z" />
    <glyph glyph-name="l" unicode="l" horiz-adv-x="178" 
d="M142 -11q-19 -5 -34 10.5t-21 45.5t2 67q5 12 8 23.5t3 18.5q2 10 8 29.5t13 40.5t13.5 37.5t8.5 20.5q4 0 7 7t3 14q0 8 3.5 18t7.5 14q0 5 2.5 11.5t2.5 10.5t2.5 8t2.5 8q7 13 18.5 41.5t25 63.5t25.5 69t19.5 57.5t7.5 28.5q0 8 6 15t14 7q3 3 14 4.5t15 1.5l4 -4
l12 -12q8 -7 15.5 -16t7.5 -21q0 -13 -3.5 -25t-12.5 -32.5t-28 -60.5q-8 -20 -17 -37.5t-9 -21.5t-3.5 -12t-7.5 -20q-4 -8 -11 -23.5t-14.5 -33t-12.5 -30t-5 -14.5q0 -4 -0.5 -8t-4.5 -8q-4 0 -4.5 -5.5l-0.5 -5.5q0 -10 -16 -53q-16 -55 -29.5 -101t-13.5 -74
q0 -24 -7.5 -37t-15.5 -17z" />
    <glyph glyph-name="m" unicode="m" horiz-adv-x="569" 
d="M566 24q-7 2 -22 13t-26.5 33t-10.5 57q1 30 4.5 42.5t-3.5 13.5q-5 1 -20 -9t-39 -32t-58 -58q-12 -10 -26.5 -24.5t-29 -21.5t-25.5 3l-10 9q-7 6 -12 16t-3 17l28 78q12 26 16.5 38t4 15t-5.5 2q-6 -1 -17 -10.5t-15 -15.5q-4 0 -10.5 -8t-12.5 -14t-21 -22.5
t-32 -34.5q-13 -12 -30 -32t-30 -36t-16 -16q-18 1 -32.5 12t-19.5 27q-6 11 -1 40.5t19 94.5q4 15 7.5 26t7.5 22t9.5 25t14.5 34q5 14 4 26.5t-2 20.5q0 15 9.5 24t21.5 12.5t19 1.5q28 -3 38 -20t11 -33q1 -15 -4 -27t-8 -20l-11 -27q-10 -23 -14.5 -33.5t-5 -14
t-0.5 -6.5q1 -3 9 3t19.5 16.5t21.5 18.5q18 15 38.5 30.5t40.5 27.5t33 16q17 -3 31.5 -17t18.5 -24q5 -15 1.5 -27t-5.5 -22q-1 -4 -4 -15t-6 -20.5l-3 -9.5l6 6t16 14.5t20 15.5q50 38 79.5 48.5t50.5 -17.5q12 -11 15.5 -30t3.5 -51q1 -13 2.5 -29t4 -28t4.5 -15
q3 -4 11 -7.5t15 -5.5q14 -7 15.5 -25.5t-14.5 -28.5q-15 -9 -31.5 -11t-33.5 -1z" />
    <glyph glyph-name="n" unicode="n" horiz-adv-x="459" 
d="M443 24q-22 2 -36.5 9.5t-23.5 30.5q-4 16 -3.5 33.5t2.5 34t2 28.5v8v11q-2 15 -7.5 18.5t-18.5 -1.5q-21 -10 -45.5 -26.5t-51 -38t-54.5 -45.5q-22 -24 -32.5 -39t-21.5 -15q-8 -4 -17 2t-19 14q-7 8 -16.5 20.5t-11.5 16.5q0 16 2.5 29t8 27t13.5 32q4 7 7.5 14.5
t8.5 16.5q4 14 11.5 32t14.5 34q11 26 17 45t10 41q-1 2 1 6t6 5h1h1q7 5 26.5 1.5t29.5 -11.5q21 -18 20 -47t-30 -76q-7 -16 -14.5 -29.5t-7.5 -18.5l8 6t19 14.5t19 13.5q5 5 22 18.5t37 28.5t32 23q11 8 28 16.5t21 8.5q10 0 24.5 -7t27 -16.5t14.5 -17.5q0 -4 -1 -10.5
t-1 -11.5q-1 -16 -0.5 -38.5t0.5 -45t-4 -40.5l1 -1.5t2 -4.5q-1 -1 -0.5 -3.5l0.5 -2.5q2 -7 4.5 -14t6.5 -15.5t9 -21.5q-1 -13 -14.5 -25.5t-26.5 -15.5z" />
    <glyph glyph-name="o" unicode="o" horiz-adv-x="362" 
d="M168 7q-13 0 -20.5 5t-18.5 14q-19 20 -30.5 43t-8.5 40q3 8 2.5 15.5l-0.5 7.5q-5 5 -3 6.5t4 5.5q6 0 4 11q-2 8 6.5 34.5t23.5 50.5q6 10 18 26.5t26.5 33t26.5 26.5q25 21 46.5 34t43.5 18t45.5 5t38.5 -16q23 -10 32.5 -27t12.5 -44q3 -30 -6 -73.5t-49 -100.5
q-25 -36 -49 -56t-53 -37q-21 -14 -45 -17t-47 -5zM270 129q22 19 31.5 42t20.5 54q4 6 5.5 20t0.5 27.5t-7 15.5q-9 7 -18 3.5t-23 -13.5q-30 -25 -55.5 -57.5t-35.5 -79.5q-3 -25 5.5 -37.5t28 -7t47.5 32.5z" />
    <glyph glyph-name="p" unicode="p" horiz-adv-x="378" 
d="M61 -233q-4 0 -11.5 -0.5t-12.5 8.5q-4 5 -12 19.5t-3 40.5q5 17 8 33.5t3 24.5q0 4 2.5 15.5t2.5 16.5q5 8 8 22t3 25q0 12 12 22q0 8 3.5 20t3.5 16q3 14 13.5 49.5t26 80.5t30.5 88t27 73q12 28 20 52t8 34q0 4 2 6.5t9 10.5q10 10 26.5 7.5t27.5 -10.5
q8 -13 11.5 -23.5t-0.5 -32.5q0 -15 -7 -27.5t-12.5 -20t-3.5 -6.5q44 27 79.5 29.5t60 -12t37.5 -39.5t13 -54q0 -12 -8 -32t-18 -37.5t-16 -23.5q-4 0 -8 -6.5t-8 -14.5q-8 -10 -26.5 -22.5t-37.5 -20t-27 -4.5l-2.5 -2t-2.5 -7q0 -2 -14 -8t-33 -11t-35 -5q-21 0 -30 8
q-2 -2 -4.5 -6t-2.5 -7q0 -6 -4.5 -19t-10.5 -23.5t-11 -10.5l-2 -3t2 -8l-0.5 -11.5t-5.5 -19.5q0 -8 -3 -24t-7 -24q0 -12 -3.5 -23.5t-7.5 -11.5q-4 -1 -5 -12.5t-1 -16.5q-1 -25 -16 -43.5t-27 -18.5zM189 117q8 0 29 7t44 17.5t36 21.5q26 23 40.5 45t-2.5 49
q-8 14 -25.5 11.5t-38.5 -16.5t-43 -35q-12 -13 -22 -30t-16.5 -33t-7.5 -26.5t6 -10.5z" />
    <glyph glyph-name="q" unicode="q" horiz-adv-x="377" 
d="M246 -231q-12 8 -24 18t-17 30q-5 27 -1 68t16.5 91t30.5 103q5 8 11 22t5 18q-46 -24 -69 -35.5t-40 -11.5q-13 0 -29 15.5t-27.5 36.5t-11.5 37t15.5 48.5t35.5 60.5q8 14 30 33.5t46.5 37.5t37.5 26q8 5 16 8.5t16 7.5q8 5 15 8t11 3q16 4 37.5 2.5t33.5 -5.5
q12 -8 29.5 -31t21.5 -43q0 -10 -1 -18.5t-6.5 -22.5t-19.5 -44q-16 -24 -26.5 -47t-10.5 -27q-5 -13 -14.5 -34t-17.5 -38.5t-11 -23.5q-2 -10 -9 -35.5t-14.5 -56t-13.5 -57.5q-8 -44 -8 -77t8 -45q4 -12 -12.5 -21t-32.5 -1zM170 151q32 -4 61 15.5t60 49.5
q17 16 31 36.5t21 38t4 25.5q-4 8 -24.5 -1.5t-52.5 -33.5q-36 -28 -56.5 -50.5t-32.5 -50.5z" />
    <glyph glyph-name="r" unicode="r" horiz-adv-x="360" 
d="M119 27q-9 7 -19.5 18t-7.5 31q3 28 8 49.5t12 49.5q2 12 10.5 41t20.5 63t25 64.5t23 45.5q11 10 32.5 10t29.5 -8q11 -9 7 -31.5t-28 -69.5q-5 -12 -12.5 -25.5t-10.5 -22t2 -7.5q6 11 22 25.5t34 28.5t34 25t22 14q8 5 18.5 8.5t14.5 5.5q23 11 50.5 8.5t33.5 -17.5
q1 -8 6.5 -12l5.5 -4q4 0 4.5 -3l0.5 -3q0 -7 -13.5 -20t-29.5 -14q-13 -1 -23 -5t-24 -10q-38 -22 -68.5 -39t-62.5 -52q-7 -8 -15 -15t-16 -20q-5 -5 -10 -22t-8.5 -32.5t-3.5 -18.5l-3 -9.5t-10 -18.5q-12 -16 -23.5 -20t-27.5 12z" />
    <glyph glyph-name="s" unicode="s" horiz-adv-x="350" 
d="M153 -6q-34 14 -49.5 29.5t-12.5 27.5q2 6 7 11t22.5 4.5t54.5 -9.5q11 0 22 1t20.5 3t15.5 5q5 2 3 5.5t-7 7.5q-4 5 -9 6.5t-9 1.5q-2 5 -8.5 10t-15.5 11q-22 18 -40 32t-14 21v4.5v0.5q-7 0 -13 19.5t-6 35.5q0 20 8.5 40t22 38t27.5 32q19 18 40.5 35.5t47 31.5
t56.5 22q14 3 32 3t26 -5q8 5 20 -2.5t24 -20.5t18 -26q0 -12 -0.5 -29.5t-2.5 -30.5t-9 -13l-2.5 -0.5t-2.5 -5.5q0 -10 -15 -23q-19 -13 -36 -21t-26 -1q-6 4 -11 8t-9 10l-2.5 4.5t-2.5 8.5t3 7.5l3 3.5q14 13 21.5 24t10.5 19.5t3 13.5q0 6 -2.5 7.5t-10.5 1.5
q-5 0 -21.5 -8t-34.5 -19.5t-28 -20.5q-4 -7 -5.5 -9t-5.5 -2q0 4 -5 -1t-12 -14t-14 -19t-11 -16q-1 -9 -4.5 -16.5t-2.5 -15.5q1 -10 10 -19t26 -23q35 -26 52.5 -41t24.5 -24t9 -18q17 -31 4 -53.5t-40 -34.5q-10 -5 -35 -9.5t-52.5 -4t-46.5 8.5z" />
    <glyph glyph-name="t" unicode="t" horiz-adv-x="331" 
d="M171 -1q-11 2 -24 13.5t-23.5 26t-13.5 24.5q0 2 -2.5 5l-2.5 3q-4 3 -4.5 26.5t2.5 52.5t7 46q5 16 15 43.5t17 49.5l27 58l-40 11q-7 2 -11.5 8t-4.5 10q0 8 9 23t13 15q5 -1 18.5 -1t26.5 1t16 2q4 2 8 5.5t6 10.5q5 11 9 17t11 18q7 13 11.5 22t14.5 25q5 7 11 17
t15 17q9 8 29.5 11.5t35.5 -9.5q8 -10 9 -19t-8 -23q-8 -17 -18.5 -30.5t-19.5 -30.5q-16 -22 -6 -25t56 4q29 5 42 -6t15 -28q3 -24 -5 -29t-46 -5q-24 -4 -41 -4.5t-25 -0.5q-13 -1 -17 -1t-12 -2t-11.5 -6.5t-7.5 -12.5q-4 -4 -12 -21t-20 -37q-14 -42 -23.5 -80.5
t-16.5 -76.5q-3 -19 1.5 -27.5t25.5 -10.5q11 -1 32 0.5t35 5.5q11 5 23 10.5t22 11.5q9 5 18 10.5l9 5.5q5 8 14.5 -2.5t13.5 -22.5q0 -12 -5 -28.5t-37 -34.5q-45 -28 -90 -34t-71 -1z" />
    <glyph glyph-name="u" unicode="u" horiz-adv-x="370" 
d="M336 2q-10 10 -16 27.5t-12 40.5q-2 8 -1.5 18t-0.5 16q-3 -7 -9.5 -18t-12.5 -16q-4 -4 -18 -15.5t-28 -18.5q-33 -21 -58.5 -19.5t-44.5 25.5q-16 13 -26 33t-4 48q2 35 10 68.5t33 89.5q21 41 32 64t14 27q15 5 37 -0.5t24 -19.5q6 -10 0 -37.5t-24 -62.5
q-14 -34 -26.5 -66t-15 -54t11.5 -27q9 -5 26.5 1t41.5 36t51 95q8 20 12 35.5t5 34.5q-2 12 6.5 25t20.5 20q4 5 11 9.5t9 -0.5l16 1q4 1 9 -8t10 -13q11 -9 10 -39t-24 -84q-19 -41 -25.5 -62t-7.5 -41q0 -18 3 -30.5t18 -25.5q11 -7 12.5 -23.5t0.5 -28.5
q-2 -9 -15.5 -12.5t-29 -1.5t-25.5 9z" />
    <glyph glyph-name="v" unicode="v" horiz-adv-x="331" 
d="M179 53q-7 6 -18.5 36t-22 70t-16.5 74q-4 20 -8.5 34t-7.5 23q-5 18 3.5 38t20.5 27q5 3 18.5 4.5t17.5 0.5q12 -4 22 -36.5t18 -85.5q4 -31 6.5 -45.5t2.5 -18.5q4 -8 5.5 -19.5t9.5 -3.5q4 4 12.5 14t20.5 26q21 28 33.5 46.5t28.5 38.5q7 10 19 22t24 22.5t20 12.5
q24 4 29.5 -17.5t-14.5 -49.5q-8 -12 -12.5 -22.5t-8.5 -14.5q-8 -16 -25 -40.5t-33 -45t-22 -26.5q-4 -4 -17.5 -15t-25.5 -28q-24 -23 -46 -28t-34 7z" />
    <glyph glyph-name="w" unicode="w" horiz-adv-x="517" 
d="M170 30q-15 0 -30 22.5t-23.5 55.5t-6.5 65q0 32 3.5 51.5t7.5 38.5q3 6 3.5 10t2 13t6.5 30q4 17 8.5 28t7.5 15q12 16 27 19.5t27.5 -3.5t14.5 -21q6 -5 6.5 -22.5t-2.5 -36t-9 -26.5q-2 -5 -4.5 -26t-5 -44t-5.5 -37q-3 -18 2.5 -22.5t20 9t38.5 48.5q20 30 29.5 47
t15 31t12.5 33q5 16 9.5 26t8.5 14q11 16 29.5 13.5t30.5 -10.5q12 -12 14.5 -32.5t-9.5 -44.5q-8 -16 -15.5 -38t-12 -44t-4.5 -38q0 -20 5.5 -23.5t13.5 -3.5q12 0 23 8.5t32 30.5q9 9 22 27t25.5 38t21 35.5t8.5 19.5q0 6 9 17q6 8 9.5 12.5t13.5 9.5q8 4 18 1.5
t17 -10.5q5 -4 7.5 -19.5t2.5 -27.5q-3 -11 -9 -30.5t-12.5 -37t-11.5 -23.5q-4 -4 -14 -14.5t-18 -22.5q-25 -30 -36 -39t-19 -17q-21 -21 -48 -33.5t-51 -14t-38 8.5q-31 16 -31 54q0 8 -2.5 14.5l-2.5 6.5q-4 0 -10.5 -2t-13.5 -14q-9 -17 -30.5 -34.5t-43.5 -29
t-34 -11.5z" />
    <glyph glyph-name="x" unicode="x" horiz-adv-x="343" 
d="M391 -12q-4 0 -10.5 1t-10.5 5q-4 0 -14 3t-18 7q-10 4 -27 16.5t-34 27.5t-28.5 28t-11.5 19q0 5 -5 5l-3 3.5t-3 7.5q0 10 -10 10l-13.5 -14t-33.5 -34q-28 -28 -41.5 -40.5t-21.5 -12.5t-20.5 7.5t-22 20.5t-9.5 31l20.5 23t48.5 47l51 52l-11 38q-7 16 -14.5 33.5
t-11.5 29.5q-12 17 -12.5 21.5t7.5 16.5v0v0q8 8 26.5 16.5t30.5 0.5q6 0 16 -16.5t18.5 -36t8.5 -27.5q0 -16 6.5 -17t30.5 15q12 11 19 18.5l7 7.5q3 3 18 15.5t31 25t21 14.5q8 6 20 0.5t21.5 -16t9.5 -21.5q0 -12 -7 -26.5t-27 -25.5q-18 -13 -27.5 -21t-19.5 -17.5
t-32 -28.5l-26 -21l16 -27q4 -7 11.5 -16t14.5 -13q6 -8 21 -20.5t29 -22.5t16 -10q4 0 9 -3t12 -7q8 -8 7 -25.5t-7.5 -32t-14.5 -14.5z" />
    <glyph glyph-name="y" unicode="y" horiz-adv-x="341" 
d="M86 -208q-36 -7 -69 -2.5t-55.5 17.5t-27.5 29q-6 23 6 34t28.5 13t21.5 -4q8 -5 25.5 -15t43.5 -5q23 5 41 22t32 36q8 12 27 43t39.5 68.5t34.5 69.5q3 8 7 19t10 18q6 12 10.5 22.5t5.5 14.5q1 5 9 20t15 30q5 15 15 44t20 47q12 23 19.5 37.5t16.5 17.5v0v0q9 7 17 7
t19 -6q12 -12 19.5 -23.5t6 -28t-16.5 -44.5q-8 -24 -17.5 -43.5t-14.5 -25.5q-5 -12 -11.5 -26.5t-11.5 -26.5q-18 -40 -31 -65t-23 -46t-21 -49q-23 -37 -44.5 -70.5t-45.5 -62.5q-10 -9 -28.5 -23.5t-38 -27t-33.5 -15.5zM211 18q-15 2 -32.5 20t-29 38t-9.5 28v8v3
q-6 0 -9.5 17.5t-5 44.5t-1 56t2.5 53q4 17 4 37.5t1 32.5q-1 16 6.5 26t11.5 13v0v0q37 16 54 -17t12 -105q-2 -40 -2 -76.5t7 -62.5t24 -37q7 -4 5 -17t-9 -27.5t-15.5 -25t-14.5 -9.5z" />
    <glyph glyph-name="z" unicode="z" horiz-adv-x="315" 
d="M140 11q-38 -5 -57.5 -5t-29.5 4t-19 11q-10 7 -11 28.5t30 53.5q19 23 39 43.5t36 33.5q7 6 14.5 11t25.5 17.5t57 38.5q19 15 27 21t13 9.5t13 9.5q-7 1 -26.5 3.5t-39.5 0.5q-28 0 -32 0.5t-12 2.5h-15q-5 0 -17.5 7t-23 16.5t-11.5 16.5l6 7t10 11q8 5 12.5 8t8.5 -1
l25 1.5t49 2.5q58 -1 85.5 -3.5t41 -8.5t26.5 -18q16 -16 21 -36t-6 -32q-4 -4 -7.5 -8.5t-6.5 -4.5l-14 -9t-34 -22q-19 -13 -37.5 -24t-22.5 -16q-7 -4 -17 -10.5t-14 -10.5q-3 -4 -13.5 -14t-22.5 -18q-9 -8 -19.5 -18t-18 -17.5l-7.5 -7.5l15 2.5t40 5t54 0.5
q47 1 74.5 2.5t42 1t22.5 -4.5q7 -2 10.5 -14t4.5 -24t-1 -15q-4 0 -31 -2.5t-62 -4.5q-46 -4 -89 -10t-86 -11z" />
    <glyph glyph-name="braceleft" unicode="{" horiz-adv-x="330" 
d="M176 -142q-9 14 -9 8l-11 10.5t-16 17.5q-8 11 -9.5 21.5t-0.5 26.5v19v9q5 5 6 12l2 14q2 8 10.5 33t18.5 53.5t18 44.5q11 21 17.5 42.5t6.5 31.5q0 16 -13.5 27t-36.5 15q-30 0 -20 29q4 12 16.5 19t25.5 3q15 0 34.5 15t37 40t26.5 55q12 32 18 62.5t10 79.5
q3 39 12 67t25 51.5t40 46.5q14 18 33 26t30 14q20 8 43.5 8t30.5 -5q5 -2 10.5 -14.5t9 -25.5t0.5 -15q-5 0 -16.5 -2.5t-26.5 -2.5q-19 -4 -32 -13t-33 -26q-16 -21 -21 -30t-7 -28q-7 -18 -10 -29t-5 -26t-5 -44q-3 -30 -5 -47t-6 -32t-14 -38q-13 -37 -29.5 -64
t-39.5 -47q-17 -10 -18.5 -14t7.5 -15q0 -4 5 -13.5t5 -19.5q7 -16 1 -39.5t-30 -76.5q-7 -15 -13 -31t-6 -24q-5 -7 -10 -24t-9 -31q-4 -21 -7 -31.5t-3 -13.5q0 -19 45 -12q17 5 23 0.5t13 -13.5q11 -10 6.5 -25.5t-26.5 -22.5q-15 -8 -35.5 -11t-37.5 -1.5t-25 6.5z" />
    <glyph glyph-name="bar" unicode="|" horiz-adv-x="330" 
d="M150 -148q-19 -5 -34 10t-21 44t2 66q5 12 8 23.5t3 18.5q2 8 10 35.5t19.5 63.5t23 71.5t20 60t10.5 27.5q4 0 7 7t3 14q0 8 3.5 18t7.5 14q0 5 2.5 11.5t2.5 10.5t2.5 8t2.5 8q6 11 18.5 41.5t29 72t33.5 86t32 84.5t24 66t9 30q0 8 11.5 16.5t19.5 8.5q3 3 7.5 4
t8.5 1l4 -4l12 -12q8 -7 17 -20.5t9 -25.5q0 -13 -3 -23t-12 -29t-28 -59q-3 -8 -12 -28t-19.5 -45t-21 -48.5t-17 -39.5t-6.5 -18q0 -4 -3.5 -12t-7.5 -20q-4 -8 -11 -23.5t-14.5 -33t-12.5 -30t-5 -14.5q0 -4 -0.5 -8t-4.5 -8q-4 0 -4.5 -5.5l-0.5 -5.5q0 -10 -16 -53
q-7 -22 -17 -57t-21.5 -74.5t-21.5 -77t-16.5 -65.5t-6.5 -39q0 -24 -8.5 -31.5t-16.5 -11.5z" />
    <glyph glyph-name="braceright" unicode="}" horiz-adv-x="330" 
d="M141 -126q-27 -1 -49 13.5t-22 25.5q0 5 3 8l3 3q5 -4 10 -4t5 4l10 6.5t27 13.5q29 5 41.5 10.5t17 17.5t9.5 37q3 12 5.5 22.5t2.5 14.5q0 3 1.5 32.5t-0.5 68.5q-2 44 -2.5 64.5t2 30t7.5 19.5q8 8 9.5 15.5t-0.5 17.5q-8 20 -6 36.5t10 22.5q17 19 27 30t17.5 22.5
t16.5 29.5q26 41 45 81.5t26 70.5v7v3q4 9 3 18.5t-12 24.5q-8 16 -20 24t-38 15q-16 3 -18 18t7 25q4 8 16.5 13.5t25 7t16.5 -3.5q8 -8 15 -8q3 0 17.5 -11.5t30.5 -26.5t21 -25q4 -3 7.5 -20t4.5 -29q3 -12 3.5 -20.5t-2 -19t-9.5 -30.5q-14 -46 -25.5 -76.5t-16.5 -35.5
q-4 -3 -7.5 -4t-3.5 -5t-9 -20.5t-20.5 -34t-20.5 -26.5q-4 -4 -7.5 -11.5l-3.5 -7.5l-1 -0.5t-6 -3.5q-7 -4 -7 -11.5t7 -23.5q2 -9 6 -16t8 -15q0 -14 -5 -14q-13 -7 -19.5 -20t-7.5 -36t0 -61q1 -21 0 -45t-2.5 -42.5t-4.5 -24.5q-7 -30 -12.5 -50t-10.5 -20l-2 -0.5
t-1 -3.5q0 -14 -17.5 -29t-43.5 -26t-51 -12z" />
    <glyph glyph-name="asciitilde" unicode="~" horiz-adv-x="446" 
d="M361 187q-25 0 -43 8t-39 21q-17 11 -34 24t-31 13t-22.5 -8.5t-17 -17.5t-21.5 -11q-1 -4 -6 -10.5t-9 -6.5q-20 0 -30.5 13.5t-10.5 23.5q0 5 8.5 20t28 33t51.5 31q31 5 51 2t33 -13q23 -17 43.5 -29t38.5 -12q11 0 24.5 5.5t28.5 12.5l26 11q5 2 9.5 3t8.5 2
q11 3 20 3q11 0 21.5 -10.5t10.5 -23.5q0 -6 -3 -13.5t-14 -18.5l-21 -12q-25 -10 -42.5 -18t-28.5 -13q-21 -9 -30 -9z" />
    <glyph glyph-name="uni00A0" unicode="&#xa0;" horiz-adv-x="242" 
 />
    <glyph glyph-name="exclamdown" unicode="&#xa1;" horiz-adv-x="210" 
d="M26 -234l-9 4t-16 12t-8.5 20t-1.5 24q2 20 14.5 44t28.5 52q10 19 19.5 36t9.5 21t4 12t9 20q6 10 12 24t9.5 26t3.5 14q2 4 3 8t5 8q4 0 4.5 5.5l0.5 5.5q0 4 4.5 18.5t14.5 34.5q19 53 27.5 84.5t9.5 53.5q2 24 11.5 32.5t16.5 12.5q29 5 44.5 -24t-2.5 -100
q-6 -12 -10 -23t-4 -19q-3 -13 -10 -30.5t-14 -32.5t-10 -21q-4 0 -8.5 -6.5t-4.5 -14.5t-3 -18t-8 -14q0 -4 -4 -10t-4 -11q0 -4 -2.5 -6.5t-2.5 -7.5q-9 -16 -23.5 -47.5t-29 -66.5t-24.5 -62t-10 -33q-1 -8 -5.5 -15t-12.5 -6q-4 -3 -12 -3.5t-12 -0.5zM236 400
q-33 21 -29 46.5t44 45.5q21 8 35.5 7.5t30.5 -12.5q20 -20 13.5 -40.5t-35.5 -40.5q-20 -12 -29.5 -12.5t-29.5 6.5z" />
    <glyph glyph-name="cent" unicode="&#xa2;" horiz-adv-x="450" 
d="M214 -54q-28 -6 -30.5 26t13.5 87q9 13 12.5 25t4.5 19q3 10 16 36.5t28.5 57t28 54t15.5 27.5q4 0 9 7t6 14q0 8 3.5 18t8.5 13q0 5 4.5 11t4.5 10q1 3 3.5 5.5t2.5 6.5q7 11 20.5 37t31 60.5t35.5 71t33.5 69t25 54t9.5 25.5q6 16 20 13q6 6 16 2l3.5 -3.5l10.5 -10.5
q5 -9 6.5 -18.5t0.5 -20.5q-2 -13 -7 -22.5t-16 -27.5t-32 -56q-5 -9 -17 -28t-25 -40t-22.5 -36t-9.5 -17q0 -5 -16 -31q-4 -8 -12.5 -23t-17 -31t-15 -28t-6.5 -14q0 -7 -9 -16q-4 0 -5 -5.5l-1 -5.5q0 -4 -5 -17t-16 -30q-11 -28 -26 -61.5t-30 -66.5t-25.5 -59
t-12.5 -40q-1 -24 -4 -31.5t-12 -9.5zM328 174q-13 -6 -30 -5t-46 11q-2 0 -14 9t-24 21t-16 20q-16 23 -9.5 68t31.5 108q7 15 21.5 38t29 42.5t20.5 22.5l11 4t28 13q5 2 17.5 5.5t26 6t18.5 1.5q20 -1 41.5 -14.5t35.5 -31t9 -30.5q0 -2 -5 -12.5t-11 -21.5t-10 -16
q-5 -6 -17.5 -5t-22.5 8t-11 19q-2 8 -14.5 15l-12.5 7q-8 0 -21 -16t-27 -36q-18 -18 -26 -38.5t-10.5 -38t-5.5 -26.5q-4 -10 0 -25t10 -17q9 -1 24.5 1.5t33 7t35.5 10t32 11.5q19 12 33 9.5t21 -4.5q11 -4 11 -17t-9 -27.5t-26 -23.5q-16 -8 -28.5 -17.5t-12.5 -14.5
q-4 0 -8.5 -2.5t-7.5 -1.5q-2 0 -16 -3t-28.5 -7t-19.5 -7z" />
    <glyph glyph-name="sterling" unicode="&#xa3;" horiz-adv-x="450" 
d="M439 -61q-30 -15 -70.5 -11.5t-72.5 24.5q-3 3 -12 7.5t-17 4.5q-7 5 -23.5 6t-27.5 4q-22 5 -31.5 5t-24.5 -5q-27 -9 -59 -4t-54.5 18t-22.5 28q0 17 10.5 26t38.5 12q32 3 43.5 5t13.5 5.5l6 10.5q6 20 12.5 48.5t15.5 84.5q3 26 13 69t25.5 91.5t35.5 90.5
q26 53 54 98t56 74.5t55 33.5q27 8 59.5 -2t49.5 -27q1 7 10.5 -3t19 -25.5t10.5 -26.5q3 -10 6.5 -18l3.5 -8q4 -3 3.5 -9t-0.5 -10q-1 -8 -6.5 -20.5t-19.5 -23.5q-14 -7 -31 -6t-28.5 11t-9.5 31q2 17 -3 34.5t-19 21.5q-11 5 -18.5 5t-28.5 -17q-9 -15 -16 -21.5
l-7 -6.5l-8 -14t-19 -34q-11 -22 -25.5 -60t-29 -79t-26 -76t-16.5 -52q-1 -10 -5.5 -35t-9.5 -54t-7 -52l2 -25l36 -12q11 -4 19.5 -12t24.5 -10q14 -9 30.5 -13t29.5 -4q25 0 44 10t21 17q4 0 7.5 4.5t3.5 9.5q5 0 14 3.5t16 3.5q17 0 27 -12t8 -31t-20 -39.5t-56 -38.5z
M345 278h-24h-47.5t-56.5 0.5t-53 1t-35 0.5q-6 0 -15 1t-20 5q-15 0 -23 6.5t-12 13.5q-11 16 2 24t50 11q17 3 51.5 4.5t75 2t77 0t56.5 -0.5q26 0 46 -5.5t30 -16.5q15 -16 7 -32t-31 -12q-7 -1 -33.5 -1.5t-44.5 -1.5z" />
    <glyph glyph-name="currency" unicode="&#xa4;" horiz-adv-x="450" 
d="M133 18q-5 -4 -11 3t-8.5 17t1.5 14q-4 5 0 4.5t6 -0.5q-5 6 -0.5 16.5t12 21t12.5 14.5q-1 4 2.5 6.5t4.5 10.5q11 7 23 7q0 14 5 17t11 7q5 5 6 11t-4 4q-1 2 -6.5 11t-10.5 12q-2 20 -2.5 43.5t4.5 39.5q3 0 4.5 13t8.5 19q-2 4 2.5 9.5t7.5 6.5q1 2 3 3.5t2 6.5l3 6
t10 16q6 16 9 21.5t3 8.5t-3 11q-19 15 -34.5 37t-11.5 33q-1 2 -3 4.5t-4 6.5q-9 14 -4.5 28.5t14 23t13.5 3.5q-1 0 8 -2.5t14 -13.5q4 -6 8.5 -11t8.5 -11q5 1 9.5 -10.5t11.5 -17.5q13 -18 22.5 -21t9.5 -5q2 -2 3.5 1.5t11.5 9.5q9 5 13.5 4.5t10.5 -2t18 -0.5l28 -2
l34 46q32 41 50.5 51t25.5 -4q8 -2 13.5 -17t2.5 -20q-1 2 -4.5 -6t-7.5 -13q-5 -10 -12.5 -23t-10.5 -20q-12 -3 -13 -9t-4 -11l3.5 -5t11.5 -12q6 -2 10 -10t6 -26q6 -4 9.5 -15.5t4.5 -21.5t-1 -12q-1 -1 -1.5 -2.5t-2.5 -8.5q2 -4 -6 -23.5t-21.5 -43.5t-30.5 -43
l-17 -20l13 -14q5 -8 16 -20.5t22.5 -21.5t16.5 -9q4 0 5 -12.5t0.5 -25.5t-3.5 -18q-6 -8 -22.5 -10t-32.5 16q-21 16 -37.5 40.5t-20.5 31.5q2 9 -5 7t-13 -7q-27 -12 -43.5 -17t-33.5 -2q-11 5 -14.5 4t-13.5 -11q-1 -4 -8 -12t-15.5 -16.5l-14.5 -14.5q-7 -17 -15 -25
t-6 -14q-2 -2 -15 -7.5t-26 -9t-15 1.5zM315 202q26 14 52 35.5t39 51.5q8 17 10 38t-6 31q-13 16 -40 19q-17 2 -25 -0.5t-22 -8.5q-20 -9 -29 -21.5t-23 -38.5q-21 -29 -26.5 -56t9.5 -35q6 -9 23 -12.5t38 -2.5z" />
    <glyph glyph-name="yen" unicode="&#xa5;" horiz-adv-x="450" 
d="M229 680q21 18 34.5 7t20 -37t5.5 -55q3 -107 13.5 -162t26.5 -68q12 -3 21 2.5t23.5 22t40.5 43.5q28 29 56 61.5t53.5 62.5t46 52t32.5 29q4 6 14 10.5t19.5 7l9.5 2.5q8 -2 9 -12.5t8 -20.5q2 -4 9 -12t6 -13q0 -3 -9 -13.5t-19 -20.5l-15 -15q-13 -11 -40.5 -38.5
t-56.5 -59t-49 -56.5q-44 -51 -78.5 -88t-42.5 -44q-1 -2 -13 -2.5t-17 -8.5l-42 5l-35 44q-20 30 -32 56t-17 64q-7 24 -9 45t-1.5 48.5t1.5 68.5q1 38 12 62.5t15 32.5zM239 -76q-4 1 -16.5 9t-22.5 15q-7 8 -8.5 17t2.5 24t11 42q1 23 9.5 56t20.5 55q0 11 5 30
t12.5 39.5t13.5 35.5l18 52l40 34l52 -36q-4 -6 -7 -14t-8 -27t-15 -59q-8 -27 -17.5 -58t-17.5 -58t-14 -44q-12 -45 -21.5 -71t-18 -35.5t-18.5 -6.5zM144 107q-6 0 -15 0.5t-20 4.5q-15 0 -24 6.5t-13 13.5q-11 15 2 23.5t50 12.5q17 4 54.5 6t82 3t83.5 1.5t59 0.5
q26 0 46.5 -4.5t31.5 -15.5q15 -15 7 -32t-31 -13q-4 0 -17 -0.5t-29.5 -0.5h-32t-24.5 -1q-6 0 -33.5 -1t-63 -2t-67.5 -1.5t-46 -0.5zM524 299q15 -15 7.5 -31.5t-30.5 -12.5q-5 0 -19 -1t-30.5 -2t-28.5 -2q-5 0 -26.5 -0.5t-52 -1t-62.5 -1t-58 -0.5h-37q-6 0 -15 0.5
t-20 4.5q-15 0 -23.5 6.5t-12.5 13.5q-11 15 1.5 23.5t49.5 12.5q17 4 54.5 6t82 3.5t84 2t59.5 0.5q26 0 46 -5t31 -16z" />
    <glyph glyph-name="brokenbar" unicode="&#xa6;" horiz-adv-x="330" 
d="M312 355q-3 -10 -17.5 -9.5t-31.5 7t-27 16t-4 16.5q11 26 29 69t37.5 92.5t37 94.5t28.5 75.5t11 34.5q0 16 16 16q3 3 7.5 4t8.5 1l4 -4l12 -12q8 -7 21 -20.5t13 -25.5q0 -13 -3 -23t-12 -29t-28 -59q-3 -8 -12 -28t-19.5 -45t-21 -48.5t-17 -39.5t-6.5 -18
q0 -4 -3.5 -12t-7.5 -20q-3 -5 -6.5 -13.5t-8.5 -19.5zM147 -148q-28 -7 -43.5 28.5t-3.5 91.5q5 12 8 23.5t3 18.5q2 8 10 35.5t19.5 63.5t23 71t19.5 58q1 8 13.5 7t28 -7t25.5 -14.5t6 -14.5l-2 -5q-7 -22 -17 -56t-21.5 -72.5t-21.5 -74.5t-16.5 -63.5t-6.5 -38.5
q0 -24 -8 -35.5t-16 -15.5z" />
    <glyph glyph-name="section" unicode="&#xa7;" horiz-adv-x="385" 
d="M351 181q-38 -10 -73 1t-50 34q-7 14 -7 27t7 17q8 1 14.5 -0.5t17.5 -5.5q15 -13 33 -13.5t32 8.5t16 22q-6 2 -10 11.5t-8 20.5q-68 77 -68 129q-4 12 1 30t14 36t18 30q26 29 61.5 51.5t62.5 35.5q11 0 33 -1.5t29 -3.5t15.5 -14.5t15 -27.5t8.5 -26q0 -7 -5.5 -22
t-9.5 -32q-4 -11 -9 -20.5t-5 -13.5q-1 -11 -12.5 -12t-23.5 5.5t-17 17.5q-4 15 -5.5 24.5t2.5 20.5q11 13 11 17t-11 2q-7 0 -19.5 -7t-25.5 -19t-25 -29q-12 -14 -15.5 -22.5t-3 -15.5t0.5 -18q0 -9 5 -22t11.5 -22.5t11.5 -10.5l8 -13.5t24 -28.5q35 -58 22.5 -92
t-71.5 -48zM247 1q-38 -9 -72.5 0.5t-49.5 35.5q-7 13 -7 26t7 18q8 1 18 -3.5t21 -8.5q15 -10 34 -9t34.5 9.5t17.5 20.5q-1 4 -7.5 14t-10.5 21q-33 32 -49 68.5t-16 60.5q-6 18 6.5 42t27.5 38q17 26 38.5 40.5t40.5 30.5l40 -59q-17 -9 -34 -26.5t-31 -32.5
q-14 -18 -12.5 -28t1.5 -27q0 -14 10.5 -31t17.5 -24l9 -13t23 -24q35 -61 18.5 -94.5t-75.5 -44.5z" />
    <glyph glyph-name="dieresis" unicode="&#xa8;" horiz-adv-x="353" 
d="M235 429q-10 8 -15.5 24.5t-3.5 22.5q2 7 9.5 25.5t22.5 31.5q4 3 8.5 8.5t9.5 6.5q14 11 28.5 3.5t25.5 -27.5q11 -23 6.5 -38t-26.5 -41q-19 -25 -34.5 -27.5t-30.5 11.5zM390 429q-10 8 -15.5 24.5t-3.5 22.5q2 7 9.5 25.5t22.5 31.5q4 3 8.5 8.5t9.5 6.5
q14 11 28.5 3.5t25.5 -27.5q11 -23 6.5 -38t-26.5 -41q-19 -25 -34.5 -27.5t-30.5 11.5z" />
    <glyph glyph-name="copyright" unicode="&#xa9;" horiz-adv-x="496" 
d="M353 73q-70 -1 -117 26.5t-67 82.5q-12 21 -14.5 38t-7.5 34q-1 2 -1 6t-2 5q-1 4 -1 15.5t1 23t1 13.5q5 4 3.5 7.5l-1.5 3.5q-4 11 2.5 36t18.5 53.5t23.5 49.5t15.5 24q2 0 1.5 3t1.5 4q4 6 22.5 18.5t42 26t39.5 21.5q69 34 127 12.5t106 -89.5q4 -15 13.5 -28
t9.5 -20q10 -15 16 -34t8.5 -34t-0.5 -18q2 -3 1 -7.5t0 -6.5q3 -4 3 -19t-2 -33t-5 -31.5t-5 -13.5l-2.5 -1t0.5 -3q2 -1 -3.5 -8.5t-14 -14.5t-14.5 -8l-0.5 -1.5t3.5 -2.5q3 -1 -7.5 -13.5t-28.5 -29.5t-38.5 -32t-38.5 -21q-3 -3 -4.5 -5t-3.5 -4q-7 -10 -34 -18t-47 -7
zM288 153q16 -13 50 -7.5t75 28.5q16 7 36.5 22t36 31t14.5 25q-1 5 0.5 11t5.5 7q9 8 14.5 31.5t5.5 49t-7 38.5q-1 2 -5.5 9t-3.5 11q0 5 -2 9.5t-9.5 16.5t-26.5 38q-32 25 -58.5 30t-44 1.5t-23.5 -6.5q-44 -13 -69 -37t-37 -51t-18 -50q-9 -29 -12.5 -45t-1.5 -27.5
t11 -25.5q-1 -13 3.5 -25.5t2.5 -15.5q1 -5 11.5 -20.5t25 -30t26.5 -17.5zM354 203q-8 -4 -21.5 1t-36.5 12q-2 0 -8.5 6t-12.5 13q-11 17 -14.5 51t15.5 72q3 11 13 26.5t22 30.5t21.5 26t10.5 13l5.5 2.5t22.5 8.5q7 2 14 3.5l7 1.5q13 -1 28 -11t28.5 -24t21 -27
t5.5 -20q-1 -2 -6.5 -8t-8.5 -12t-13.5 -5.5t-20 6t-10.5 13.5q-14 20 -25.5 19t-19.5 -12t-12 -23q-13 -15 -16.5 -33t-5.5 -27q-2 -10 -0.5 -21t4.5 -13q12 -4 20.5 -3.5t22 9t38.5 27.5q8 6 15.5 -2.5t14 -19t11.5 -11.5q-1 -18 -18 -34t-30 -21q-4 0 -8.5 -1.5
t-7.5 -1.5q-4 0 -20.5 -4t-24.5 -7z" />
    <glyph glyph-name="ordfeminine" unicode="&#xaa;" horiz-adv-x="350" 
d="M222 313q-18 0 -35.5 13t-22.5 21l-2 2l-4 9q-1 1 -1 2t-1 2q-1 2 -2 3.5t-3 2.5h1q-4 6 2.5 27.5t20 52t30.5 61.5q5 5 10 13t9 14l5 7v2q2 2 5 4t5 3l6 14q3 5 18.5 21t34.5 33.5t31 24.5q18 13 38.5 11.5t33.5 -12.5l54 -46l33 -29l-15 -44q-3 -10 -5 -18.5t-3 -16.5
q-1 -22 4 -40.5t14 -32.5q10 -19 32 -22q8 -1 14 -6t6 -14q0 -21 -7.5 -30t-15.5 -11q-30 -4 -56.5 6t-48.5 50q-4 5 -9.5 20t-6.5 19q-3 -4 -9 -11t-11 -12q-47 -48 -84 -70.5t-65 -22.5zM238 397q5 0 18.5 7t35.5 25q30 26 49.5 43t38.5 43l20 32q-10 21 -17 26.5t-14 5.5
q-12 0 -28 -14.5t-35.5 -42.5t-44.5 -69q-11 -19 -17 -37.5z" />
    <glyph glyph-name="guillemotleft" unicode="&#xab;" horiz-adv-x="646" 
d="M406 -6q-8 -1 -27 -0.5t-51 14.5q-36 19 -53.5 28.5t-32.5 27.5q-34 20 -52.5 41.5t-35.5 51.5l-32 42l-7 38q8 2 15.5 15.5t8.5 14.5q9 11 23 23t36.5 30.5t57.5 48.5q37 27 50.5 41t23.5 24q6 7 14 14.5t12 7.5q6 2 14 -1.5t12 -6.5q11 -7 21 -10t11 -11l-2.5 -15.5
t-9.5 -21.5q-13 -11 -28 -22.5t-37.5 -30t-61.5 -53.5q-24 -21 -35.5 -34t-14.5 -22.5t-1 -22.5q6 -13 18.5 -30t38.5 -37.5t72 -46.5q25 -12 42.5 -33.5t22 -40.5t-11.5 -23zM616 -6q-8 -1 -27 -0.5t-51 14.5q-36 19 -53.5 28.5t-32.5 27.5q-34 20 -52.5 41.5t-35.5 51.5
l-31 42l-7 38q8 2 15 15.5t8 14.5q9 11 23 23t37 30.5t58 48.5q37 27 50.5 41t23.5 24q6 7 14 14.5t12 7.5q6 2 14 -1.5t12 -6.5q11 -7 20.5 -10t10.5 -11l-2.5 -15.5t-9.5 -21.5q-13 -11 -28 -22.5t-37.5 -30t-61.5 -53.5q-23 -21 -34.5 -34t-14.5 -22.5t-1 -22.5
q6 -13 18 -30t38 -37.5t72 -46.5q25 -12 42.5 -33.5t22 -40.5t-11.5 -23z" />
    <glyph glyph-name="logicalnot" unicode="&#xac;" horiz-adv-x="465" 
d="M478 129q-10 -10 -23.5 -11.5t-22.5 5.5t-7 22l-5 56l-3 39l-29 -2q-6 0 -30.5 -1t-57 -2t-62 -1.5t-43.5 -0.5q-6 0 -15 0.5t-20 4.5q-15 0 -20 11t-9 18q-11 15 -2 21.5t46 10.5q17 4 50.5 6.5t72.5 4t74 2.5t55 1q26 0 38.5 -3t23.5 -14q20 -21 8 -33q2 -16 2.5 -33
t0.5 -38q0 -25 -5.5 -38.5t-16.5 -24.5z" />
    <glyph glyph-name="uni00AD" unicode="&#xad;" horiz-adv-x="326" 
d="M178 172q-6 0 -15 0.5t-20 4.5q-15 0 -24 6.5t-13 13.5q-11 15 2 23.5t50 12.5q34 8 59 11t65 3q26 0 42.5 -5t27.5 -16q15 -15 7.5 -31.5t-30.5 -12.5q-7 -1 -26 -2t-37 -3q-11 -1 -35 -3t-53 -2z" />
    <glyph glyph-name="registered" unicode="&#xae;" horiz-adv-x="496" 
d="M353 73q-70 -1 -117 26.5t-67 82.5q-12 21 -14.5 38t-7.5 34q-1 2 -1 6t-2 5q-1 4 -1 15.5t1 23t1 13.5q5 4 3.5 7.5l-1.5 3.5q-4 11 2.5 36t18.5 53.5t23.5 49.5t15.5 24q2 0 1.5 3t1.5 4q4 6 22.5 18.5t42 26t39.5 21.5q69 34 127 12.5t106 -89.5q4 -15 13.5 -28
t9.5 -20q10 -15 16 -34t8.5 -34t-0.5 -18q2 -3 1 -7.5t0 -6.5q3 -4 3 -19t-2 -33t-5 -31.5t-5 -13.5l-2.5 -1t0.5 -3q2 -1 -3.5 -8.5t-14 -14.5t-14.5 -8l-0.5 -1.5t3.5 -2.5q3 -1 -7.5 -13.5t-28.5 -29.5t-38.5 -32t-38.5 -21q-3 -3 -4.5 -5t-3.5 -4q-7 -10 -34 -18t-47 -7
zM317 211q-6 -17 -17.5 -18.5t-22.5 7t-18 21t-5 21.5q2 11 7 25.5t11 30.5q0 8 1 15t3 7q2 9 7.5 30t27.5 51q0 12 1.5 17t-4.5 11q-3 5 -2.5 9.5t10.5 11.5q0 6 17.5 13t39.5 5q12 -1 18 -2t10 -5q14 -1 31 -11t17 -13q8 -7 12.5 -24t5.5 -25q0 -12 -1.5 -19t-12.5 -21
q-7 -13 -16 -23.5t-26 -22.5l-12 -13q1 -4 8.5 -10t16 -11.5t13.5 -7.5q8 2 12.5 0t1.5 -20q-7 -14 -20 -25t-27 -1q-12 2 -17 6t-12 11q-7 6 -11 12.5t-19 19.5l-1.5 0.5t-12.5 1.5l-8 -21q0 -4 -1.5 -13t-4.5 -20zM288 153q16 -13 50 -7.5t75 28.5q16 7 36.5 22t36 31
t14.5 25q-1 5 0.5 11t5.5 7q9 8 14.5 31.5t5.5 49t-7 38.5q-1 2 -5.5 9t-3.5 11q0 5 -2 9.5t-9.5 16.5t-26.5 38q-32 25 -58.5 30t-44 1.5t-23.5 -6.5q-44 -13 -69 -37t-37 -51t-18 -50q-9 -29 -12.5 -45t-1.5 -27.5t11 -25.5q-1 -13 3.5 -25.5t2.5 -15.5q1 -5 11.5 -20.5
t25 -30t26.5 -17.5zM350 315q17 5 20.5 16t7.5 20q3 2 7 6t13 16q2 4 3 2.5t1 11.5q4 8 -3 13q-4 4 -5 6t-12 6q-1 -1 -3.5 -3t-9.5 -9q-1 -4 0 -8.5t-6 -7.5q-2 -6 -6.5 -22.5t-7.5 -31t1 -15.5z" />
    <glyph glyph-name="macron" unicode="&#xaf;" horiz-adv-x="353" 
d="M298 453q-6 0 -15 0.5t-20 4.5q-15 0 -23.5 6t-12.5 13q-10 15 2 23.5t49 12.5q34 8 59 11t65 3q25 0 41.5 -5t27.5 -15q15 -15 7.5 -31.5t-30.5 -13.5q-7 -1 -29.5 -2t-40.5 -2q-10 -1 -31 -3t-49 -2z" />
    <glyph glyph-name="degree" unicode="&#xb0;" horiz-adv-x="283" 
d="M336 406q-38 0 -63 11t-40 29t-23 40q-8 15 -12 38t-6 33q0 10 5.5 30t14.5 41t17 33q13 24 35 38.5t36 26.5q15 7 24.5 10.5t18.5 3.5q36 0 70.5 -17t57 -48t22.5 -73q0 -34 -7.5 -56t-20.5 -39t-31 -37q-5 -6 -21 -21.5t-36.5 -29t-40.5 -13.5zM325 490q13 0 32.5 11
t35.5 34t15 57q-1 42 -17 56.5t-33 15.5q-34 2 -55.5 -28.5t-21.5 -83.5q0 -14 4.5 -27t14 -22t25.5 -13z" />
    <glyph glyph-name="plusminus" unicode="&#xb1;" horiz-adv-x="446" 
d="M170 242q-6 0 -15 0.5t-20 4.5q-15 0 -23.5 6.5t-12.5 13.5q-11 15 1.5 23.5t49.5 12.5q17 4 50.5 6.5t72.5 4t74 2.5t55 1q26 0 46.5 -5t31.5 -16q15 -15 7 -31.5t-31 -12.5q-5 0 -19 -1t-30.5 -2t-28.5 -2q-6 0 -33 -1t-62.5 -2t-67 -1.5t-45.5 -0.5zM170 7
q-6 0 -15 0.5t-20 4.5q-15 0 -23.5 6.5t-12.5 13.5q-11 15 1.5 23.5t49.5 12.5q17 4 50.5 6.5t72.5 4t74 2.5t55 1q26 0 46.5 -4.5t31.5 -15.5q15 -15 7 -32t-31 -13q-5 0 -19 -1t-30.5 -2t-28.5 -2q-6 0 -33 -1t-62.5 -2t-67 -1.5t-45.5 -0.5zM304 127q-15 -11 -23.5 1.5
t-12.5 46.5q-4 16 -6.5 39.5t-4 50t-2.5 52t-1 44.5q0 24 5 44t15 30q15 14 32 6.5t13 -28.5q1 -7 2.5 -32.5l2.5 -42.5q0 -5 1 -23t2 -41t1.5 -44.5t0.5 -35.5q0 -5 -0.5 -13.5t-4.5 -19.5q0 -14 -6.5 -22.5t-13.5 -11.5z" />
    <glyph glyph-name="uni00B2" unicode="&#xb2;" horiz-adv-x="320" 
d="M210 336q-5 2 -16.5 15t-15.5 20q0 4 4.5 15.5t10.5 22t8 10.5t6.5 6.5t9.5 14t5 9.5l10 8l4 2h-2l11 11l10 10h-1l13 19q5 5 5.5 8.5t8.5 13.5q17 17 30 32t14 19l4 4.5t8 6.5l19 17q3 7 10 13t13 13l11 26q2 7 3.5 7.5t-11.5 4.5h1q-13 3 -27 3q-12 0 -21 -2t-26 -13
l-8 -2t-9 -4l-11 -5.5t-14 -0.5v0l-6 7l-18 24l-12 28l37 16q28 17 59 28.5t50 3.5q8 -1 15 -2.5l7 -1.5q8 -1 21 -9t25 -19.5t16 -21.5v1q5 -7 10 -23.5t5 -24.5q0 -13 -8 -29.5t-21 -34.5q-3 -5 -15.5 -19.5t-28 -32t-28.5 -31.5t-18 -18q-5 -3 -14.5 -11.5t-19.5 -19
t-16.5 -17.5t-5.5 -7l3 -2l6 2q15 6 32 9.5t31.5 5t20.5 -0.5q8 2 26 0.5t31 -6.5q1 0 2.5 -1t2.5 -1q1 -1 4 -1q8 -3 11 -8q3 -6 6 -9q8 -7 15 -16.5t7 -18t-14 -11.5t-48 1q-6 0 -15 -0.5t-14 -2.5q-3 -1 -8.5 -1.5t-13.5 -0.5q-1 0 -3 -0.5t-4 -0.5h-6q-12 2 -26 -1
t-30 -8q-9 -3 -32.5 -8.5t-46 -8.5t-28.5 -1z" />
    <glyph glyph-name="uni00B3" unicode="&#xb3;" horiz-adv-x="320" 
d="M294 298q-50 0 -71 17t-20 34q1 15 12 26.5t32 9.5q25 -6 48 -6.5t42 6t32 21.5q17 19 17 40v15t-11 12q-12 11 -38 21t-43 11q-7 -2 -13 1.5t-17 10.5q-4 5 -7.5 15.5t-5.5 13.5l-4 6q-1 8 17.5 23t62.5 42l5 2h-1l6 4q28 18 42 26t20.5 13t13.5 11h-1q10 14 10.5 13
t-11.5 3q-17 2 -23 2.5t-10 -4.5q-4 2 -16.5 0t-23.5 -5t-12 -5t-12.5 -4.5t-23.5 -3.5t-14 -1q-4 1 -9.5 12t-9.5 23.5t-4 17.5q3 4 13.5 12.5t23.5 17t21 12.5q11 3 31.5 4.5t40.5 2.5t29 0h1q35 -4 62.5 -25t31.5 -48q3 -16 -3.5 -31.5t-28.5 -38.5l-4 -4l-10 -7
q-8 -6 -13.5 -8t-17.5 -10l-12 -8l-7 -5l-8 -7l-7 -5l-32 -14l50 -18q20 -10 32 -29t20 -31q5 -12 7.5 -22.5t2.5 -21.5q0 -28 -19.5 -56t-49.5 -49q-20 -13 -53.5 -22.5t-59.5 -11.5z" />
    <glyph glyph-name="acute" unicode="&#xb4;" horiz-adv-x="353" 
d="M343 435q-9 5 -12 21t-1 32q1 5 13.5 20.5t31 34.5t37 34.5t30.5 18.5q14 1 26 -13.5t13 -35.5q0 -11 -10 -22t-25 -22.5t-30.5 -24t-25.5 -25.5q-10 -16 -22 -21t-25 3z" />
    <glyph glyph-name="uni03BC.1" unicode="&#xb5;" horiz-adv-x="370" 
d="M65 -192q-12 0 -20.5 12.5t-13 27t-4.5 19.5q0 12 10 43.5t23.5 74t27 89t21.5 88.5q5 23 13.5 51t26.5 68q23 44 34 63.5t15 23.5q5 6 12 7.5t15 1.5q20 0 28 -9.5t8 -23.5q0 -18 -9 -45.5t-21.5 -57t-22 -56t-10.5 -43.5q0 -10 2.5 -16.5t8.5 -10t16 -3.5t23 8.5
t30.5 33t38.5 72.5q14 32 17.5 47t3.5 28q0 7 7.5 22t17.5 27q12 16 24 16q2 0 6 -1.5t14 -2.5q6 1 11 -3.5t11 -25.5q1 -1 1.5 -2.5t1.5 -3.5q1 -4 1 -7.5v-8.5q0 -16 -5 -40t-18 -53q-19 -43 -26 -63t-7 -40q0 -36 28 -58q9 -7 11 -14.5t2 -18.5q-1 -3 -8.5 -13t-19 -18.5
t-27.5 -8.5t-29 19.5t-21 49.5q-2 8 -1.5 21.5t-0.5 20.5q-1 -2 -6 -8.5t-13 -14.5q-18 -18 -44.5 -37t-49.5 -19q-10 0 -19 4.5t-18 14.5q-2 -7 -4.5 -14.5t-4.5 -14.5q-19 -62 -31.5 -98.5t-19.5 -54.5t-10 -24.5t-5 -8.5q-7 -7 -12 -9.5t-9 -2.5z" />
    <glyph glyph-name="paragraph" unicode="&#xb6;" horiz-adv-x="424" 
d="M181 -55q-12 11 -26 26t-5 27q0 3 3.5 12.5t7.5 19.5q6 22 15.5 47.5t19 47.5t16.5 33q4 10 6.5 22.5t6.5 19.5q5 11 11.5 23.5t11.5 19.5q4 19 9.5 33.5l5.5 14.5q-11 2 -20.5 1t-38.5 4q-27 10 -43.5 37t-9.5 76q10 32 22 65.5t42 55.5t52.5 36t45.5 25t54 23
q8 0 35.5 1.5t53.5 5.5q44 -3 79.5 -9.5t55.5 -16.5t17 -26q-1 -7 -1.5 -12t-6.5 -13q-3 -5 -9.5 -20t-14 -31.5t-14.5 -28.5q-4 -7 -14 -31.5t-21 -53.5q-13 -25 -20 -44.5l-7 -19.5l-4 -7.5t-9 -15.5q-1 -9 -10 -32t-21 -46l-21 -52.5t-13 -41.5q-7 -13 -15 -35.5
t-19 -40.5l-12 -42h-46q-5 3 -12 5t-12 9q-2 8 -2 13t4 26q5 10 9.5 19.5t8.5 13.5q5 3 6 11t2 10q0 8 6 18.5t9 14.5q4 12 6 19l2 7q0 6 9 22q4 8 9.5 20t8.5 24q3 8 6.5 19t7.5 11q0 3 2 11t3 16q5 9 9.5 20.5t7.5 18.5q5 7 8 11.5l3 4.5q-3 0 1.5 11.5t12.5 27.5
q4 5 5 15.5t5 23.5q7 14 17.5 36.5t20.5 39.5q5 17 8.5 30.5t3.5 16.5q-2 0 -12 2t-20.5 1t-14.5 -12q-1 -4 -6 -11.5t-18 -29.5q-8 -22 -20 -46.5t-16 -38.5q-7 -15 -14.5 -31t-13.5 -32q-4 -7 -11 -23.5t-12 -33.5q-4 -9 -12 -28.5t-18 -43.5t-19.5 -46t-18.5 -36
q-3 -10 -5 -20.5t-4 -15.5q0 -5 -9 -29t-20.5 -55.5t-21.5 -57.5q-7 -10 -14 -15t-24 0z" />
    <glyph glyph-name="periodcentered" unicode="&#xb7;" horiz-adv-x="187" 
d="M146 233q-5 5 -9.5 18.5t-6.5 25.5t1 12q5 1 14 10.5t15.5 21.5t5.5 20q0 10 10 12q12 8 31 2.5t29 -21.5q9 -19 5 -39t-22 -42q-15 -20 -37 -25.5t-36 5.5z" />
    <glyph glyph-name="cedilla" unicode="&#xb8;" horiz-adv-x="353" 
d="M160 -193q-15 -3 -40 1.5t-46.5 10.5t-27.5 8q-12 4 -18 15.5t-5 23.5t11 18.5t32 0.5q16 -4 34.5 -10.5t33.5 -6.5t22 14q7 11 -1 22.5t-19 23.5q-7 9 -13.5 15.5t-17.5 16.5q-8 11 -9.5 25.5t15.5 32.5t65 42l56 -30q-25 -12 -40.5 -23t-15.5 -24q14 -20 31 -38.5
t22 -38.5q6 -24 -3.5 -45t-27.5 -35.5t-38 -18.5z" />
    <glyph glyph-name="uni00B9" unicode="&#xb9;" horiz-adv-x="320" 
d="M326 303q-2 3 -9 7.5t-10.5 17t2.5 39.5l2 10t2 9q5 28 9.5 43l4.5 15q4 2 11 25t16 55q3 11 6 21.5t6 20.5q3 13 11.5 32t11.5 32q3 8 5.5 16.5t5.5 16.5q-9 -6 -19 -17t-27 -25q-8 -5 -17 -10.5t-18 -13.5q-7 -6 -14.5 -13.5t-15.5 -12.5q-21 -19 -31.5 -23t-20.5 3
q-12 11 -21 28.5t-4 27.5q2 1 10.5 7.5t19.5 15t18 14.5q8 6 14 11t9 6q2 0 7.5 5t12.5 11q3 2 14 12t29 23q4 4 8.5 7.5t8.5 7.5l8 6l8 6q28 20 54.5 32t31.5 11q1 0 10 -7.5t18 -16.5t11 -15q1 -4 -0.5 -12t-4.5 -15q-3 -9 -9.5 -29t-14 -45t-15 -49t-12.5 -41
q-2 -7 -3.5 -13l-3 -12t-3 -11t-3.5 -9q-1 -1 -1.5 -3.5t-0.5 -3.5q-4 -10 -7 -20.5t-7 -30.5q-8 -20 -15 -46t-10 -43q-1 -5 -3 -10l-4 -10q-3 -10 -6 -18t-7 -12q-4 -16 -16 -17t-32 10z" />
    <glyph glyph-name="ordmasculine" unicode="&#xba;" horiz-adv-x="283" 
d="M257 298q-13 0 -31 13.5t-30 25.5q-13 16 -16 26t0 28q2 5 1 11.5l-1 6.5l2 -1q-4 4 -3.5 5.5t2.5 3.5l-2 -1q0 1 1 1.5t1 1.5l6 2l-1 3t-2 5q1 7 5 23t10.5 34.5t13.5 31.5q5 9 16 26t23.5 34t22.5 26q20 19 45.5 33t44.5 19h-1q20 6 28 5.5t21 -14.5q17 -10 32.5 -34
t17.5 -47q2 -26 -4 -60.5t-38 -87.5q-20 -31 -43 -51.5t-46 -37.5h1q-16 -13 -35.5 -21t-40.5 -10zM274 379q10 0 22.5 6.5t31.5 29.5q17 21 27.5 42t20.5 52q2 6 3.5 15t1.5 17q0 10 -1.5 18.5t-3.5 9.5h1q-7 5 -18.5 3t-24.5 -15q-21 -20 -36 -48.5t-32 -69.5
q-2 -10 -4.5 -19.5t-2.5 -15.5q0 -25 15 -25z" />
    <glyph glyph-name="guillemotright" unicode="&#xbb;" horiz-adv-x="708" 
d="M457 -15q-6 -2 -16.5 6t-15.5 11q-10 8 -20.5 8.5t-12.5 8.5l2.5 8t9.5 14q14 12 26.5 23t34 30.5t59.5 53.5q35 32 55.5 53.5t17.5 40.5q-9 20 -37.5 51t-98.5 70q-24 12 -44 31t-26 35.5t9 20.5q8 1 36.5 1.5t59.5 -13.5q36 -19 53.5 -28.5t32.5 -27.5q34 -19 53 -41
t35 -52l24 -42l7 -30q-5 -1 -10.5 -9.5t-9 -17t-4.5 -9.5q-9 -11 -23.5 -25t-38 -34t-58.5 -50q-37 -27 -50.5 -41t-23.5 -24q-6 -7 -13.5 -14.5t-12.5 -7.5zM236 -15q-6 -2 -16.5 6t-15.5 11q-10 8 -20.5 8.5t-12.5 8.5l2.5 8t9.5 14q14 12 26.5 23t33.5 30.5t59 53.5
q35 32 55.5 53.5t17.5 40.5q-9 20 -37.5 51t-98.5 70q-24 12 -43.5 31t-25.5 35.5t9 20.5q8 1 36 1.5t59 -13.5q36 -19 53.5 -28.5t32.5 -27.5q34 -19 53 -41t35 -52l24 -42l7 -30q-5 -1 -10.5 -9.5t-9 -17t-4.5 -9.5q-9 -11 -23.5 -25t-37.5 -34t-58 -50q-37 -27 -50.5 -41
t-23.5 -24q-6 -7 -13.5 -14.5t-12.5 -7.5z" />
    <glyph glyph-name="onequarter" unicode="&#xbc;" horiz-adv-x="800" 
d="M268 -21q-19 2 -30.5 15t-7.5 37.5t30 60.5q8 8 14.5 16t8.5 14q5 6 21.5 26t39 45.5t44.5 50.5t37.5 42.5t17.5 20.5q4 -1 9 3.5t7 11.5q3 8 9.5 14t11.5 7q2 5 6.5 9t5.5 8q1 3 4.5 5.5t4.5 6.5q9 7 33 30.5t56 56t66.5 68t64 66.5t49 52t20.5 24q4 13 20 8q7 4 16 0
l8.5 -10t13.5 -19q6 -9 6.5 -18t-4.5 -17q-4 -11 -10.5 -18.5t-21 -20.5t-44.5 -40q-6 -6 -22 -21.5t-37 -35t-41 -38.5t-33 -32t-13 -15q-3 -2 -8.5 -7.5t-12.5 -14.5q-8 -7 -25.5 -23.5t-31.5 -30.5t-15 -16l-4 -6t-8 -5q-2 1 -4.5 -2.5l-2.5 -3.5q0 -4 -9 -15t-24 -25
q-16 -19 -43 -52t-55.5 -68t-49.5 -63.5t-26 -39.5q-7 -19 -20 -29t-21 -12zM248 203q-2 3 -9 7.5t-10.5 17t2.5 39.5l2 10t2 9q5 28 9.5 43l4.5 15q4 2 11 25t16 55q3 11 6 21.5t6 20.5q3 13 11.5 32t11.5 32q3 8 5.5 16.5t5.5 16.5q-9 -6 -19 -17t-27 -25q-8 -5 -17 -10.5
t-18 -13.5q-7 -6 -14.5 -13.5t-15.5 -12.5q-21 -19 -31.5 -23t-20.5 3q-12 11 -21 28.5t-4 27.5q2 1 10.5 7.5t19.5 15t18 14.5q8 6 14 11t9 6q2 0 7.5 5t12.5 11q3 2 14 12t29 23q7 7 16 13.5t17 13.5q28 20 54.5 32t31.5 11q1 0 10 -7.5t18 -16.5t11 -15q1 -4 -0.5 -12
t-4.5 -15q-3 -9 -9.5 -29t-14 -45t-15 -49t-12.5 -41q-2 -7 -3.5 -13l-3 -12t-3 -11t-3.5 -9q-1 -1 -1.5 -3.5t-0.5 -3.5q-4 -10 -7 -20.5t-7 -30.5q-8 -20 -15 -46t-10 -43q-1 -5 -3 -10l-4 -10q-3 -10 -6 -18t-7 -12q-4 -16 -16 -17t-32 10zM714 -51q-9 7 -12 24t2 43
q3 24 10 53q2 9 3 12.5t2 10.5q7 16 10 26.5l3 10.5q-3 -1 -8 -2.5t-14 -5.5q-13 -3 -17.5 -4t-15.5 -1q-19 0 -36.5 8t-24.5 21q-4 5 -8.5 17.5t-6 25t2.5 17.5v-1l6 16l7 19q2 6 4 11t2 4l0.5 2t1.5 3q2 4 2 8q3 8 15 27.5t27 43t28 43t19 25.5l1 1q5 3 15.5 7.5t20.5 6.5
t13 -3q11 -10 13.5 -26.5t0.5 -19.5q-1 -4 -6.5 -13t-10.5 -17l-7 -6l-3 -3h1q-16 -25 -33.5 -55t-31.5 -59q-5 -15 -7.5 -21t-1.5 -8h-1q6 -1 12.5 0t25.5 8q14 3 19.5 3t12.5 4q4 0 8 1.5t4 3.5h4q0 3 0.5 8.5t0.5 6.5l7 19l12 22q4 8 8.5 18.5t11.5 23.5l23 62
q8 20 16 21.5t13 1.5t12 -3t8 -16v6q5 -7 16 -19t7 -22q-2 -7 -4.5 -13.5t-4.5 -11.5l-3 -9l-6 -13q-4 -5 -4.5 -8t-2.5 -7q-11 -27 -27 -65.5t-29.5 -74t-19.5 -55.5q-15 -49 -19 -67t2 -29q1 -18 -14 -31.5t-32 -16t-22 11.5v-1z" />
    <glyph glyph-name="onehalf" unicode="&#xbd;" horiz-adv-x="800" 
d="M238 -21q-19 2 -30.5 15t-7.5 37.5t30 60.5q8 8 14.5 16t8.5 14q5 6 21.5 26t39 45.5t44.5 50.5t37.5 42.5t17.5 20.5q4 -1 9 3.5t7 11.5q3 8 9.5 14t11.5 7q2 5 6.5 9t5.5 8q1 3 4.5 5.5t4.5 6.5q9 7 33 30.5t56 56t66.5 68t64 66.5t49 52t20.5 24q4 13 20 8q7 4 16 0
l8.5 -10t13.5 -19q6 -9 6.5 -18t-4.5 -17q-4 -11 -10.5 -18.5t-21 -20.5t-44.5 -40q-6 -6 -22 -21.5t-37 -35t-41 -38.5t-33 -32t-13 -15q-3 -2 -8.5 -7.5t-12.5 -14.5q-8 -7 -25.5 -23.5t-31.5 -30.5t-15 -16l-4 -6t-8 -5q-2 1 -4.5 -2.5l-2.5 -3.5q0 -4 -9 -15t-24 -25
q-16 -19 -43 -52t-55.5 -68t-49.5 -63.5t-26 -39.5q-7 -19 -20 -29t-21 -12zM248 203q-2 3 -9 7.5t-10.5 17t2.5 39.5l2 10t2 9q5 28 9.5 43l4.5 15q4 2 11 25t16 55q3 11 6 21.5t6 20.5q3 13 11.5 32t11.5 32q3 8 5.5 16.5t5.5 16.5q-9 -6 -19 -17t-27 -25q-8 -5 -17 -10.5
t-18 -13.5q-7 -6 -14.5 -13.5t-15.5 -12.5q-21 -19 -31.5 -23t-20.5 3q-12 11 -21 28.5t-4 27.5q2 1 10.5 7.5t19.5 15t18 14.5q8 6 14 11t9 6q2 0 7.5 5t12.5 11q3 2 14 12t29 23q7 7 16 13.5t17 13.5q28 20 54.5 32t31.5 11q1 0 10 -7.5t18 -16.5t11 -15q1 -4 -0.5 -12
t-4.5 -15q-3 -9 -9.5 -29t-14 -45t-15 -49t-12.5 -41q-2 -7 -3.5 -13l-3 -12t-3 -11t-3.5 -9q-1 -1 -1.5 -3.5t-0.5 -3.5q-4 -10 -7 -20.5t-7 -30.5q-8 -20 -15 -46t-10 -43q-1 -5 -3 -10l-4 -10q-3 -10 -6 -18t-7 -12q-4 -16 -16 -17t-32 10zM554 -14q-5 2 -16.5 15
t-15.5 20q0 4 4.5 15.5t10.5 22t8 10.5q1 0 6 6t10 14t5 10l10 8l4 2h-2l11 11l10 10h-1l13 19q5 5 5.5 8.5t8.5 13.5q17 17 30 32t14 19l4 4.5t8 6.5l19 17q3 7 10 13t13 13l11 26q2 7 3.5 7.5t-11.5 4.5h1q-13 3 -27 3q-12 0 -21 -2t-26 -13l-8 -2t-9 -4l-11 -5.5
t-14 -0.5v0l-6 7l-18 24l-12 28l37 16q28 17 59 28.5t50 3.5q8 -1 15 -2.5l7 -1.5q8 -1 21 -9.5t25 -19.5t16 -21v1q5 -7 10 -23.5t5 -24.5q0 -13 -8 -29.5t-21 -34.5q-3 -5 -15.5 -19.5t-28 -32t-28.5 -31.5t-18 -18q-5 -3 -14.5 -11.5t-19.5 -19t-16.5 -17.5t-5.5 -7l3 -2
l6 2q15 6 32 9.5t31.5 5t20.5 -0.5q8 2 26 0.5t31 -6.5q1 0 2.5 -1t2.5 -1q1 -1 4 -1q8 -3 11 -8q3 -6 6 -9q8 -7 15 -16.5t7 -18t-14 -11.5t-48 1q-6 0 -15 -0.5t-14 -2.5q-3 -1 -8.5 -1.5t-13.5 -0.5q-1 0 -3 -0.5t-4 -0.5h-6q-12 2 -26 -1t-30 -8q-9 -3 -32.5 -8.5
t-46 -8.5t-28.5 -1z" />
    <glyph glyph-name="threequarters" unicode="&#xbe;" horiz-adv-x="800" 
d="M278 -21q-19 2 -30.5 15t-7.5 37.5t30 60.5q8 8 14.5 16t8.5 14q5 6 21.5 26t39 45.5t44.5 50.5t37.5 42.5t17.5 20.5q4 -1 9 3.5t7 11.5q3 8 9.5 14t11.5 7q2 5 6.5 9t5.5 8q1 3 4.5 5.5t4.5 6.5q9 7 33 30.5t56 56t66.5 68t64 66.5t49 52t20.5 24q4 13 20 8q7 4 16 0
l8.5 -10t13.5 -19q6 -9 6.5 -18t-4.5 -17q-4 -11 -10.5 -18.5t-21 -20.5t-44.5 -40q-6 -6 -22 -21.5t-37 -35t-41 -38.5t-33 -32t-13 -15q-3 -2 -8.5 -7.5t-12.5 -14.5q-8 -7 -25.5 -23.5t-31.5 -30.5t-15 -16l-4 -6t-8 -5q-2 1 -4.5 -2.5l-2.5 -3.5q0 -4 -9 -15t-24 -25
q-16 -19 -43 -52t-55.5 -68t-49.5 -63.5t-26 -39.5q-7 -19 -20 -29t-21 -12zM213 199q-50 0 -71 17t-20 34q1 15 12 26.5t32 9.5q25 -6 48 -6.5t42 6t32 21.5q17 19 17 40v15t-11 12q-12 11 -38 21t-43 11q-7 -2 -13 1.5t-17 10.5q-4 5 -7.5 15.5t-5.5 13.5l-4 6
q-1 8 17.5 23t62.5 42l5 2h-1l6 4q28 18 42 26t20.5 13t13.5 11h-1q10 14 10.5 13t-11.5 3q-17 2 -23 2.5t-10 -4.5q-4 2 -16.5 0t-23.5 -5t-12 -5t-12.5 -4.5t-23.5 -3.5t-14 -1q-4 1 -9.5 12t-9.5 23.5t-4 17.5q3 4 13.5 12.5t23.5 17t21 12.5q11 3 31.5 4.5t40.5 2.5
t29 0h1q35 -4 62.5 -25t31.5 -48q3 -16 -3.5 -31.5t-28.5 -38.5l-4 -4l-10 -7q-8 -6 -13.5 -8t-17.5 -10l-12 -8l-7 -5l-8 -7l-7 -5l-32 -14l50 -18q20 -10 32 -29t20 -31q5 -12 7.5 -22.5t2.5 -21.5q0 -28 -19.5 -56t-49.5 -49q-20 -13 -53.5 -22.5t-59.5 -11.5zM684 -51
q-9 7 -12 24t2 43q3 24 10 53q2 9 3 12.5t2 10.5q7 16 10 26.5l3 10.5q-3 -1 -8 -2.5t-14 -5.5q-13 -3 -17.5 -4t-15.5 -1q-19 0 -36.5 8t-24.5 21q-4 5 -8.5 17.5t-6 25t2.5 17.5v-1l6 16l7 19q2 6 4 11t2 4l0.5 2t1.5 3q2 4 2 8q3 8 15 27.5t27 43t28 43t19 25.5l1 1
q5 3 15.5 7.5t20.5 6.5t13 -3q11 -10 13.5 -26.5t0.5 -19.5q-1 -4 -6.5 -13t-10.5 -17l-7 -6l-3 -3h1q-16 -25 -33.5 -55t-31.5 -59q-5 -15 -7.5 -21t-1.5 -8h-1q6 -1 12.5 0t25.5 8q14 3 19.5 3t12.5 4q4 0 8 1.5t4 3.5h4q0 3 0.5 8.5t0.5 6.5l7 19l12 22q4 8 8.5 18.5
t11.5 23.5l23 62q8 20 16 21.5t13 1.5t12 -3t8 -16v6q5 -7 16 -19t7 -22q-2 -7 -4.5 -13.5t-4.5 -11.5l-3 -9l-6 -13q-4 -5 -4.5 -8t-2.5 -7q-11 -27 -27 -65.5t-29.5 -74t-19.5 -55.5q-15 -49 -19 -67t2 -29q1 -18 -14 -31.5t-32 -16t-22 11.5v-1z" />
    <glyph glyph-name="questiondown" unicode="&#xbf;" horiz-adv-x="374" 
d="M145 -230q-6 1 -13.5 0.5t-7.5 3.5h-12h-17q-12 4 -29 13t-32 20t-22 19q-7 22 -6 54.5t10 68.5t23.5 68.5t34.5 54.5q6 6 22 20.5t34 30.5t28 28q35 19 60.5 57t38.5 74q11 24 24 32t26 8q16 -1 23 -13t7 -24q0 -1 2 -11.5t0 -18.5q0 -6 -6 -19t-13 -31
q-11 -19 -33.5 -44.5t-39.5 -37.5q-9 -7 -13 -9.5l-4 -2.5q0 -4 -14 -15t-24 -16l-12.5 -9t-20.5 -16q-22 -23 -33 -42.5t-17 -44t-14 -62.5q-1 -34 3.5 -43t16.5 -18q25 -4 48 2t42.5 25t34.5 52q6 17 6.5 23t-2.5 16q0 8 -2.5 19t-2.5 16q5 1 16.5 4.5t25.5 3t26 -11.5
l7.5 -9.5t9.5 -14.5q6 -8 5.5 -15.5t-0.5 -22.5q-6 -20 -18.5 -45t-31 -48t-44.5 -36q-21 -9 -39 -19.5l-18 -10.5l-7.5 -0.5t-25.5 -2.5zM316 407q-34 21 -30 46.5t44 45.5q21 8 35.5 7.5t30.5 -13.5q20 -19 13.5 -39.5t-35.5 -40.5q-19 -13 -28.5 -13.5t-29.5 7.5z" />
    <glyph glyph-name="Agrave" unicode="&#xc0;" horiz-adv-x="502" 
d="M57 -33q-18 10 -19.5 22t13.5 42t47 93q24 45 32.5 70.5t9.5 36.5t1 14q-2 9 2 14.5t13 9.5q5 5 23 18t28 31q9 21 20.5 43t30.5 55.5t51 87.5q20 35 47.5 79t54.5 80q11 14 23 22t21 8q22 0 44 -11.5t39 -28.5t23 -32q5 -8 4 -34t-4 -63t-7 -79q-3 -41 -9 -97
t-11.5 -117t-8.5 -117.5t0 -98.5q1 -9 0 -17t-1 -13q-6 -6 -26 -5.5t-39 6.5t-21 15q-3 3 -4 5t0 19.5t3 64.5l5 153l-13 -1q-9 0 -32.5 -2t-51 -5.5t-50.5 -7t-32 -6.5q-9 0 -21.5 -12t-23.5 -31q-4 -14 -14.5 -29.5t-10.5 -20.5q-7 -5 -11.5 -12l-4.5 -7q0 -6 -8.5 -29.5
t-22 -52t-27.5 -49.5l-27 -38zM296 311l11 2t26.5 4.5t27.5 2.5q23 6 38.5 9t25.5 3.5t16 -2.5q4 -5 7.5 -6l3.5 -1q1 2 4 21t7 47t8 58.5t7 57t4 41.5q1 19 -1 34.5l-2 15.5q-6 0 -22.5 -21.5t-38 -57t-42.5 -76.5q-10 -19 -18.5 -30t-13.5 -11q-2 -2 -10.5 -15.5t-18 -30
t-16 -30t-3.5 -15.5zM543 704q-10 -5 -13.5 3.5t-6 22t-9.5 23.5q-10 19 -23.5 40t-19.5 40.5t5 31.5q22 23 33.5 24t21.5 -10q7 -4 16.5 -22.5t19 -41.5t16 -42t6.5 -25q1 -4 -14 -21t-32 -23z" />
    <glyph glyph-name="Aacute" unicode="&#xc1;" horiz-adv-x="502" 
d="M57 -33q-18 10 -19.5 22t13.5 42t47 93q24 45 32.5 70.5t9.5 36.5t1 14q-2 9 2 14.5t13 9.5q5 5 23 18t28 31q9 21 20.5 43t30.5 55.5t51 87.5q20 35 47.5 79t54.5 80q11 14 23 22t21 8q22 0 44 -11.5t39 -28.5t23 -32q5 -8 4 -34t-4 -63t-7 -79q-3 -41 -9 -97
t-11.5 -117t-8.5 -117.5t0 -98.5q1 -9 0 -17t-1 -13q-6 -6 -26 -5.5t-39 6.5t-21 15q-3 3 -4 5t0 19.5t3 64.5l5 153l-13 -1q-9 0 -32.5 -2t-51 -5.5t-50.5 -7t-32 -6.5q-9 0 -21.5 -12t-23.5 -31q-4 -14 -14.5 -29.5t-10.5 -20.5q-7 -5 -11.5 -12l-4.5 -7q0 -6 -8.5 -29.5
t-22 -52t-27.5 -49.5l-27 -38zM296 311l11 2t26.5 4.5t27.5 2.5q23 6 38.5 9t25.5 3.5t16 -2.5q4 -5 7.5 -6l3.5 -1q1 2 4 21t7 47t8 58.5t7 57t4 41.5q1 19 -1 34.5l-2 15.5q-6 0 -22.5 -21.5t-38 -57t-42.5 -76.5q-10 -19 -18.5 -30t-13.5 -11q-2 -2 -10.5 -15.5t-18 -30
t-16 -30t-3.5 -15.5zM480 714q-7 7 -10.5 17.5t-2.5 35.5q1 5 13.5 20t30 34t35.5 34t29 19q13 5 27.5 -10t15.5 -38q2 -8 -9 -20.5t-28 -26t-33 -27t-24 -24.5q-10 -16 -21.5 -18.5t-22.5 4.5z" />
    <glyph glyph-name="Acircumflex" unicode="&#xc2;" horiz-adv-x="502" 
d="M57 -33q-18 10 -19.5 22t13.5 42t47 93q24 45 32.5 70.5t9.5 36.5t1 14q-2 9 2 14.5t13 9.5q5 5 23 18t28 31q9 21 20.5 43t30.5 55.5t51 87.5q20 35 47.5 79t54.5 80q11 14 23 22t21 8q22 0 44 -11.5t39 -28.5t23 -32q5 -8 4 -34t-4 -63t-7 -79q-3 -41 -9 -97
t-11.5 -117t-8.5 -117.5t0 -98.5q1 -9 0 -17t-1 -13q-6 -6 -26 -5.5t-39 6.5t-21 15q-3 3 -4 5t0 19.5t3 64.5l5 153l-13 -1q-9 0 -32.5 -2t-51 -5.5t-50.5 -7t-32 -6.5q-9 0 -21.5 -12t-23.5 -31q-4 -14 -14.5 -29.5t-10.5 -20.5q-7 -5 -11.5 -12l-4.5 -7q0 -6 -8.5 -29.5
t-22 -52t-27.5 -49.5l-27 -38zM296 311l11 2t26.5 4.5t27.5 2.5q23 6 38.5 9t25.5 3.5t16 -2.5q4 -5 7.5 -6l3.5 -1q1 2 4 21t7 47t8 58.5t7 57t4 41.5q1 19 -1 34.5l-2 15.5q-6 0 -22.5 -21.5t-38 -57t-42.5 -76.5q-10 -19 -18.5 -30t-13.5 -11q-2 -2 -10.5 -15.5t-18 -30
t-16 -30t-3.5 -15.5zM427 727q-17 -17 -31 -11.5t-18.5 22t4.5 30.5q3 4 15.5 15.5t29.5 26.5t33.5 27.5t26.5 18.5q13 11 26.5 8.5t19.5 -11.5q12 -10 29 -26.5t33 -33t23 -26.5q6 -12 2.5 -25t-13.5 -21t-23 -6.5t-26 18.5q-7 6 -22 21.5t-30 28.5q-12 -7 -28 -18
t-30 -21.5t-21 -16.5z" />
    <glyph glyph-name="Atilde" unicode="&#xc3;" horiz-adv-x="502" 
d="M57 -33q-18 10 -19.5 22t13.5 42t47 93q24 45 32.5 70.5t9.5 36.5t1 14q-2 9 2 14.5t13 9.5q5 5 23 18t28 31q9 21 20.5 43t30.5 55.5t51 87.5q20 35 47.5 79t54.5 80q11 14 23 22t21 8q22 0 44 -11.5t39 -28.5t23 -32q5 -8 4 -34t-4 -63t-7 -79q-3 -41 -9 -97
t-11.5 -117t-8.5 -117.5t0 -98.5q1 -9 0 -17t-1 -13q-6 -6 -26 -5.5t-39 6.5t-21 15q-3 3 -4 5t0 19.5t3 64.5l5 153l-13 -1q-9 0 -32.5 -2t-51 -5.5t-50.5 -7t-32 -6.5q-9 0 -21.5 -12t-23.5 -31q-4 -14 -14.5 -29.5t-10.5 -20.5q-7 -5 -11.5 -12l-4.5 -7q0 -6 -8.5 -29.5
t-22 -52t-27.5 -49.5l-27 -38zM296 311l11 2t26.5 4.5t27.5 2.5q23 6 38.5 9t25.5 3.5t16 -2.5q4 -5 7.5 -6l3.5 -1q1 2 4 21t7 47t8 58.5t7 57t4 41.5q1 19 -1 34.5l-2 15.5q-6 0 -22.5 -21.5t-38 -57t-42.5 -76.5q-10 -19 -18.5 -30t-13.5 -11q-2 -2 -10.5 -15.5t-18 -30
t-16 -30t-3.5 -15.5zM571 726q-14 0 -30 8t-34 23q-9 5 -22.5 18.5t-25.5 13.5q-10 0 -16.5 -8t-12 -16t-16.5 -10q-3 -7 -6.5 -13.5t-11.5 -1.5q-10 2 -17 10t-10 27q8 23 25 43.5t42 33.5q32 8 49.5 0t33.5 -25q24 -19 37 -22t32 5q15 4 29.5 13t35.5 17q7 3 14.5 -4
t12 -17t3.5 -16q-1 -12 -10 -22.5t-18 -15.5q-30 -17 -47 -26t-25 -12t-12 -3z" />
    <glyph glyph-name="Adieresis" unicode="&#xc4;" horiz-adv-x="502" 
d="M57 -33q-18 10 -19.5 22t13.5 42t47 93q24 45 32.5 70.5t9.5 36.5t1 14q-2 9 2 14.5t13 9.5q5 5 23 18t28 31q9 21 20.5 43t30.5 55.5t51 87.5q20 35 47.5 79t54.5 80q11 14 23 22t21 8q22 0 44 -11.5t39 -28.5t23 -32q5 -8 4 -34t-4 -63t-7 -79q-3 -41 -9 -97
t-11.5 -117t-8.5 -117.5t0 -98.5q1 -9 0 -17t-1 -13q-6 -6 -26 -5.5t-39 6.5t-21 15q-3 3 -4 5t0 19.5t3 64.5l5 153l-13 -1q-9 0 -32.5 -2t-51 -5.5t-50.5 -7t-32 -6.5q-9 0 -21.5 -12t-23.5 -31q-4 -14 -14.5 -29.5t-10.5 -20.5q-7 -5 -11.5 -12l-4.5 -7q0 -6 -8.5 -29.5
t-22 -52t-27.5 -49.5l-27 -38zM296 311l11 2t26.5 4.5t27.5 2.5q23 6 38.5 9t25.5 3.5t16 -2.5q4 -5 7.5 -6l3.5 -1q1 2 4 21t7 47t8 58.5t7 57t4 41.5q1 19 -1 34.5l-2 15.5q-6 0 -22.5 -21.5t-38 -57t-42.5 -76.5q-10 -19 -18.5 -30t-13.5 -11q-2 -2 -10.5 -15.5t-18 -30
t-16 -30t-3.5 -15.5zM574 746q-7 7 -12 22.5t-4 19.5q2 5 8 21t10 20q5 7 16 18.5t15 12.5q11 12 27 6t24 -22q19 -23 12 -44.5t-27 -41.5q-20 -31 -37.5 -29t-31.5 17zM430 736q-14 10 -21 27t-5 24q2 14 13 34t18 26q3 2 9.5 7t11.5 8q13 9 24.5 3.5t20 -17t11.5 -22.5
q7 -13 1.5 -29.5t-21.5 -33.5q-16 -21 -30.5 -29.5t-31.5 2.5z" />
    <glyph glyph-name="Aring" unicode="&#xc5;" horiz-adv-x="502" 
d="M57 -33q-18 10 -19.5 22t13.5 42t47 93q24 45 32.5 70.5t9.5 36.5t1 14q-2 9 2 14.5t13 9.5q5 5 23 18t28 31q9 21 20.5 43t30.5 55.5t51 87.5q20 35 47.5 79t54.5 80q11 14 23 22t21 8q22 0 44 -11.5t39 -28.5t23 -32q5 -8 4 -34t-4 -63t-7 -79q-3 -41 -9 -97
t-11.5 -117t-8.5 -117.5t0 -98.5q1 -9 0 -17t-1 -13q-6 -6 -26 -5.5t-39 6.5t-21 15q-3 3 -4 5t0 19.5t3 64.5l5 153l-13 -1q-9 0 -32.5 -2t-51 -5.5t-50.5 -7t-32 -6.5q-9 0 -21.5 -12t-23.5 -31q-4 -14 -14.5 -29.5t-10.5 -20.5q-7 -5 -11.5 -12l-4.5 -7q0 -6 -8.5 -29.5
t-22 -52t-27.5 -49.5l-27 -38zM296 311l11 2t26.5 4.5t27.5 2.5q23 6 38.5 9t25.5 3.5t16 -2.5q4 -5 7.5 -6l3.5 -1q1 2 4 21t7 47t8 58.5t7 57t4 41.5q1 19 -1 34.5l-2 15.5q-6 0 -22.5 -21.5t-38 -57t-42.5 -76.5q-10 -19 -18.5 -30t-13.5 -11q-2 -2 -10.5 -15.5t-18 -30
t-16 -30t-3.5 -15.5zM529 685q-34 0 -50 19.5t-24 54.5q-1 32 10 58t30 41.5t41 15.5q44 -1 64 -20t20 -48q-2 -36 -14.5 -63.5t-32 -42.5t-44.5 -15zM531 743q18 0 25 12t8 25q0 15 -5 25t-20 9q-31 -2 -30 -40q0 -10 7 -20.5t15 -10.5z" />
    <glyph glyph-name="AE" unicode="&#xc6;" horiz-adv-x="784" 
d="M560 -50q-40 0 -62.5 6t-48.5 26q-20 15 -30.5 40t-12.5 53t3 52q3 23 8 43.5t9 32.5h-12q-21 -1 -57 1t-86 5l-17 -21q-7 -9 -18 -25.5t-22 -37.5q-10 -19 -27 -46.5t-36 -50.5q-21 -31 -31.5 -38.5t-15.5 -7.5q-12 0 -18.5 3.5t-14.5 10.5q-17 10 -16 29t26 48
q6 7 10.5 14l4.5 7q4 8 14.5 26.5t23.5 38.5t24 35.5t16 17.5q23 21 4 40q-7 3 -6 17t12 26.5t33 10.5q8 3 14.5 5t6.5 5q1 5 7 15.5t14.5 24t18 26t17.5 21.5q15 28 20.5 37t11.5 18q6 5 19 22.5t24 33.5q16 14 28 29.5t22 26.5q6 11 15.5 22.5t22.5 25.5q22 21 40.5 24
t31.5 3q15 0 41 -5.5t54 -15.5q26 11 63 19t59 9q6 4 27 6t48.5 2t50.5 -2q22 0 35 -6.5t26 -12.5q22 -17 22.5 -28.5t-6 -16.5l-6.5 -5q-4 -1 -14 -3t-32 -3t-63 -1q-14 0 -32.5 -3t-35 -6t-23.5 -3q-10 -4 -28.5 -5t-22.5 -1q-2 0 -9 -11t-14.5 -26t-13.5 -28t-6 -16
q0 -10 -8.5 -24.5t-19.5 -30.5q-10 -13 -12 -26t7 -17q16 3 34 5.5t36 4.5t33 2q26 4 46.5 4.5t26.5 -4.5q13 -2 16.5 -13t-1 -22t-16.5 -16q-5 -4 -25.5 -11t-49 -14.5t-57.5 -14t-52.5 -11t-33.5 -4.5q-8 7 -14.5 -2t-17.5 -56q-11 -25 -17 -39.5t-9.5 -30.5t-9.5 -47
q-4 -15 2.5 -38.5t38.5 -38.5q20 -4 43.5 -3.5t66.5 11.5q18 11 35 20.5t24 13.5q5 0 15.5 4.5t14.5 4.5q5 5 10 8.5t12 3.5q2 0 12 -14t19 -29t8 -18q0 -10 -36 -27.5t-86 -37.5q-25 -11 -41 -17t-34 -7.5t-50 -1.5zM332 287l13.5 2.5t41.5 1.5q19 2 37.5 2t31.5 -1
q2 6 6.5 11.5t6.5 12.5q3 6 4 15.5t2 11.5l4 7.5t8 17.5l7 17.5t6 11.5q5 5 10.5 16l10.5 21q20 38 31.5 56.5t18.5 34.5q-13 7 -28.5 8t-36.5 -1q-4 3 -14 -6t-23 -22.5t-24 -27.5t-16 -22q-4 -5 -19.5 -28t-32.5 -47q-26 -38 -37 -56.5t-12 -25.5t4 -10z" />
    <glyph glyph-name="Ccedilla" unicode="&#xc7;" horiz-adv-x="482" 
d="M217 -66q-15 6 -35 16.5t-38 27.5t-28 41q-10 29 -13.5 57t-2.5 65q0 52 7.5 90.5t23.5 78.5q2 3 7.5 17.5t13 31.5t11.5 26q8 17 24.5 45.5t35.5 55.5q29 43 49 70.5t38.5 46.5t41 37t56.5 41q22 16 56.5 20t67.5 -10.5t49 -54.5q11 -21 10 -52.5t-12 -67t-28 -66.5
t-38 -50q-13 -12 -34.5 -4t-35.5 21q-9 17 -9.5 20t3.5 4q6 7 16 24t20 36.5t14 31.5q8 42 11 55.5t-6 22.5q-4 4 -11.5 3t-24.5 -10q-23 -10 -54.5 -40.5t-62.5 -72.5q-40 -53 -67 -94t-41 -84q-2 -4 -6.5 -15l-4.5 -11q1 -4 -3 -19.5t-9 -26.5q-11 -46 -13 -88.5t5.5 -74
t22.5 -46.5q13 -9 33 -6t46 14t56 24q24 10 44 22t30 21q8 6 20.5 12.5t21.5 6.5q14 5 21 -8t7 -33q0 -14 -20 -34t-44 -34q-8 -8 -21.5 -14.5t-27.5 -11.5q-21 -16 -52 -31t-62.5 -23t-57.5 -3zM237 -265q-15 -3 -40 1.5t-46.5 10.5t-27.5 8q-12 4 -18 15.5t-5 23.5
t11 18.5t32 0.5q16 -4 34.5 -10.5t33.5 -6.5t22 14q7 11 -1 22.5t-19 23.5q-7 9 -13.5 15.5t-17.5 16.5q-8 11 -9.5 25.5t15.5 32.5t65 42l56 -30q-25 -12 -40.5 -23t-15.5 -24q14 -20 31 -38.5t22 -38.5q6 -24 -3.5 -45t-27.5 -35.5t-38 -18.5z" />
    <glyph glyph-name="Egrave" unicode="&#xc8;" horiz-adv-x="548" 
d="M235 -39q-31 2 -62 22.5t-57 38.5q-17 17 -26 36.5t-15 51.5q-4 19 0 50t13 62.5t17 49.5q12 28 30.5 60.5t37 62t29.5 47.5q7 7 6.5 7.5l-0.5 0.5q0 5 10.5 25.5t18.5 36.5q15 16 17 26t-3 16q-2 4 8.5 17t29.5 29.5t42 29.5q24 19 46.5 20.5t26.5 -9.5q0 -3 11.5 -1.5
t27 5t27.5 5.5q5 6 23.5 9.5t43.5 6.5q13 -1 29 -0.5t28.5 1.5l12.5 1q7 2 20.5 -8.5t21.5 -28.5q7 -18 -12 -31t-60 -18q-30 -4 -46.5 -6.5t-35 -6t-53.5 -11.5q-25 -5 -42 -8t-29.5 -12t-27.5 -32q-7 -5 -18 -26l-22 -42q-28 -39 -41.5 -57.5t-9.5 -23.5l14 -3t18 -3
q10 5 24.5 7t23.5 4q62 16 91.5 23.5t42 10.5t22.5 4q14 11 28.5 -1.5t20.5 -29.5q7 -20 0 -31t-30.5 -18t-66.5 -16.5t-108 -27.5q-55 -16 -89 -19t-32 17q-7 4 -15.5 -7.5t-15.5 -31.5t-12.5 -43t-6.5 -43t3 -31q8 -23 25.5 -39.5t51.5 -26.5q20 -1 39 -3t43 8
q59 10 82 21t28 15q8 4 10.5 8t7.5 4q-3 -5 2 0t16 14q21 18 42 22t35 0.5t15 -8.5q6 -10 -6 -31.5t-36.5 -45.5t-57.5 -43q-53 -28 -115 -39.5t-111 -12.5zM565 704q-10 -5 -13.5 3.5t-6 22t-9.5 23.5q-10 19 -23.5 40t-19.5 40.5t5 31.5q22 23 33.5 24t21.5 -10
q7 -4 16.5 -22.5t19 -41.5t16 -42t6.5 -25q1 -4 -14 -21t-32 -23z" />
    <glyph glyph-name="Eacute" unicode="&#xc9;" horiz-adv-x="548" 
d="M235 -39q-31 2 -62 22.5t-57 38.5q-17 17 -26 36.5t-15 51.5q-4 19 0 50t13 62.5t17 49.5q12 28 30.5 60.5t37 62t29.5 47.5q7 7 6.5 7.5l-0.5 0.5q0 5 10.5 25.5t18.5 36.5q15 16 17 26t-3 16q-2 4 8.5 17t29.5 29.5t42 29.5q24 19 46.5 20.5t26.5 -9.5q0 -3 11.5 -1.5
t27 5t27.5 5.5q5 6 23.5 9.5t43.5 6.5q13 -1 29 -0.5t28.5 1.5l12.5 1q7 2 20.5 -8.5t21.5 -28.5q7 -18 -12 -31t-60 -18q-30 -4 -46.5 -6.5t-35 -6t-53.5 -11.5q-25 -5 -42 -8t-29.5 -12t-27.5 -32q-7 -5 -18 -26l-22 -42q-28 -39 -41.5 -57.5t-9.5 -23.5l14 -3t18 -3
q10 5 24.5 7t23.5 4q62 16 91.5 23.5t42 10.5t22.5 4q14 11 28.5 -1.5t20.5 -29.5q7 -20 0 -31t-30.5 -18t-66.5 -16.5t-108 -27.5q-55 -16 -89 -19t-32 17q-7 4 -15.5 -7.5t-15.5 -31.5t-12.5 -43t-6.5 -43t3 -31q8 -23 25.5 -39.5t51.5 -26.5q20 -1 39 -3t43 8
q59 10 82 21t28 15q8 4 10.5 8t7.5 4q-3 -5 2 0t16 14q21 18 42 22t35 0.5t15 -8.5q6 -10 -6 -31.5t-36.5 -45.5t-57.5 -43q-53 -28 -115 -39.5t-111 -12.5zM502 714q-7 7 -10.5 17.5t-2.5 35.5q1 5 13.5 20t30 34t35.5 34t29 19q13 5 27.5 -10t15.5 -38q2 -8 -9 -20.5
t-28 -26t-33 -27t-24 -24.5q-10 -16 -21.5 -18.5t-22.5 4.5z" />
    <glyph glyph-name="Ecircumflex" unicode="&#xca;" horiz-adv-x="548" 
d="M235 -39q-31 2 -62 22.5t-57 38.5q-17 17 -26 36.5t-15 51.5q-4 19 0 50t13 62.5t17 49.5q12 28 30.5 60.5t37 62t29.5 47.5q7 7 6.5 7.5l-0.5 0.5q0 5 10.5 25.5t18.5 36.5q15 16 17 26t-3 16q-2 4 8.5 17t29.5 29.5t42 29.5q24 19 46.5 20.5t26.5 -9.5q0 -3 11.5 -1.5
t27 5t27.5 5.5q5 6 23.5 9.5t43.5 6.5q13 -1 29 -0.5t28.5 1.5l12.5 1q7 2 20.5 -8.5t21.5 -28.5q7 -18 -12 -31t-60 -18q-30 -4 -46.5 -6.5t-35 -6t-53.5 -11.5q-25 -5 -42 -8t-29.5 -12t-27.5 -32q-7 -5 -18 -26l-22 -42q-28 -39 -41.5 -57.5t-9.5 -23.5l14 -3t18 -3
q10 5 24.5 7t23.5 4q62 16 91.5 23.5t42 10.5t22.5 4q14 11 28.5 -1.5t20.5 -29.5q7 -20 0 -31t-30.5 -18t-66.5 -16.5t-108 -27.5q-55 -16 -89 -19t-32 17q-7 4 -15.5 -7.5t-15.5 -31.5t-12.5 -43t-6.5 -43t3 -31q8 -23 25.5 -39.5t51.5 -26.5q20 -1 39 -3t43 8
q59 10 82 21t28 15q8 4 10.5 8t7.5 4q-3 -5 2 0t16 14q21 18 42 22t35 0.5t15 -8.5q6 -10 -6 -31.5t-36.5 -45.5t-57.5 -43q-53 -28 -115 -39.5t-111 -12.5zM489 727q-17 -17 -31 -11.5t-18.5 22t4.5 30.5q3 4 15.5 15.5t29.5 26.5t33.5 27.5t26.5 18.5q13 11 26.5 8.5
t19.5 -11.5q12 -10 29 -26.5t33 -33t23 -26.5q6 -12 2.5 -25t-13.5 -21t-23 -6.5t-26 18.5q-7 6 -22 21.5t-30 28.5q-12 -7 -28 -18t-30 -21.5t-21 -16.5z" />
    <glyph glyph-name="Edieresis" unicode="&#xcb;" horiz-adv-x="548" 
d="M235 -39q-31 2 -62 22.5t-57 38.5q-17 17 -26 36.5t-15 51.5q-4 19 0 50t13 62.5t17 49.5q12 28 30.5 60.5t37 62t29.5 47.5q7 7 6.5 7.5l-0.5 0.5q0 5 10.5 25.5t18.5 36.5q15 16 17 26t-3 16q-2 4 8.5 17t29.5 29.5t42 29.5q24 19 46.5 20.5t26.5 -9.5q0 -3 11.5 -1.5
t27 5t27.5 5.5q5 6 23.5 9.5t43.5 6.5q13 -1 29 -0.5t28.5 1.5l12.5 1q7 2 20.5 -8.5t21.5 -28.5q7 -18 -12 -31t-60 -18q-30 -4 -46.5 -6.5t-35 -6t-53.5 -11.5q-25 -5 -42 -8t-29.5 -12t-27.5 -32q-7 -5 -18 -26l-22 -42q-28 -39 -41.5 -57.5t-9.5 -23.5l14 -3t18 -3
q10 5 24.5 7t23.5 4q62 16 91.5 23.5t42 10.5t22.5 4q14 11 28.5 -1.5t20.5 -29.5q7 -20 0 -31t-30.5 -18t-66.5 -16.5t-108 -27.5q-55 -16 -89 -19t-32 17q-7 4 -15.5 -7.5t-15.5 -31.5t-12.5 -43t-6.5 -43t3 -31q8 -23 25.5 -39.5t51.5 -26.5q20 -1 39 -3t43 8
q59 10 82 21t28 15q8 4 10.5 8t7.5 4q-3 -5 2 0t16 14q21 18 42 22t35 0.5t15 -8.5q6 -10 -6 -31.5t-36.5 -45.5t-57.5 -43q-53 -28 -115 -39.5t-111 -12.5zM596 746q-7 7 -12 22.5t-4 19.5q2 5 8 21t10 20q5 7 16 18.5t15 12.5q11 12 27 6t24 -22q19 -23 12 -44.5
t-27 -41.5q-20 -31 -37.5 -29t-31.5 17zM452 736q-14 10 -21 27t-5 24q2 14 13 34t18 26q3 2 9.5 7t11.5 8q13 9 24.5 3.5t20 -17t11.5 -22.5q7 -13 1.5 -29.5t-21.5 -33.5q-16 -21 -30.5 -29.5t-31.5 2.5z" />
    <glyph glyph-name="Igrave" unicode="&#xcc;" horiz-adv-x="400" 
d="M177 -41q-7 11 -24 14t-52 1q-14 -2 -29 2t-24 12t-7 16q1 12 28 26t70 15l42 1l10 20q4 11 6.5 24t9.5 36q4 14 12 39t17 53.5t16 51.5t9 32q4 9 11 30.5t13.5 44t8.5 32.5q26 79 34 110.5t4 32.5q-4 0 -19 -1t-33 -2.5t-32 -3.5t-17 -4q-5 -7 -17 2.5t-15 19.5
q-1 9 0 17t6 11q7 6 29 13.5t49.5 13.5t50.5 9q17 2 34 7.5t27 13.5q9 3 17.5 5t17.5 1q8 -5 27.5 -5t41.5 1q56 5 78.5 -3.5t29.5 -22.5q5 -19 -2 -31.5t-24 -11.5q-9 -2 -25 -3.5t-42 -2.5q-66 -6 -71 -14q-4 -4 -6.5 -8t-6.5 -9q1 -4 -4.5 -23.5t-13.5 -41.5
q-4 -13 -12 -37l-16.5 -49.5t-15.5 -46t-10 -27.5q-4 -9 -6.5 -19.5t-3.5 -15.5q-14 -49 -23.5 -82t-16.5 -57.5t-13 -47t-14 -50.5l17 1.5t43 3.5q47 5 64 6t20 -2.5t6 -12.5q20 -27 -2.5 -45t-78.5 -17q-52 -2 -76.5 -3.5t-31.5 -4.5t-7 -10q1 -16 -19.5 -19.5t-38.5 15.5
zM464 704q-10 -5 -13.5 3.5t-6 22t-9.5 23.5q-10 19 -23.5 40t-19.5 40.5t5 31.5q22 23 33.5 24t21.5 -10q7 -4 16.5 -22.5t19 -41.5t16 -42t6.5 -25q1 -4 -14 -21t-32 -23z" />
    <glyph glyph-name="Iacute" unicode="&#xcd;" horiz-adv-x="400" 
d="M177 -41q-7 11 -24 14t-52 1q-14 -2 -29 2t-24 12t-7 16q1 12 28 26t70 15l42 1l10 20q4 11 6.5 24t9.5 36q4 14 12 39t17 53.5t16 51.5t9 32q4 9 11 30.5t13.5 44t8.5 32.5q26 79 34 110.5t4 32.5q-4 0 -19 -1t-33 -2.5t-32 -3.5t-17 -4q-5 -7 -17 2.5t-15 19.5
q-1 9 0 17t6 11q7 6 29 13.5t49.5 13.5t50.5 9q17 2 34 7.5t27 13.5q9 3 17.5 5t17.5 1q8 -5 27.5 -5t41.5 1q56 5 78.5 -3.5t29.5 -22.5q5 -19 -2 -31.5t-24 -11.5q-9 -2 -25 -3.5t-42 -2.5q-66 -6 -71 -14q-4 -4 -6.5 -8t-6.5 -9q1 -4 -4.5 -23.5t-13.5 -41.5
q-4 -13 -12 -37l-16.5 -49.5t-15.5 -46t-10 -27.5q-4 -9 -6.5 -19.5t-3.5 -15.5q-14 -49 -23.5 -82t-16.5 -57.5t-13 -47t-14 -50.5l17 1.5t43 3.5q47 5 64 6t20 -2.5t6 -12.5q20 -27 -2.5 -45t-78.5 -17q-52 -2 -76.5 -3.5t-31.5 -4.5t-7 -10q1 -16 -19.5 -19.5t-38.5 15.5
zM401 714q-7 7 -10.5 17.5t-2.5 35.5q1 5 13.5 20t30 34t35.5 34t29 19q13 5 27.5 -10t15.5 -38q2 -8 -9 -20.5t-28 -26t-33 -27t-24 -24.5q-10 -16 -21.5 -18.5t-22.5 4.5z" />
    <glyph glyph-name="Icircumflex" unicode="&#xce;" horiz-adv-x="400" 
d="M177 -41q-7 11 -24 14t-52 1q-14 -2 -29 2t-24 12t-7 16q1 12 28 26t70 15l42 1l10 20q4 11 6.5 24t9.5 36q4 14 12 39t17 53.5t16 51.5t9 32q4 9 11 30.5t13.5 44t8.5 32.5q26 79 34 110.5t4 32.5q-4 0 -19 -1t-33 -2.5t-32 -3.5t-17 -4q-5 -7 -17 2.5t-15 19.5
q-1 9 0 17t6 11q7 6 29 13.5t49.5 13.5t50.5 9q17 2 34 7.5t27 13.5q9 3 17.5 5t17.5 1q8 -5 27.5 -5t41.5 1q56 5 78.5 -3.5t29.5 -22.5q5 -19 -2 -31.5t-24 -11.5q-9 -2 -25 -3.5t-42 -2.5q-66 -6 -71 -14q-4 -4 -6.5 -8t-6.5 -9q1 -4 -4.5 -23.5t-13.5 -41.5
q-4 -13 -12 -37l-16.5 -49.5t-15.5 -46t-10 -27.5q-4 -9 -6.5 -19.5t-3.5 -15.5q-14 -49 -23.5 -82t-16.5 -57.5t-13 -47t-14 -50.5l17 1.5t43 3.5q47 5 64 6t20 -2.5t6 -12.5q20 -27 -2.5 -45t-78.5 -17q-52 -2 -76.5 -3.5t-31.5 -4.5t-7 -10q1 -16 -19.5 -19.5t-38.5 15.5
zM388 727q-17 -17 -31 -11.5t-18.5 22t4.5 30.5q3 4 15.5 15.5t29.5 26.5t33.5 27.5t26.5 18.5q13 11 26.5 8.5t19.5 -11.5q12 -10 29 -26.5t33 -33t23 -26.5q6 -12 2.5 -25t-13.5 -21t-23 -6.5t-26 18.5q-7 6 -22 21.5t-30 28.5q-12 -7 -28 -18t-30 -21.5t-21 -16.5z" />
    <glyph glyph-name="Idieresis" unicode="&#xcf;" horiz-adv-x="409" 
d="M181 -41q-7 11 -24 14t-52 1q-14 -2 -29 2t-24 12t-7 16q1 12 28 26t70 15l42 1l10 20q4 11 6.5 24t9.5 36q4 14 12 39t17 53.5t16 51.5t9 32q4 9 11 30.5t13.5 44t8.5 32.5q26 79 34 110.5t4 32.5q-4 0 -19 -1t-33 -2.5t-32 -3.5t-17 -4q-5 -7 -17 2.5t-15 19.5
q-1 9 0 17t6 11q7 6 29 13.5t49.5 13.5t50.5 9q17 2 34 7.5t27 13.5q9 3 17.5 5t17.5 1q8 -5 27.5 -5t41.5 1q56 5 78.5 -3.5t29.5 -22.5q5 -19 -2 -31.5t-24 -11.5q-9 -2 -25 -3.5t-42 -2.5q-66 -6 -71 -14q-4 -4 -6.5 -8t-6.5 -9q1 -4 -4.5 -23.5t-13.5 -41.5
q-4 -13 -12 -37l-16.5 -49.5t-15.5 -46t-10 -27.5q-4 -9 -6.5 -19.5t-3.5 -15.5q-14 -49 -23.5 -82t-16.5 -57.5t-13 -47t-14 -50.5l17 1.5t43 3.5q47 5 64 6t20 -2.5t6 -12.5q20 -27 -2.5 -45t-78.5 -17q-52 -2 -76.5 -3.5t-31.5 -4.5t-7 -10q1 -16 -19.5 -19.5t-38.5 15.5
zM495 746q-7 7 -12 22.5t-4 19.5q2 5 8 21t10 20q5 7 16 18.5t15 12.5q11 12 27 6t24 -22q19 -23 12 -44.5t-27 -41.5q-20 -31 -37.5 -29t-31.5 17zM351 736q-14 10 -21 27t-5 24q2 14 13 34t18 26q3 2 9.5 7t11.5 8q13 9 24.5 3.5t20 -17t11.5 -22.5q7 -13 1.5 -29.5
t-21.5 -33.5q-16 -21 -30.5 -29.5t-31.5 2.5z" />
    <glyph glyph-name="Eth" unicode="&#xd0;" horiz-adv-x="578" 
d="M224 -104q-22 -4 -53 -2t-76 15q-10 5 -21 17.5t-19 28.5t-8 30q0 26 11.5 35t22.5 10q19 -1 32.5 -12.5t19.5 -19.5q22 -7 39 -12.5t34 -6.5q22 2 42 3.5t36 4t24 7.5q53 36 80.5 58.5l27.5 22.5q2 4 7.5 6.5t13.5 5.5q6 6 19.5 20t26 27t15.5 15q2 9 4 14.5t2 11.5
q8 8 22 34t28 58t20 58q13 65 7 110t-27.5 78t-53.5 60q-14 11 -32.5 20.5t-36 17t-31 11t-16.5 2.5t-12.5 -25t-23.5 -62t-30 -84.5t-33 -92.5h4q28 -3 39.5 -8t22.5 -13q14 -15 7 -30.5t-32 -13.5q-7 -1 -22.5 -2t-29.5 -2h-5.5h-6.5q-7 -22 -14 -42t-7 -25
q-11 -17 -23 -52t-20 -100q-9 -34 -13 -57t-8 -22l-1 -7q0 -6 -14 -9t-30 -1t-22 8q-3 11 -10 28t-1 42q4 23 13.5 55.5t20.5 66.5t21 61.5t14 40.5q1 2 1.5 4.5t1.5 3.5h-6q-1 0 -7.5 1t-15.5 4q-15 0 -24 6.5t-14 15.5q-7 15 6.5 22t47.5 11l18 4t16 3q1 2 1 4t1 3
q8 24 15.5 48t14.5 43t12 27q5 13 12.5 43t23.5 68l7 32l-11 5q-7 -3 -14.5 -2.5t-12.5 2.5q-5 -1 -12 2.5t-14 9.5t-12 12q-5 9 -6 16.5l-1 7.5q1 8 21 16t53 14.5t73 7.5q40 -1 81 -12.5t68 -21.5q35 -12 71 -41t64 -65.5t38 -74.5q7 -23 10 -49t3 -46t-5 -26
q-2 -4 -2.5 -9.5t3.5 -7.5q-1 -3 -7 -22.5t-11 -33.5q-3 -27 -14 -59t-24 -61t-23 -46q-4 0 -7.5 -1.5t0.5 -2.5q0 -7 -6 -13t-12 -14q-4 -3 -9 -10.5t-10 -11.5q-1 -7 -6 -11.5t-9 -4.5h-1.5t-1.5 -4q-8 -12 -26.5 -31t-42.5 -39t-48 -37t-44 -25q-10 -7 -21 -11.5
t-21 -9.5q-5 -4 -24 -6.5t-42 -4t-40 -4.5z" />
    <glyph glyph-name="Ntilde" unicode="&#xd1;" horiz-adv-x="566" 
d="M106 -85q-20 11 -27 26t-5.5 33t6.5 37q8 32 17.5 53.5t19 45t16.5 60.5q16 37 28.5 70t19.5 54l7 21q1 4 8.5 21t19 41.5t22.5 49.5q17 48 32 81.5t30.5 60.5t33.5 54q12 21 34 25t42 -4.5t26 -28.5q5 -10 8.5 -23t7 -38.5t4.5 -73.5q2 -57 2.5 -104.5t4 -87.5t12.5 -73
q3 -18 6 -43.5t6.5 -50.5t7.5 -41.5t8 -16.5q5 0 11.5 8.5t17.5 36.5t28 86t41 156q5 17 13.5 55t12.5 77q7 25 14 55t12.5 53t5.5 26q0 7 0.5 12t-0.5 10q5 0 9 13.5t4 23.5q0 17 4.5 27.5t9.5 15.5q11 20 28.5 20.5t32.5 -10t18 -25.5q2 -11 -5.5 -49.5t-22.5 -103.5
q0 -11 -6 -36t-12.5 -53t-9.5 -48q-4 -26 -9 -48.5t-10 -21.5q-26 -113 -54.5 -192.5t-50.5 -129.5q-24 -55 -61.5 -70.5t-69.5 25.5q-19 26 -32 51t-21 59t-14 86q-6 42 -10.5 82.5t-6.5 83t-1 90.5q1 57 -4.5 67t-15.5 -11t-23 -57q-7 -20 -16.5 -45.5t-19.5 -50.5
t-17 -43t-9 -23q-6 -12 -14 -31.5t-13 -41.5q-36 -94 -53.5 -161.5t-25.5 -89.5q-10 -28 -18.5 -34t-33.5 8zM546 726q-14 0 -30 8t-34 23q-9 5 -22.5 18.5t-25.5 13.5q-10 0 -16.5 -8t-12 -16t-16.5 -10q-3 -7 -6.5 -13.5t-11.5 -1.5q-10 2 -17 10t-10 27q8 23 25 43.5
t42 33.5q32 8 49.5 0t33.5 -25q24 -19 37 -22t32 5q15 4 29.5 13t35.5 17q7 3 14.5 -4t12 -17t3.5 -16q-1 -12 -10 -22.5t-18 -15.5q-30 -17 -47 -26t-25 -12t-12 -3z" />
    <glyph glyph-name="Ograve" unicode="&#xd2;" horiz-adv-x="496" 
d="M183 -35q-37 27 -58.5 50.5t-23.5 45.5q-2 18 0.5 49t6.5 61t7 45q5 5 4.5 13.5l-0.5 8.5q-1 5 7 26.5t15 55.5q20 60 38.5 100.5t36.5 69.5t36 53q41 42 77.5 67t67.5 39q20 12 37 19t28 2q56 -12 95 -49t52 -107q7 -44 8.5 -79.5t-5.5 -70t-25.5 -75.5t-51.5 -96
q-41 -81 -89.5 -135.5t-97 -82.5t-92 -30.5t-73.5 20.5zM263 31q23 3 37.5 9t30.5 23t45 50q26 30 43.5 51t30 43t24 52.5t25.5 78.5q8 30 11.5 44.5t4.5 24.5t0.5 27.5t-0.5 53.5q-1 17 -7 38.5t-14 30.5q-10 11 -30 19t-42 -2q-12 -5 -30 -20.5t-37 -36.5t-36 -42t-27 -38
t-10 -24l-0.5 -5t-4.5 -10q-13 -14 -27 -46t-26 -73t-20 -82t-10 -74v-27t2.5 -19.5t8.5 -18.5t24.5 -20t33.5 -7zM538 704q-10 -5 -13.5 3.5t-6 22t-9.5 23.5q-10 19 -23.5 40t-19.5 40.5t5 31.5q22 23 33.5 24t21.5 -10q7 -4 16.5 -22.5t19 -41.5t16 -42t6.5 -25
q1 -4 -14 -21t-32 -23z" />
    <glyph glyph-name="Oacute" unicode="&#xd3;" horiz-adv-x="496" 
d="M183 -35q-37 27 -58.5 50.5t-23.5 45.5q-2 18 0.5 49t6.5 61t7 45q5 5 4.5 13.5l-0.5 8.5q-1 5 7 26.5t15 55.5q20 60 38.5 100.5t36.5 69.5t36 53q41 42 77.5 67t67.5 39q20 12 37 19t28 2q56 -12 95 -49t52 -107q7 -44 8.5 -79.5t-5.5 -70t-25.5 -75.5t-51.5 -96
q-41 -81 -89.5 -135.5t-97 -82.5t-92 -30.5t-73.5 20.5zM263 31q23 3 37.5 9t30.5 23t45 50q26 30 43.5 51t30 43t24 52.5t25.5 78.5q8 30 11.5 44.5t4.5 24.5t0.5 27.5t-0.5 53.5q-1 17 -7 38.5t-14 30.5q-10 11 -30 19t-42 -2q-12 -5 -30 -20.5t-37 -36.5t-36 -42t-27 -38
t-10 -24l-0.5 -5t-4.5 -10q-13 -14 -27 -46t-26 -73t-20 -82t-10 -74v-27t2.5 -19.5t8.5 -18.5t24.5 -20t33.5 -7zM475 714q-7 7 -10.5 17.5t-2.5 35.5q1 5 13.5 20t30 34t35.5 34t29 19q13 5 27.5 -10t15.5 -38q2 -8 -9 -20.5t-28 -26t-33 -27t-24 -24.5
q-10 -16 -21.5 -18.5t-22.5 4.5z" />
    <glyph glyph-name="Ocircumflex" unicode="&#xd4;" horiz-adv-x="496" 
d="M183 -35q-37 27 -58.5 50.5t-23.5 45.5q-2 18 0.5 49t6.5 61t7 45q5 5 4.5 13.5l-0.5 8.5q-1 5 7 26.5t15 55.5q20 60 38.5 100.5t36.5 69.5t36 53q41 42 77.5 67t67.5 39q20 12 37 19t28 2q56 -12 95 -49t52 -107q7 -44 8.5 -79.5t-5.5 -70t-25.5 -75.5t-51.5 -96
q-41 -81 -89.5 -135.5t-97 -82.5t-92 -30.5t-73.5 20.5zM263 31q23 3 37.5 9t30.5 23t45 50q26 30 43.5 51t30 43t24 52.5t25.5 78.5q8 30 11.5 44.5t4.5 24.5t0.5 27.5t-0.5 53.5q-1 17 -7 38.5t-14 30.5q-10 11 -30 19t-42 -2q-12 -5 -30 -20.5t-37 -36.5t-36 -42t-27 -38
t-10 -24l-0.5 -5t-4.5 -10q-13 -14 -27 -46t-26 -73t-20 -82t-10 -74v-27t2.5 -19.5t8.5 -18.5t24.5 -20t33.5 -7zM462 727q-17 -17 -31 -11.5t-18.5 22t4.5 30.5q3 4 15.5 15.5t29.5 26.5t33.5 27.5t26.5 18.5q13 11 26.5 8.5t19.5 -11.5q12 -10 29 -26.5t33 -33t23 -26.5
q6 -12 2.5 -25t-13.5 -21t-23 -6.5t-26 18.5q-7 6 -22 21.5t-30 28.5q-12 -7 -28 -18t-30 -21.5t-21 -16.5z" />
    <glyph glyph-name="Otilde" unicode="&#xd5;" horiz-adv-x="496" 
d="M183 -35q-37 27 -58.5 50.5t-23.5 45.5q-2 18 0.5 49t6.5 61t7 45q5 5 4.5 13.5l-0.5 8.5q-1 5 7 26.5t15 55.5q20 60 38.5 100.5t36.5 69.5t36 53q41 42 77.5 67t67.5 39q20 12 37 19t28 2q56 -12 95 -49t52 -107q7 -44 8.5 -79.5t-5.5 -70t-25.5 -75.5t-51.5 -96
q-41 -81 -89.5 -135.5t-97 -82.5t-92 -30.5t-73.5 20.5zM263 31q23 3 37.5 9t30.5 23t45 50q26 30 43.5 51t30 43t24 52.5t25.5 78.5q8 30 11.5 44.5t4.5 24.5t0.5 27.5t-0.5 53.5q-1 17 -7 38.5t-14 30.5q-10 11 -30 19t-42 -2q-12 -5 -30 -20.5t-37 -36.5t-36 -42t-27 -38
t-10 -24l-0.5 -5t-4.5 -10q-13 -14 -27 -46t-26 -73t-20 -82t-10 -74v-27t2.5 -19.5t8.5 -18.5t24.5 -20t33.5 -7zM566 726q-14 0 -30 8t-34 23q-9 5 -22.5 18.5t-25.5 13.5q-10 0 -16.5 -8t-12 -16t-16.5 -10q-3 -7 -6.5 -13.5t-11.5 -1.5q-10 2 -17 10t-10 27
q8 23 25 43.5t42 33.5q32 8 49.5 0t33.5 -25q24 -19 37 -22t32 5q15 4 29.5 13t35.5 17q7 3 14.5 -4t12 -17t3.5 -16q-1 -12 -10 -22.5t-18 -15.5q-30 -17 -47 -26t-25 -12t-12 -3z" />
    <glyph glyph-name="Odieresis" unicode="&#xd6;" horiz-adv-x="496" 
d="M183 -35q-37 27 -58.5 50.5t-23.5 45.5q-2 18 0.5 49t6.5 61t7 45q5 5 4.5 13.5l-0.5 8.5q-1 5 7 26.5t15 55.5q20 60 38.5 100.5t36.5 69.5t36 53q41 42 77.5 67t67.5 39q20 12 37 19t28 2q56 -12 95 -49t52 -107q7 -44 8.5 -79.5t-5.5 -70t-25.5 -75.5t-51.5 -96
q-41 -81 -89.5 -135.5t-97 -82.5t-92 -30.5t-73.5 20.5zM263 31q23 3 37.5 9t30.5 23t45 50q26 30 43.5 51t30 43t24 52.5t25.5 78.5q8 30 11.5 44.5t4.5 24.5t0.5 27.5t-0.5 53.5q-1 17 -7 38.5t-14 30.5q-10 11 -30 19t-42 -2q-12 -5 -30 -20.5t-37 -36.5t-36 -42t-27 -38
t-10 -24l-0.5 -5t-4.5 -10q-13 -14 -27 -46t-26 -73t-20 -82t-10 -74v-27t2.5 -19.5t8.5 -18.5t24.5 -20t33.5 -7zM569 746q-7 7 -12 22.5t-4 19.5q2 5 8 21t10 20q5 7 16 18.5t15 12.5q11 12 27 6t24 -22q19 -23 12 -44.5t-27 -41.5q-20 -31 -37.5 -29t-31.5 17zM425 736
q-14 10 -21 27t-5 24q2 14 13 34t18 26q3 2 9.5 7t11.5 8q13 9 24.5 3.5t20 -17t11.5 -22.5q7 -13 1.5 -29.5t-21.5 -33.5q-16 -21 -30.5 -29.5t-31.5 2.5z" />
    <glyph glyph-name="multiply" unicode="&#xd7;" horiz-adv-x="446" 
d="M440 77q-2 -18 -17.5 -15t-44.5 26q-11 7 -30.5 23.5t-43 37.5t-47 43t-43 41t-31.5 30q-18 18 -28.5 36t-11.5 34q0 21 17.5 27t30.5 -12q5 -5 25 -22.5t34 -29.5q3 -3 17.5 -16.5t34.5 -33t41 -39.5t38.5 -37t25.5 -25q5 -4 10.5 -10.5t10.5 -17.5q11 -10 12.5 -21
t-0.5 -19zM160 61q-18 2 -15 17.5t26 43.5q8 12 24 31.5t37 43t43 47t41 43t30 30.5q18 18 36 29t34 11q21 0 27 -17t-12 -30q-5 -6 -22.5 -26t-29.5 -34q-3 -3 -16.5 -17.5t-33 -34.5t-39.5 -41t-37 -38.5t-25 -25.5q-4 -4 -10.5 -10t-17.5 -11q-10 -11 -21 -12t-19 1z" />
    <glyph glyph-name="Oslash" unicode="&#xd8;" horiz-adv-x="496" 
d="M122 -101q-20 1 -32 15t-4.5 46t44.5 86q8 11 14.5 20.5t8.5 16.5q4 6 19 30t37 57.5t46.5 70t46 69t36 54t16.5 23.5q4 -1 9 4.5t7 12.5q3 8 9 16.5t11 9.5q2 5 6.5 10.5t5.5 9.5t4.5 7t4.5 7q10 10 30 34.5t43 55t45 60t36.5 50.5t16.5 26q5 15 21 9q3 2 17.5 2
t18.5 -1l2 -4.5t8 -15.5q6 -10 5 -23.5t-6 -24.5q-4 -13 -12.5 -22t-25.5 -24t-47 -47q-15 -17 -28 -29.5t-13 -16.5q-2 -4 -3 -5.5t-8 -12.5q-6 -6 -18 -20.5t-24 -30.5l-21 -28t-9 -14q-2 -3 -3.5 -7t-7.5 -6q-3 2 -5.5 -3.5l-2.5 -5.5q0 -4 -8.5 -16.5t-22.5 -29.5
q-11 -16 -32 -47t-47.5 -71t-54.5 -82t-52 -79.5t-40 -63.5t-19 -35q-7 -22 -10.5 -28.5t-11.5 -8.5zM177 -35q-37 27 -58.5 50.5t-23.5 45.5q-2 18 0.5 49t6.5 61t7 45q5 5 4.5 13.5l-0.5 8.5q-1 5 7 26.5t15 55.5q20 60 38.5 100.5t36.5 69.5t36 53q41 42 77.5 67t67.5 39
q20 12 37 19t28 2q56 -12 95 -49t52 -107q7 -44 8.5 -79.5t-5.5 -70t-25.5 -75.5t-51.5 -96q-41 -81 -89.5 -135.5t-97 -82.5t-92 -30.5t-73.5 20.5zM257 31q23 3 37.5 9t30.5 23t45 50q26 30 43.5 51t30 43t24 52.5t25.5 78.5q8 30 11.5 44.5t4.5 24.5t0.5 27.5t-0.5 53.5
q-1 17 -7 38.5t-14 30.5q-10 11 -30 19t-42 -2q-12 -5 -30 -20.5t-37 -36.5t-36 -42t-27 -38t-10 -24l-0.5 -5t-4.5 -10q-13 -14 -27 -46t-26 -73t-20 -82t-10 -74v-27t2.5 -19.5t8.5 -18.5t24.5 -20t33.5 -7z" />
    <glyph glyph-name="Ugrave" unicode="&#xd9;" horiz-adv-x="482" 
d="M229 -60q-52 14 -79.5 53t-30 108.5t18.5 173.5q7 35 20 80t30.5 92.5t37 92t38.5 78.5q23 41 40 55t33 12q24 -4 36.5 -19.5t12 -33t-17.5 -28.5q-11 -13 -28.5 -47.5t-35.5 -66.5q-20 -58 -35 -102.5t-25 -83.5t-18 -82q-9 -42 -14 -64.5t-6.5 -34t-2 -20t-0.5 -22.5
q8 -13 13 -23t13 -12q17 -8 34.5 -8t38.5 12q5 10 13 14l8 4q2 -5 4.5 -2.5t3.5 6.5q-1 4 2 7.5t7 7.5q8 3 20.5 17t24.5 31.5t20.5 32.5t8.5 19q0 5 4 9t9 10q5 5 20.5 32.5t34 64.5t33.5 68q3 11 11 35.5t17.5 56.5t18.5 64.5t16.5 58t9.5 37.5q2 13 6 21.5t5 12.5
q11 9 25 5t26.5 -11.5t18.5 -10.5q6 -8 5 -20t-6.5 -36.5t-15.5 -70.5q-21 -82 -50.5 -151t-63.5 -146v-0.5v-5.5q-12 -7 -19 -21q-5 -9 -8.5 -15.5t-8.5 -9.5q-3 -9 -6 -16l-3 -7q-1 -5 -7 -9l-12 -8q-5 -2 -6 -8t-4 -10q-22 -33 -54 -66.5t-65.5 -58.5t-60.5 -35
q-18 -7 -29.5 -8t-25.5 2zM523 704q-10 -5 -13.5 3.5t-6 22t-9.5 23.5q-10 19 -23.5 40t-19.5 40.5t5 31.5q22 23 33.5 24t21.5 -10q7 -4 16.5 -22.5t19 -41.5t16 -42t6.5 -25q1 -4 -14 -21t-32 -23z" />
    <glyph glyph-name="Uacute" unicode="&#xda;" horiz-adv-x="482" 
d="M229 -60q-52 14 -79.5 53t-30 108.5t18.5 173.5q7 35 20 80t30.5 92.5t37 92t38.5 78.5q23 41 40 55t33 12q24 -4 36.5 -19.5t12 -33t-17.5 -28.5q-11 -13 -28.5 -47.5t-35.5 -66.5q-20 -58 -35 -102.5t-25 -83.5t-18 -82q-9 -42 -14 -64.5t-6.5 -34t-2 -20t-0.5 -22.5
q8 -13 13 -23t13 -12q17 -8 34.5 -8t38.5 12q5 10 13 14l8 4q2 -5 4.5 -2.5t3.5 6.5q-1 4 2 7.5t7 7.5q8 3 20.5 17t24.5 31.5t20.5 32.5t8.5 19q0 5 4 9t9 10q5 5 20.5 32.5t34 64.5t33.5 68q3 11 11 35.5t17.5 56.5t18.5 64.5t16.5 58t9.5 37.5q2 13 6 21.5t5 12.5
q11 9 25 5t26.5 -11.5t18.5 -10.5q6 -8 5 -20t-6.5 -36.5t-15.5 -70.5q-21 -82 -50.5 -151t-63.5 -146v-0.5v-5.5q-12 -7 -19 -21q-5 -9 -8.5 -15.5t-8.5 -9.5q-3 -9 -6 -16l-3 -7q-1 -5 -7 -9l-12 -8q-5 -2 -6 -8t-4 -10q-22 -33 -54 -66.5t-65.5 -58.5t-60.5 -35
q-18 -7 -29.5 -8t-25.5 2zM460 714q-7 7 -10.5 17.5t-2.5 35.5q1 5 13.5 20t30 34t35.5 34t29 19q13 5 27.5 -10t15.5 -38q2 -8 -9 -20.5t-28 -26t-33 -27t-24 -24.5q-10 -16 -21.5 -18.5t-22.5 4.5z" />
    <glyph glyph-name="Ucircumflex" unicode="&#xdb;" horiz-adv-x="482" 
d="M229 -60q-52 14 -79.5 53t-30 108.5t18.5 173.5q7 35 20 80t30.5 92.5t37 92t38.5 78.5q23 41 40 55t33 12q24 -4 36.5 -19.5t12 -33t-17.5 -28.5q-11 -13 -28.5 -47.5t-35.5 -66.5q-20 -58 -35 -102.5t-25 -83.5t-18 -82q-9 -42 -14 -64.5t-6.5 -34t-2 -20t-0.5 -22.5
q8 -13 13 -23t13 -12q17 -8 34.5 -8t38.5 12q5 10 13 14l8 4q2 -5 4.5 -2.5t3.5 6.5q-1 4 2 7.5t7 7.5q8 3 20.5 17t24.5 31.5t20.5 32.5t8.5 19q0 5 4 9t9 10q5 5 20.5 32.5t34 64.5t33.5 68q3 11 11 35.5t17.5 56.5t18.5 64.5t16.5 58t9.5 37.5q2 13 6 21.5t5 12.5
q11 9 25 5t26.5 -11.5t18.5 -10.5q6 -8 5 -20t-6.5 -36.5t-15.5 -70.5q-21 -82 -50.5 -151t-63.5 -146v-0.5v-5.5q-12 -7 -19 -21q-5 -9 -8.5 -15.5t-8.5 -9.5q-3 -9 -6 -16l-3 -7q-1 -5 -7 -9l-12 -8q-5 -2 -6 -8t-4 -10q-22 -33 -54 -66.5t-65.5 -58.5t-60.5 -35
q-18 -7 -29.5 -8t-25.5 2zM447 727q-17 -17 -31 -11.5t-18.5 22t4.5 30.5q3 4 15.5 15.5t29.5 26.5t33.5 27.5t26.5 18.5q13 11 26.5 8.5t19.5 -11.5q12 -10 29 -26.5t33 -33t23 -26.5q6 -12 2.5 -25t-13.5 -21t-23 -6.5t-26 18.5q-7 6 -22 21.5t-30 28.5q-12 -7 -28 -18
t-30 -21.5t-21 -16.5z" />
    <glyph glyph-name="Udieresis" unicode="&#xdc;" horiz-adv-x="482" 
d="M229 -60q-52 14 -79.5 53t-30 108.5t18.5 173.5q7 35 20 80t30.5 92.5t37 92t38.5 78.5q23 41 40 55t33 12q24 -4 36.5 -19.5t12 -33t-17.5 -28.5q-11 -13 -28.5 -47.5t-35.5 -66.5q-20 -58 -35 -102.5t-25 -83.5t-18 -82q-9 -42 -14 -64.5t-6.5 -34t-2 -20t-0.5 -22.5
q8 -13 13 -23t13 -12q17 -8 34.5 -8t38.5 12q5 10 13 14l8 4q2 -5 4.5 -2.5t3.5 6.5q-1 4 2 7.5t7 7.5q8 3 20.5 17t24.5 31.5t20.5 32.5t8.5 19q0 5 4 9t9 10q5 5 20.5 32.5t34 64.5t33.5 68q3 11 11 35.5t17.5 56.5t18.5 64.5t16.5 58t9.5 37.5q2 13 6 21.5t5 12.5
q11 9 25 5t26.5 -11.5t18.5 -10.5q6 -8 5 -20t-6.5 -36.5t-15.5 -70.5q-21 -82 -50.5 -151t-63.5 -146v-0.5v-5.5q-12 -7 -19 -21q-5 -9 -8.5 -15.5t-8.5 -9.5q-3 -9 -6 -16l-3 -7q-1 -5 -7 -9l-12 -8q-5 -2 -6 -8t-4 -10q-22 -33 -54 -66.5t-65.5 -58.5t-60.5 -35
q-18 -7 -29.5 -8t-25.5 2zM554 746q-7 7 -12 22.5t-4 19.5q2 5 8 21t10 20q5 7 16 18.5t15 12.5q11 12 27 6t24 -22q19 -23 12 -44.5t-27 -41.5q-20 -31 -37.5 -29t-31.5 17zM410 736q-14 10 -21 27t-5 24q2 14 13 34t18 26q3 2 9.5 7t11.5 8q13 9 24.5 3.5t20 -17
t11.5 -22.5q7 -13 1.5 -29.5t-21.5 -33.5q-16 -21 -30.5 -29.5t-31.5 2.5z" />
    <glyph glyph-name="Yacute" unicode="&#xdd;" horiz-adv-x="504" 
d="M314 259l-35 44q-20 30 -32 56t-17 64q-7 24 -9 45t-1.5 48.5t1.5 68.5q1 38 12 62.5t15 32.5q21 18 34.5 7t20 -37t5.5 -55q3 -107 13.5 -162t26.5 -68q12 -3 21 2.5t23.5 22t40.5 43.5q28 29 56 61.5t53.5 62.5t46 52t32.5 29q4 6 14 10.5t19.5 7l9.5 2.5q8 -2 9 -12.5
t8 -20.5q2 -4 9 -12t6 -13q0 -3 -9 -13.5t-19 -20.5l-15 -15q-13 -11 -40.5 -38.5t-56.5 -59t-49 -56.5q-44 -51 -78.5 -88t-42.5 -44q-1 -2 -13 -2.5t-17 -8.5zM258 -76q-4 1 -16.5 9t-22.5 15q-7 8 -8.5 17t2.5 24t11 42q1 23 9.5 56t20.5 55q0 11 5 30t12.5 39.5
t13.5 35.5l18 52l40 34l52 -36q-4 -6 -7 -14t-8 -27t-15 -59q-8 -27 -17.5 -58t-17.5 -58t-14 -44q-12 -45 -21.5 -71t-18 -35.5t-18.5 -6.5zM457 715q-7 7 -10.5 17.5t-2.5 35.5q1 5 13.5 20t30 34t35.5 34t29 19q13 5 27.5 -10t15.5 -38q2 -8 -9 -20.5t-28 -26t-33 -27
t-24 -24.5q-10 -16 -21.5 -18.5t-22.5 4.5z" />
    <glyph glyph-name="Thorn" unicode="&#xde;" horiz-adv-x="472" 
d="M123 -87q-5 3 -16 7.5t-20 11.5t-10 16q-1 3 -1.5 9t2.5 20t9 38q1 3 7.5 25t15.5 52.5t18 59.5t15.5 48t7.5 16q1 5 6.5 21t9.5 20q1 9 5.5 23.5t11 28t12.5 18.5q0 6 5 20t12 29.5t13 26.5t7 11l1.5 6t11.5 19l1.5 10t9.5 16q4 15 5 20.5t-3 7.5q-9 26 16 27q6 0 14 17
q2 4 4 5q13 34 25 67t19.5 56t7.5 28q0 8 15 12t23 4q3 3 7.5 4t8.5 1l16 -16q8 -7 9.5 -16t1.5 -21t-1.5 -19t-8 -21.5t-23.5 -49.5q14 2 23.5 4l9.5 2q14 0 36.5 -2t35.5 -5q36 -17 58 -49t25 -55q2 -12 -4 -37.5t-15.5 -54.5t-20.5 -52t-20 -30q5 1 -4 -11t-22.5 -24.5
t-20.5 -14.5l-7 -12.5t-20 -19.5q-12 -7 -25.5 -16.5t-21.5 -21.5q0 8 -5 5.5t-11 -8t-10 -7.5q-45 -27 -87 -35q-5 -4 -15.5 -5t-20.5 -1l-34 5l-16 -42q-7 -31 -15 -56t-15 -55q-3 -18 -12.5 -33t-20 -23t-15.5 -4zM252 209q49 -1 80 16t58 43q7 7 19.5 21t26 30.5
t22.5 29.5q14 20 20.5 44t7 45t-4.5 30q-11 17 -31.5 20t-43 -2t-39.5 -15q-5 -2 -15.5 -20.5t-24 -46.5t-27.5 -59.5t-25.5 -60.5t-17.5 -49.5t-5 -25.5z" />
    <glyph glyph-name="germandbls" unicode="&#xdf;" horiz-adv-x="398" 
d="M79 -229q-16 4 -35 20t-22 33q2 2 1 17.5t-1 19.5q5 9 5.5 25t-0.5 38q6 15 7.5 27t1.5 17l4 17t10 41t12.5 47t10.5 36q3 14 7 30.5t8 22.5q5 14 10 30t16 45q-1 8 4 26t14 39t19 36q5 31 15.5 53.5l10.5 22.5l4 -4l-4 4q-3 4 -2.5 11t1.5 14q12 7 14.5 14.5l2.5 7.5
q0 2 11 17t26.5 36t31.5 41t25 31q20 19 45 39t45 25q13 3 29 4t28.5 1.5t13.5 0.5q5 1 20 -7t30.5 -19.5t20.5 -23.5q14 -36 8 -82t-38 -88q-12 -19 -24 -29t-13 -10l-8.5 -8t-13.5 -22q-10 -9 -16 -17.5t-9 -8.5t-8.5 -8t-9 -17.5t-0.5 -15.5l-2.5 -3l-2.5 -3
q-7 0 -3.5 -12t11 -26.5t11.5 -23.5q7 -1 14 -14t15 -35q2 -27 4 -39t3 -30q-3 -29 -20 -52t-41 -37t-50 -16q-26 -4 -39 -0.5t-36 10.5q-28 11 -42.5 35t-4.5 43q2 4 5.5 5t3.5 0q8 0 9.5 0.5l1.5 0.5h8.5t21.5 -1q15 -1 21.5 -4t10.5 -3t10 9q11 2 18.5 2.5l7.5 0.5
q1 0 1 9q-1 1 0 1l10.5 5t7.5 15q-1 14 -3 25t-16 28q-8 23 -20 42.5t-21.5 32t-11.5 13.5q-5 6 -2 16t5 16t4 8.5l2 2.5q0 1 12 16t28.5 34.5t30 36.5t16.5 22q17 11 33 26t16 19q-5 14 14 38q14 23 18 33.5t-2 23.5q-16 10 -37.5 4t-46.5 -35q-7 -8 -19 -22t-14 -15
q-14 -18 -33.5 -51.5t-38 -72.5t-30.5 -75q4 -7 -2 -22t-16 -23q2 -14 1 -25.5l-1 -11.5q0 -7 -3 -12l-3 -5h-6t-1 -1l-3 -14t-11 -34q-10 -28 -15 -42.5t-7.5 -29.5t-6.5 -45q-13 -40 -19.5 -67t-10.5 -50q-1 -4 -1 -13.5t2 -15.5q-2 -7 -4.5 -22.5t-4.5 -33t-2 -29.5
q0 -19 -7.5 -28t-24.5 -8z" />
    <glyph glyph-name="agrave" unicode="&#xe0;" horiz-adv-x="437" 
d="M120 21q-4 8 -17.5 16t-13.5 12t-4.5 12.5t-8.5 12.5q-5 6 3 29.5t24 57.5t35 69q8 8 16 21t12 17q0 4 3 7.5t7 3.5l8 16q2 4 12.5 16t25.5 26.5t30.5 27.5t25.5 19q21 14 43.5 13t38.5 -14q3 -3 13.5 -12t24 -20t23.5 -20l37 -33l-17 -50q-13 -40 -6.5 -70t18.5 -52
q5 -11 13.5 -17t22.5 -8q8 -1 15 -6t7 -16q0 -24 -8.5 -34.5t-18.5 -12.5q-33 -4 -63 7t-54 57q-4 6 -10.5 22.5t-7.5 21.5q-4 -5 -10.5 -12.5t-12.5 -13.5q-71 -72 -121.5 -93.5t-84.5 0.5zM175 104q7 -1 22 7.5t40 28.5q34 29 56 48t43 49l22 36q-10 23 -18 30t-16 7
q-13 0 -31 -16.5t-40.5 -48t-50.5 -78.5q-13 -22 -20 -42.5zM384 426q-13 -10 -20 -7t-12 27q-4 15 -15 33.5t-22 37.5t-15.5 35t3.5 26q5 8 18 19t28 7q9 -3 19.5 -18t20 -36.5t17 -44t12.5 -40.5q1 -3 -5.5 -11.5t-14.5 -16.5t-14 -11z" />
    <glyph glyph-name="aacute" unicode="&#xe1;" horiz-adv-x="437" 
d="M120 21q-4 8 -17.5 16t-13.5 12t-4.5 12.5t-8.5 12.5q-5 6 3 29.5t24 57.5t35 69q8 8 16 21t12 17q0 4 3 7.5t7 3.5l8 16q2 4 12.5 16t25.5 26.5t30.5 27.5t25.5 19q21 14 43.5 13t38.5 -14q3 -3 13.5 -12t24 -20t23.5 -20l37 -33l-17 -50q-13 -40 -6.5 -70t18.5 -52
q5 -11 13.5 -17t22.5 -8q8 -1 15 -6t7 -16q0 -24 -8.5 -34.5t-18.5 -12.5q-33 -4 -63 7t-54 57q-4 6 -10.5 22.5t-7.5 21.5q-4 -5 -10.5 -12.5t-12.5 -13.5q-71 -72 -121.5 -93.5t-84.5 0.5zM175 104q7 -1 22 7.5t40 28.5q34 29 56 48t43 49l22 36q-10 23 -18 30t-16 7
q-13 0 -31 -16.5t-40.5 -48t-50.5 -78.5q-13 -22 -20 -42.5zM385 435q-9 5 -12 21t-1 32q1 5 13.5 20.5t31 34.5t37 34.5t30.5 18.5q14 1 26 -13.5t13 -35.5q0 -11 -10 -22t-25 -22.5t-30.5 -24t-25.5 -25.5q-10 -16 -22 -21t-25 3z" />
    <glyph glyph-name="acircumflex" unicode="&#xe2;" horiz-adv-x="437" 
d="M120 21q-4 8 -17.5 16t-13.5 12t-4.5 12.5t-8.5 12.5q-5 6 3 29.5t24 57.5t35 69q8 8 16 21t12 17q0 4 3 7.5t7 3.5l8 16q2 4 12.5 16t25.5 26.5t30.5 27.5t25.5 19q21 14 43.5 13t38.5 -14q3 -3 13.5 -12t24 -20t23.5 -20l37 -33l-17 -50q-13 -40 -6.5 -70t18.5 -52
q5 -11 13.5 -17t22.5 -8q8 -1 15 -6t7 -16q0 -24 -8.5 -34.5t-18.5 -12.5q-33 -4 -63 7t-54 57q-4 6 -10.5 22.5t-7.5 21.5q-4 -5 -10.5 -12.5t-12.5 -13.5q-71 -72 -121.5 -93.5t-84.5 0.5zM175 104q7 -1 22 7.5t40 28.5q34 29 56 48t43 49l22 36q-10 23 -18 30t-16 7
q-13 0 -31 -16.5t-40.5 -48t-50.5 -78.5q-13 -22 -20 -42.5zM301 441q-17 -17 -31 -11t-18.5 22.5t6.5 30.5q3 4 15 15.5t28 25.5t32 26t26 18q17 13 30.5 10t19.5 -12q12 -10 29.5 -27.5l32.5 -32.5t17 -18q11 -12 9.5 -26t-11.5 -24t-23.5 -10t-27.5 16q-7 9 -23 24.5
t-31 28.5q-12 -7 -28.5 -18t-30.5 -21.5t-21 -16.5z" />
    <glyph glyph-name="atilde" unicode="&#xe3;" horiz-adv-x="437" 
d="M120 21q-4 8 -17.5 16t-13.5 12t-4.5 12.5t-8.5 12.5q-5 6 3 29.5t24 57.5t35 69q8 8 16 21t12 17q0 4 3 7.5t7 3.5l8 16q2 4 12.5 16t25.5 26.5t30.5 27.5t25.5 19q21 14 43.5 13t38.5 -14q3 -3 13.5 -12t24 -20t23.5 -20l37 -33l-17 -50q-13 -40 -6.5 -70t18.5 -52
q5 -11 13.5 -17t22.5 -8q8 -1 15 -6t7 -16q0 -24 -8.5 -34.5t-18.5 -12.5q-33 -4 -63 7t-54 57q-4 6 -10.5 22.5t-7.5 21.5q-4 -5 -10.5 -12.5t-12.5 -13.5q-71 -72 -121.5 -93.5t-84.5 0.5zM175 104q7 -1 22 7.5t40 28.5q34 29 56 48t43 49l22 36q-10 23 -18 30t-16 7
q-13 0 -31 -16.5t-40.5 -48t-50.5 -78.5q-13 -22 -20 -42.5zM431 416q-20 0 -32.5 7.5t-31.5 20.5q-9 5 -24 20t-27 15q-10 0 -16.5 -8t-12.5 -16.5t-17 -10.5q-1 -5 -6 -12.5t-7 -2.5q-15 2 -22.5 12.5t-7.5 22.5q0 9 15.5 35.5t49.5 43.5q12 5 33.5 4t37.5 -16
q23 -21 39.5 -30.5t35.5 -1.5q15 4 33.5 14.5t39.5 18.5q7 3 14 -3.5t11 -16.5t3 -16q0 -4 -4.5 -16.5t-23.5 -22.5q-30 -17 -46 -26t-23 -12t-11 -3z" />
    <glyph glyph-name="adieresis" unicode="&#xe4;" horiz-adv-x="437" 
d="M120 21q-4 8 -17.5 16t-13.5 12t-4.5 12.5t-8.5 12.5q-5 6 3 29.5t24 57.5t35 69q8 8 16 21t12 17q0 4 3 7.5t7 3.5l8 16q2 4 12.5 16t25.5 26.5t30.5 27.5t25.5 19q21 14 43.5 13t38.5 -14q3 -3 13.5 -12t24 -20t23.5 -20l37 -33l-17 -50q-13 -40 -6.5 -70t18.5 -52
q5 -11 13.5 -17t22.5 -8q8 -1 15 -6t7 -16q0 -24 -8.5 -34.5t-18.5 -12.5q-33 -4 -63 7t-54 57q-4 6 -10.5 22.5t-7.5 21.5q-4 -5 -10.5 -12.5t-12.5 -13.5q-71 -72 -121.5 -93.5t-84.5 0.5zM175 104q7 -1 22 7.5t40 28.5q34 29 56 48t43 49l22 36q-10 23 -18 30t-16 7
q-13 0 -31 -16.5t-40.5 -48t-50.5 -78.5q-13 -22 -20 -42.5zM279 429q-10 8 -15.5 24.5t-3.5 22.5q2 7 9.5 25.5t22.5 31.5q4 3 8.5 8.5t9.5 6.5q14 11 28.5 3.5t25.5 -27.5q11 -23 6.5 -38t-26.5 -41q-19 -25 -34.5 -27.5t-30.5 11.5zM434 429q-10 8 -15.5 24.5t-3.5 22.5
q2 7 9.5 25.5t22.5 31.5q4 3 8.5 8.5t9.5 6.5q14 11 28.5 3.5t25.5 -27.5q11 -23 6.5 -38t-26.5 -41q-19 -25 -34.5 -27.5t-30.5 11.5z" />
    <glyph glyph-name="aring" unicode="&#xe5;" horiz-adv-x="437" 
d="M120 21q-4 8 -17.5 16t-13.5 12t-4.5 12.5t-8.5 12.5q-5 6 3 29.5t24 57.5t35 69q8 8 16 21t12 17q0 4 3 7.5t7 3.5l8 16q2 4 12.5 16t25.5 26.5t30.5 27.5t25.5 19q21 14 43.5 13t38.5 -14q3 -3 13.5 -12t24 -20t23.5 -20l37 -33l-17 -50q-13 -40 -6.5 -70t18.5 -52
q5 -11 13.5 -17t22.5 -8q8 -1 15 -6t7 -16q0 -24 -8.5 -34.5t-18.5 -12.5q-33 -4 -63 7t-54 57q-4 6 -10.5 22.5t-7.5 21.5q-4 -5 -10.5 -12.5t-12.5 -13.5q-71 -72 -121.5 -93.5t-84.5 0.5zM175 104q7 -1 22 7.5t40 28.5q34 29 56 48t43 49l22 36q-10 23 -18 30t-16 7
q-13 0 -31 -16.5t-40.5 -48t-50.5 -78.5q-13 -22 -20 -42.5zM405 400q-39 0 -56 23t-21 56q0 22 9.5 47.5t27.5 44t42 18.5q37 0 62 -16.5t25 -50.5q0 -28 -11 -56t-30.5 -47t-47.5 -19zM404 458q16 0 25 10t9 30q-1 11 -4.5 21t-17.5 10q-33 0 -33 -42q0 -9 7.5 -19
t13.5 -10z" />
    <glyph glyph-name="ae" unicode="&#xe6;" horiz-adv-x="574" 
d="M118 19q-8 10 -22 18.5t-13 12.5q0 4 -3.5 10.5t-8.5 14.5q-4 7 2 27.5t22 54.5t43 79q11 10 18 27t14 16q1 2 2.5 4.5t2.5 4.5l1 2q3 10 12.5 21.5t22 23t25.5 21.5t23 16q27 17 41.5 22t25.5 2t25 -11q6 -4 19 -15t28 -24t25 -22l29 -26l-17 -54q1 -22 -7 -39.5
t-24 -48.5l-41 -65l-11 24l-5 12.5t-4 12.5q-4 -5 -15 -17.5t-17 -18.5q-49 -48 -85.5 -69.5t-63 -23.5t-44.5 8zM169 105q3 -2 15 2.5t32 18.5q20 19 44.5 38.5t46.5 41.5t32 46l13 21q-10 23 -18 30t-16 7q-13 0 -34 -19.5t-43.5 -52t-42.5 -72.5q-10 -20 -19.5 -40.5z
M531 16q-34 -17 -67 -16t-59 13.5t-40 31.5q-22 31 -22.5 62t1.5 69q4 42 26 83.5t52.5 74.5t58.5 46q23 12 44 15t38 1q26 -2 45.5 -11.5t26.5 -19.5q16 -17 20 -31.5t2.5 -25.5t-1.5 -21q-10 -30 -36.5 -62t-61.5 -44q-22 -7 -41.5 -8.5t-50.5 5.5q-23 5 -33 -1t-10 -30
q0 -29 9.5 -44.5t26.5 -18.5q10 -2 22 -0.5t23 4.5q14 5 23.5 12t16.5 14t12 11t10.5 6t10.5 2q7 0 18.5 -10t15.5 -24q-2 -12 -15 -29t-30.5 -32t-34.5 -22zM520 242q8 1 23 13t27 25.5t12 18.5q0 11 -12.5 19t-33.5 6q-13 -3 -25.5 -13t-24 -22t-19 -22t-9.5 -14
q2 -5 13.5 -8t25.5 -3.5t23 0.5z" />
    <glyph glyph-name="ccedilla" unicode="&#xe7;" horiz-adv-x="355" 
d="M217 -4q-29 -5 -57.5 5t-47 32.5t-18.5 54.5q-3 30 5.5 71.5t26 83.5t40.5 71q20 24 40 44t36 27q14 6 34.5 9.5t28.5 3.5q16 -4 35.5 -13t19.5 -21l2.5 -2.5l2.5 -2.5q6 0 13.5 -14.5t11.5 -33t-2 -29.5q-4 -19 -15.5 -37t-19.5 -18q-4 0 -7.5 -0.5t-3.5 -5.5t-10.5 -5
t-21.5 4t-14 12q0 5 2 13t6 27q6 28 1 37.5t-25 1.5q-25 -14 -41 -32.5t-28.5 -51.5t-27.5 -92q-6 -23 -1.5 -36t7.5 -14q14 -4 30.5 -1.5t27.5 8.5q16 8 28.5 17.5t27.5 20.5q5 3 9 11.5t12 12.5q8 12 20.5 12.5t24.5 0.5q8 -2 17 -10t13.5 -15.5t-1.5 -10.5
q-4 0 -4.5 -2.5l-0.5 -2.5q2 -4 -8.5 -18t-26.5 -30t-30.5 -27.5t-20.5 -11.5q-10 0 -10 -6q0 -2 -14.5 -10t-33 -16t-32.5 -11zM193 -193q-15 -3 -40 1.5t-46.5 10.5t-27.5 8q-12 4 -18 15.5t-5 23.5t11 18.5t32 0.5q16 -4 34.5 -10.5t33.5 -6.5t22 14q7 11 -1 22.5
t-19 23.5q-7 9 -13.5 15.5t-17.5 16.5q-8 11 -9.5 25.5t15.5 32.5t65 42l56 -30q-25 -12 -40.5 -23t-15.5 -24q14 -20 31 -38.5t22 -38.5q6 -24 -3.5 -45t-27.5 -35.5t-38 -18.5z" />
    <glyph glyph-name="egrave" unicode="&#xe8;" horiz-adv-x="325" 
d="M289 20q-30 -17 -63.5 -19.5t-62.5 9t-47 34.5q-10 13 -19 41.5t-3 77.5q6 46 28.5 93t55.5 83t72 49q14 5 28.5 7.5t38.5 0.5q23 -3 41 -11.5t26 -18.5q16 -16 21 -31t4 -29q-5 -32 -28.5 -69t-65.5 -55q-17 -7 -40 -9t-63 6q-24 5 -31.5 -5t-6.5 -39q2 -18 8.5 -31.5
t24.5 -18.5q23 -4 33 -0.5t25 10.5q8 5 15.5 11l15 12t12.5 9q5 4 10 5t10 1q11 -1 21 -12t13 -21q0 -8 -10 -22.5t-26.5 -30t-36.5 -27.5zM276 243q7 3 20.5 14t24.5 23.5t11 19.5q0 11 -14.5 19t-37.5 3q-8 -2 -19 -11t-22 -20.5t-19 -22t-11 -16.5q4 -5 16 -8t26.5 -3
t24.5 2zM326 426q-13 -10 -20 -7t-12 27q-4 15 -15 33.5t-22 37.5t-15.5 35t3.5 26q5 8 18 19t28 7q9 -3 19.5 -18t20 -36.5t17 -44t12.5 -40.5q1 -3 -5.5 -11.5t-14.5 -16.5t-14 -11z" />
    <glyph glyph-name="eacute" unicode="&#xe9;" horiz-adv-x="325" 
d="M289 20q-30 -17 -63.5 -19.5t-62.5 9t-47 34.5q-10 13 -19 41.5t-3 77.5q6 46 28.5 93t55.5 83t72 49q14 5 28.5 7.5t38.5 0.5q23 -3 41 -11.5t26 -18.5q16 -16 21 -31t4 -29q-5 -32 -28.5 -69t-65.5 -55q-17 -7 -40 -9t-63 6q-24 5 -31.5 -5t-6.5 -39q2 -18 8.5 -31.5
t24.5 -18.5q23 -4 33 -0.5t25 10.5q8 5 15.5 11l15 12t12.5 9q5 4 10 5t10 1q11 -1 21 -12t13 -21q0 -8 -10 -22.5t-26.5 -30t-36.5 -27.5zM276 243q7 3 20.5 14t24.5 23.5t11 19.5q0 11 -14.5 19t-37.5 3q-8 -2 -19 -11t-22 -20.5t-19 -22t-11 -16.5q4 -5 16 -8t26.5 -3
t24.5 2zM327 435q-9 5 -12 21t-1 32q1 5 13.5 20.5t31 34.5t37 34.5t30.5 18.5q14 1 26 -13.5t13 -35.5q0 -11 -10 -22t-25 -22.5t-30.5 -24t-25.5 -25.5q-10 -16 -22 -21t-25 3z" />
    <glyph glyph-name="ecircumflex" unicode="&#xea;" horiz-adv-x="325" 
d="M289 20q-30 -17 -63.5 -19.5t-62.5 9t-47 34.5q-10 13 -19 41.5t-3 77.5q6 46 28.5 93t55.5 83t72 49q14 5 28.5 7.5t38.5 0.5q23 -3 41 -11.5t26 -18.5q16 -16 21 -31t4 -29q-5 -32 -28.5 -69t-65.5 -55q-17 -7 -40 -9t-63 6q-24 5 -31.5 -5t-6.5 -39q2 -18 8.5 -31.5
t24.5 -18.5q23 -4 33 -0.5t25 10.5q8 5 15.5 11l15 12t12.5 9q5 4 10 5t10 1q11 -1 21 -12t13 -21q0 -8 -10 -22.5t-26.5 -30t-36.5 -27.5zM276 243q7 3 20.5 14t24.5 23.5t11 19.5q0 11 -14.5 19t-37.5 3q-8 -2 -19 -11t-22 -20.5t-19 -22t-11 -16.5q4 -5 16 -8t26.5 -3
t24.5 2zM243 441q-17 -17 -31 -11t-18.5 22.5t6.5 30.5q3 4 15 15.5t28 25.5t32 26t26 18q17 13 30.5 10t19.5 -12q12 -10 29.5 -27.5l32.5 -32.5t17 -18q11 -12 9.5 -26t-11.5 -24t-23.5 -10t-27.5 16q-7 9 -23 24.5t-31 28.5q-12 -7 -28.5 -18t-30.5 -21.5t-21 -16.5z" />
    <glyph glyph-name="edieresis" unicode="&#xeb;" horiz-adv-x="325" 
d="M289 20q-30 -17 -63.5 -19.5t-62.5 9t-47 34.5q-10 13 -19 41.5t-3 77.5q6 46 28.5 93t55.5 83t72 49q14 5 28.5 7.5t38.5 0.5q23 -3 41 -11.5t26 -18.5q16 -16 21 -31t4 -29q-5 -32 -28.5 -69t-65.5 -55q-17 -7 -40 -9t-63 6q-24 5 -31.5 -5t-6.5 -39q2 -18 8.5 -31.5
t24.5 -18.5q23 -4 33 -0.5t25 10.5q8 5 15.5 11l15 12t12.5 9q5 4 10 5t10 1q11 -1 21 -12t13 -21q0 -8 -10 -22.5t-26.5 -30t-36.5 -27.5zM276 243q7 3 20.5 14t24.5 23.5t11 19.5q0 11 -14.5 19t-37.5 3q-8 -2 -19 -11t-22 -20.5t-19 -22t-11 -16.5q4 -5 16 -8t26.5 -3
t24.5 2zM221 429q-10 8 -15.5 24.5t-3.5 22.5q2 7 9.5 25.5t22.5 31.5q4 3 8.5 8.5t9.5 6.5q14 11 28.5 3.5t25.5 -27.5q11 -23 6.5 -38t-26.5 -41q-19 -25 -34.5 -27.5t-30.5 11.5zM376 429q-10 8 -15.5 24.5t-3.5 22.5q2 7 9.5 25.5t22.5 31.5q4 3 8.5 8.5t9.5 6.5
q14 11 28.5 3.5t25.5 -27.5q11 -23 6.5 -38t-26.5 -41q-19 -25 -34.5 -27.5t-30.5 11.5z" />
    <glyph glyph-name="igrave" unicode="&#xec;" horiz-adv-x="187" 
d="M100 17q-8 8 -11.5 24t-2.5 31.5t5 23.5q0 8 2.5 12.5t1.5 8.5t2 14t6 19q7 16 16 41.5t18 52t15 46t7 23.5q0 12 16 13q12 4 29 -10t27 -30q8 -8 6 -21t-13 -37q-4 -8 -9.5 -26.5t-7.5 -30.5q-4 -8 -9.5 -22.5t-9.5 -27.5q-2 -5 -4 -18.5t-5 -27.5t-8 -22
q-9 -41 -31.5 -48t-39.5 12zM245 426q-13 -10 -20 -7t-12 27q-4 15 -15 33.5t-22 37.5t-15.5 35t3.5 26q5 8 18 19t28 7q9 -3 19.5 -18t20 -36.5t17 -44t12.5 -40.5q1 -3 -5.5 -11.5t-14.5 -16.5t-14 -11z" />
    <glyph glyph-name="iacute" unicode="&#xed;" horiz-adv-x="187" 
d="M100 17q-8 8 -11.5 24t-2.5 31.5t5 23.5q0 8 2.5 12.5t1.5 8.5t2 14t6 19q7 16 16 41.5t18 52t15 46t7 23.5q0 12 16 13q12 4 29 -10t27 -30q8 -8 6 -21t-13 -37q-4 -8 -9.5 -26.5t-7.5 -30.5q-4 -8 -9.5 -22.5t-9.5 -27.5q-2 -5 -4 -18.5t-5 -27.5t-8 -22
q-9 -41 -31.5 -48t-39.5 12zM236 435q-9 5 -12 21t-1 32q1 5 13.5 20.5t31 34.5t37 34.5t30.5 18.5q14 1 26 -13.5t13 -35.5q0 -11 -10 -22t-25 -22.5t-30.5 -24t-25.5 -25.5q-10 -16 -22 -21t-25 3z" />
    <glyph glyph-name="icircumflex" unicode="&#xee;" horiz-adv-x="187" 
d="M100 17q-8 8 -11.5 24t-2.5 31.5t5 23.5q0 8 2.5 12.5t1.5 8.5t2 14t6 19q7 16 16 41.5t18 52t15 46t7 23.5q0 12 16 13q12 4 29 -10t27 -30q8 -8 6 -21t-13 -37q-4 -8 -9.5 -26.5t-7.5 -30.5q-4 -8 -9.5 -22.5t-9.5 -27.5q-2 -5 -4 -18.5t-5 -27.5t-8 -22
q-9 -41 -31.5 -48t-39.5 12zM172 441q-17 -17 -31 -11t-18.5 22.5t6.5 30.5q3 4 15 15.5t28 25.5t32 26t26 18q17 13 30.5 10t19.5 -12q12 -10 29.5 -27.5l32.5 -32.5t17 -18q11 -12 9.5 -26t-11.5 -24t-23.5 -10t-27.5 16q-7 9 -23 24.5t-31 28.5q-12 -7 -28.5 -18
t-30.5 -21.5t-21 -16.5z" />
    <glyph glyph-name="idieresis" unicode="&#xef;" horiz-adv-x="187" 
d="M100 17q-8 8 -11.5 24t-2.5 31.5t5 23.5q0 8 2.5 12.5t1.5 8.5t2 14t6 19q7 16 16 41.5t18 52t15 46t7 23.5q0 12 16 13q12 4 29 -10t27 -30q8 -8 6 -21t-13 -37q-4 -8 -9.5 -26.5t-7.5 -30.5q-4 -8 -9.5 -22.5t-9.5 -27.5q-2 -5 -4 -18.5t-5 -27.5t-8 -22
q-9 -41 -31.5 -48t-39.5 12zM140 429q-10 8 -15.5 24.5t-3.5 22.5q2 7 9.5 25.5t22.5 31.5q4 3 8.5 8.5t9.5 6.5q14 11 28.5 3.5t25.5 -27.5q11 -23 6.5 -38t-26.5 -41q-19 -25 -34.5 -27.5t-30.5 11.5zM295 429q-10 8 -15.5 24.5t-3.5 22.5q2 7 9.5 25.5t22.5 31.5
q4 3 8.5 8.5t9.5 6.5q14 11 28.5 3.5t25.5 -27.5q11 -23 6.5 -38t-26.5 -41q-19 -25 -34.5 -27.5t-30.5 11.5z" />
    <glyph glyph-name="eth" unicode="&#xf0;" horiz-adv-x="349" 
d="M180 -8q-13 -2 -20.5 2.5t-18.5 13.5q-13 13 -26.5 29.5t-22 33.5t-6.5 28q3 9 1 16l-2 7q-5 5 -3 6.5t4 5.5q6 1 4 12q-1 5 2 20.5t10.5 35.5t17.5 36q5 10 15.5 27t24 34.5t25.5 27.5q23 23 48.5 38t47.5 22q22 5 27.5 4.5t20.5 -14.5q2 -2 4 -2q-5 47 -17.5 88.5
t-49.5 92.5q-15 16 -26 25.5t-19 22.5q0 3 9.5 12.5t21.5 19t18 9.5q5 3 14.5 -1.5t18.5 -11t11 -9.5q4 4 13.5 -8.5l28.5 -37.5q32 -41 48 -96.5t17 -116.5t-12.5 -119.5t-40.5 -106.5q-22 -38 -47.5 -61t-52.5 -43q-21 -15 -43 -27.5t-45 -14.5zM256 124q15 20 26.5 33
t21.5 28.5t19 40.5q2 11 4.5 27.5t2.5 31t-6 16.5q-12 7 -30 4t-36 -22q-31 -28 -47 -62.5t-36 -84.5q-10 -28 -1 -42t31 -7.5t51 37.5zM252 449q-15 -4 -25 1t-15 10q-13 13 -2.5 24t45.5 22q31 15 62.5 25t71.5 18q16 4 29 4.5t24 -2t20 -8.5q17 -11 12.5 -28.5
t-27.5 -18.5q-7 -2 -28.5 -8.5t-38.5 -11.5q-10 -3 -37.5 -11t-55.5 -14q-6 -1 -15 -2t-20 0z" />
    <glyph glyph-name="ntilde" unicode="&#xf1;" horiz-adv-x="450" 
d="M439 24q-22 2 -36.5 9.5t-23.5 30.5q-4 16 -3.5 33.5t2.5 34t2 28.5v8v11q-2 15 -7.5 18.5t-18.5 -1.5q-21 -10 -45.5 -26.5t-51 -38t-54.5 -45.5q-22 -24 -32.5 -39t-21.5 -15q-8 -4 -17 2t-19 14q-7 8 -16.5 20.5t-11.5 16.5q0 16 2.5 29t8 27t13.5 32q4 7 7.5 14.5
t8.5 16.5q4 14 11.5 32t14.5 34q11 26 17 45t10 41q-1 2 1 6t6 5h1h1q7 5 26.5 1.5t29.5 -11.5q21 -18 20 -47t-30 -76q-7 -16 -14.5 -29.5t-7.5 -18.5l8 6t19 14.5t19 13.5q5 5 22 18.5t37 28.5t32 23q11 8 28 16.5t21 8.5q10 0 24.5 -7t27 -16.5t14.5 -17.5q0 -4 -1 -10.5
t-1 -11.5q-1 -16 -0.5 -38.5t0.5 -45t-4 -40.5l1 -1.5t2 -4.5q-1 -1 -0.5 -3.5l0.5 -2.5q2 -7 4.5 -14t6.5 -15.5t9 -21.5q-1 -13 -14.5 -25.5t-26.5 -15.5zM437 416q-20 0 -32.5 7.5t-31.5 20.5q-9 5 -24 20t-27 15q-10 0 -16.5 -8t-12.5 -16.5t-17 -10.5q-1 -5 -6 -12.5
t-7 -2.5q-15 2 -22.5 12.5t-7.5 22.5q0 9 15.5 35.5t49.5 43.5q12 5 33.5 4t37.5 -16q23 -21 39.5 -30.5t35.5 -1.5q15 4 33.5 14.5t39.5 18.5q7 3 14 -3.5t11 -16.5t3 -16q0 -4 -4.5 -16.5t-23.5 -22.5q-30 -17 -46 -26t-23 -12t-11 -3z" />
    <glyph glyph-name="ograve" unicode="&#xf2;" horiz-adv-x="353" 
d="M164 7q-13 0 -20.5 5t-18.5 14q-19 20 -30.5 43t-8.5 40q3 8 2.5 15.5l-0.5 7.5q-5 5 -3 6.5t4 5.5q6 0 4 11q-2 8 6.5 34.5t23.5 50.5q6 10 18 26.5t26.5 33t26.5 26.5q25 21 46.5 34t43.5 18t45.5 5t38.5 -16q23 -10 32.5 -27t12.5 -44q3 -30 -6 -73.5t-49 -100.5
q-25 -36 -49 -56t-53 -37q-21 -14 -45 -17t-47 -5zM266 129q22 19 31.5 42t20.5 54q4 6 5.5 20t0.5 27.5t-7 15.5q-9 7 -18 3.5t-23 -13.5q-30 -25 -55.5 -57.5t-35.5 -79.5q-3 -25 5.5 -37.5t28 -7t47.5 32.5zM341 426q-13 -10 -20 -7t-12 27q-4 15 -15 33.5t-22 37.5
t-15.5 35t3.5 26q5 8 18 19t28 7q9 -3 19.5 -18t20 -36.5t17 -44t12.5 -40.5q1 -3 -5.5 -11.5t-14.5 -16.5t-14 -11z" />
    <glyph glyph-name="oacute" unicode="&#xf3;" horiz-adv-x="353" 
d="M164 7q-13 0 -20.5 5t-18.5 14q-19 20 -30.5 43t-8.5 40q3 8 2.5 15.5l-0.5 7.5q-5 5 -3 6.5t4 5.5q6 0 4 11q-2 8 6.5 34.5t23.5 50.5q6 10 18 26.5t26.5 33t26.5 26.5q25 21 46.5 34t43.5 18t45.5 5t38.5 -16q23 -10 32.5 -27t12.5 -44q3 -30 -6 -73.5t-49 -100.5
q-25 -36 -49 -56t-53 -37q-21 -14 -45 -17t-47 -5zM266 129q22 19 31.5 42t20.5 54q4 6 5.5 20t0.5 27.5t-7 15.5q-9 7 -18 3.5t-23 -13.5q-30 -25 -55.5 -57.5t-35.5 -79.5q-3 -25 5.5 -37.5t28 -7t47.5 32.5zM342 435q-9 5 -12 21t-1 32q1 5 13.5 20.5t31 34.5t37 34.5
t30.5 18.5q14 1 26 -13.5t13 -35.5q0 -11 -10 -22t-25 -22.5t-30.5 -24t-25.5 -25.5q-10 -16 -22 -21t-25 3z" />
    <glyph glyph-name="ocircumflex" unicode="&#xf4;" horiz-adv-x="353" 
d="M164 7q-13 0 -20.5 5t-18.5 14q-19 20 -30.5 43t-8.5 40q3 8 2.5 15.5l-0.5 7.5q-5 5 -3 6.5t4 5.5q6 0 4 11q-2 8 6.5 34.5t23.5 50.5q6 10 18 26.5t26.5 33t26.5 26.5q25 21 46.5 34t43.5 18t45.5 5t38.5 -16q23 -10 32.5 -27t12.5 -44q3 -30 -6 -73.5t-49 -100.5
q-25 -36 -49 -56t-53 -37q-21 -14 -45 -17t-47 -5zM266 129q22 19 31.5 42t20.5 54q4 6 5.5 20t0.5 27.5t-7 15.5q-9 7 -18 3.5t-23 -13.5q-30 -25 -55.5 -57.5t-35.5 -79.5q-3 -25 5.5 -37.5t28 -7t47.5 32.5zM258 441q-17 -17 -31 -11t-18.5 22.5t6.5 30.5q3 4 15 15.5
t28 25.5t32 26t26 18q17 13 30.5 10t19.5 -12q12 -10 29.5 -27.5l32.5 -32.5t17 -18q11 -12 9.5 -26t-11.5 -24t-23.5 -10t-27.5 16q-7 9 -23 24.5t-31 28.5q-12 -7 -28.5 -18t-30.5 -21.5t-21 -16.5z" />
    <glyph glyph-name="otilde" unicode="&#xf5;" horiz-adv-x="353" 
d="M164 7q-13 0 -20.5 5t-18.5 14q-19 20 -30.5 43t-8.5 40q3 8 2.5 15.5l-0.5 7.5q-5 5 -3 6.5t4 5.5q6 0 4 11q-2 8 6.5 34.5t23.5 50.5q6 10 18 26.5t26.5 33t26.5 26.5q25 21 46.5 34t43.5 18t45.5 5t38.5 -16q23 -10 32.5 -27t12.5 -44q3 -30 -6 -73.5t-49 -100.5
q-25 -36 -49 -56t-53 -37q-21 -14 -45 -17t-47 -5zM266 129q22 19 31.5 42t20.5 54q4 6 5.5 20t0.5 27.5t-7 15.5q-9 7 -18 3.5t-23 -13.5q-30 -25 -55.5 -57.5t-35.5 -79.5q-3 -25 5.5 -37.5t28 -7t47.5 32.5zM388 416q-20 0 -32.5 7.5t-31.5 20.5q-9 5 -24 20t-27 15
q-10 0 -16.5 -8t-12.5 -16.5t-17 -10.5q-1 -5 -6 -12.5t-7 -2.5q-15 2 -22.5 12.5t-7.5 22.5q0 9 15.5 35.5t49.5 43.5q12 5 33.5 4t37.5 -16q23 -21 39.5 -30.5t35.5 -1.5q15 4 33.5 14.5t39.5 18.5q7 3 14 -3.5t11 -16.5t3 -16q0 -4 -4.5 -16.5t-23.5 -22.5
q-30 -17 -46 -26t-23 -12t-11 -3z" />
    <glyph glyph-name="odieresis" unicode="&#xf6;" horiz-adv-x="353" 
d="M164 7q-13 0 -20.5 5t-18.5 14q-19 20 -30.5 43t-8.5 40q3 8 2.5 15.5l-0.5 7.5q-5 5 -3 6.5t4 5.5q6 0 4 11q-2 8 6.5 34.5t23.5 50.5q6 10 18 26.5t26.5 33t26.5 26.5q25 21 46.5 34t43.5 18t45.5 5t38.5 -16q23 -10 32.5 -27t12.5 -44q3 -30 -6 -73.5t-49 -100.5
q-25 -36 -49 -56t-53 -37q-21 -14 -45 -17t-47 -5zM266 129q22 19 31.5 42t20.5 54q4 6 5.5 20t0.5 27.5t-7 15.5q-9 7 -18 3.5t-23 -13.5q-30 -25 -55.5 -57.5t-35.5 -79.5q-3 -25 5.5 -37.5t28 -7t47.5 32.5zM236 429q-10 8 -15.5 24.5t-3.5 22.5q2 7 9.5 25.5t22.5 31.5
q4 3 8.5 8.5t9.5 6.5q14 11 28.5 3.5t25.5 -27.5q11 -23 6.5 -38t-26.5 -41q-19 -25 -34.5 -27.5t-30.5 11.5zM391 429q-10 8 -15.5 24.5t-3.5 22.5q2 7 9.5 25.5t22.5 31.5q4 3 8.5 8.5t9.5 6.5q14 11 28.5 3.5t25.5 -27.5q11 -23 6.5 -38t-26.5 -41q-19 -25 -34.5 -27.5
t-30.5 11.5z" />
    <glyph glyph-name="divide" unicode="&#xf7;" horiz-adv-x="446" 
d="M170 172q-6 0 -15 0.5t-20 4.5q-15 0 -23.5 6.5t-12.5 13.5q-11 15 1.5 23.5t49.5 12.5q17 4 50.5 6.5t72.5 4t74 2.5t55 1q26 0 46.5 -5t31.5 -16q15 -15 7 -31.5t-31 -12.5q-5 0 -19 -1t-30.5 -2t-28.5 -2q-6 0 -33 -1t-62.5 -2t-67 -1.5t-45.5 -0.5zM212 -13
q-11 8 -16.5 19t-6 20.5t1.5 11.5q10 11 17.5 29.5t16.5 32.5q2 4 5.5 9t7.5 6q12 8 33.5 -1t31.5 -25q9 -19 5.5 -39t-21.5 -42q-15 -20 -38 -25.5t-37 4.5zM304 316q-11 8 -16.5 19t-6.5 20.5t1 10.5q11 12 18.5 30t15.5 33q2 3 5.5 8.5t7.5 6.5q12 8 33.5 -1.5
t31.5 -25.5q9 -19 5.5 -39t-21.5 -42q-15 -20 -37.5 -25t-36.5 5z" />
    <glyph glyph-name="oslash" unicode="&#xf8;" horiz-adv-x="353" 
d="M69 -15q-19 5 -15 25.5t29 45.5q56 54 109.5 111.5t120.5 104.5q9 5 29.5 20.5t42.5 34t39 33.5t19 18q5 13 14.5 6.5t13.5 -17.5q3 -11 -8 -22q-3 -7 -7.5 -11.5t-15 -12t-32.5 -23.5q-37 -25 -70 -52t-70 -59q-13 -11 -34 -31t-45.5 -43.5t-47 -46t-38 -39t-18.5 -21.5
q-7 -13 -9.5 -17t-6.5 -4zM283 134q17 19 28 36.5t23 49.5q4 11 7 28.5t3.5 32.5t-5.5 18q-13 8 -29 5t-39 -23q-20 -17 -33 -33t-24 -38.5t-26 -59.5q-11 -27 -10.5 -47t12.5 -26.5t35 6t58 51.5zM198 -9q-13 -1 -21 2.5t-20 10.5q-22 17 -36.5 42t-13.5 42q2 9 0.5 16
l-1.5 7q-6 5 -4 6.5t3 5.5q8 2 2 11q-3 8 3.5 36.5t17.5 53.5q5 11 14.5 29t21.5 36.5t22 29.5q22 25 39.5 41t39.5 24q20 8 40.5 7t36.5 -14q24 -7 43 -21.5t26 -40.5q8 -29 5.5 -68.5t-34.5 -101.5q-19 -39 -37.5 -63t-44.5 -46q-19 -16 -49 -28t-53 -17z" />
    <glyph glyph-name="ugrave" unicode="&#xf9;" horiz-adv-x="370" 
d="M336 2q-10 10 -16 27.5t-12 40.5q-2 8 -1.5 18t-0.5 16q-3 -7 -9.5 -18t-12.5 -16q-4 -4 -18 -15.5t-28 -18.5q-33 -21 -58.5 -19.5t-44.5 25.5q-16 13 -26 33t-4 48q2 35 10 68.5t33 89.5q21 41 32 64t14 27q15 5 37 -0.5t24 -19.5q6 -10 0 -37.5t-24 -62.5
q-14 -34 -26.5 -66t-15 -54t11.5 -27q9 -5 26.5 1t41.5 36t51 95q8 20 12 35.5t5 34.5q-2 12 6.5 25t20.5 20q4 5 11 9.5t9 -0.5l16 1q4 1 9 -8t10 -13q11 -9 10 -39t-24 -84q-19 -41 -25.5 -62t-7.5 -41q0 -18 3 -30.5t18 -25.5q11 -7 12.5 -23.5t0.5 -28.5
q-2 -9 -15.5 -12.5t-29 -1.5t-25.5 9zM330 428q-13 -10 -20 -7t-12 27q-4 15 -15 33.5t-22 37.5t-15.5 35t3.5 26q5 8 18 19t28 7q9 -3 19.5 -18t20 -36.5t17 -44t12.5 -40.5q1 -3 -5.5 -11.5t-14.5 -16.5t-14 -11z" />
    <glyph glyph-name="uacute" unicode="&#xfa;" horiz-adv-x="370" 
d="M336 2q-10 10 -16 27.5t-12 40.5q-2 8 -1.5 18t-0.5 16q-3 -7 -9.5 -18t-12.5 -16q-4 -4 -18 -15.5t-28 -18.5q-33 -21 -58.5 -19.5t-44.5 25.5q-16 13 -26 33t-4 48q2 35 10 68.5t33 89.5q21 41 32 64t14 27q15 5 37 -0.5t24 -19.5q6 -10 0 -37.5t-24 -62.5
q-14 -34 -26.5 -66t-15 -54t11.5 -27q9 -5 26.5 1t41.5 36t51 95q8 20 12 35.5t5 34.5q-2 12 6.5 25t20.5 20q4 5 11 9.5t9 -0.5l16 1q4 1 9 -8t10 -13q11 -9 10 -39t-24 -84q-19 -41 -25.5 -62t-7.5 -41q0 -18 3 -30.5t18 -25.5q11 -7 12.5 -23.5t0.5 -28.5
q-2 -9 -15.5 -12.5t-29 -1.5t-25.5 9zM307 432q-9 5 -12 21t-1 32q1 5 13.5 20.5t31 34.5t37 34.5t30.5 18.5q14 1 26 -13.5t13 -35.5q0 -11 -10 -22t-25 -22.5t-30.5 -24t-25.5 -25.5q-10 -16 -22 -21t-25 3z" />
    <glyph glyph-name="ucircumflex" unicode="&#xfb;" horiz-adv-x="370" 
d="M336 2q-10 10 -16 27.5t-12 40.5q-2 8 -1.5 18t-0.5 16q-3 -7 -9.5 -18t-12.5 -16q-4 -4 -18 -15.5t-28 -18.5q-33 -21 -58.5 -19.5t-44.5 25.5q-16 13 -26 33t-4 48q2 35 10 68.5t33 89.5q21 41 32 64t14 27q15 5 37 -0.5t24 -19.5q6 -10 0 -37.5t-24 -62.5
q-14 -34 -26.5 -66t-15 -54t11.5 -27q9 -5 26.5 1t41.5 36t51 95q8 20 12 35.5t5 34.5q-2 12 6.5 25t20.5 20q4 5 11 9.5t9 -0.5l16 1q4 1 9 -8t10 -13q11 -9 10 -39t-24 -84q-19 -41 -25.5 -62t-7.5 -41q0 -18 3 -30.5t18 -25.5q11 -7 12.5 -23.5t0.5 -28.5
q-2 -9 -15.5 -12.5t-29 -1.5t-25.5 9zM268 441q-17 -17 -31 -11t-18.5 22.5t6.5 30.5q3 4 15 15.5t28 25.5t32 26t26 18q17 13 30.5 10t19.5 -12q12 -10 29.5 -27.5l32.5 -32.5t17 -18q11 -12 9.5 -26t-11.5 -24t-23.5 -10t-27.5 16q-7 9 -23 24.5t-31 28.5
q-12 -7 -28.5 -18t-30.5 -21.5t-21 -16.5z" />
    <glyph glyph-name="udieresis" unicode="&#xfc;" horiz-adv-x="370" 
d="M336 2q-10 10 -16 27.5t-12 40.5q-2 8 -1.5 18t-0.5 16q-3 -7 -9.5 -18t-12.5 -16q-4 -4 -18 -15.5t-28 -18.5q-33 -21 -58.5 -19.5t-44.5 25.5q-16 13 -26 33t-4 48q2 35 10 68.5t33 89.5q21 41 32 64t14 27q15 5 37 -0.5t24 -19.5q6 -10 0 -37.5t-24 -62.5
q-14 -34 -26.5 -66t-15 -54t11.5 -27q9 -5 26.5 1t41.5 36t51 95q8 20 12 35.5t5 34.5q-2 12 6.5 25t20.5 20q4 5 11 9.5t9 -0.5l16 1q4 1 9 -8t10 -13q11 -9 10 -39t-24 -84q-19 -41 -25.5 -62t-7.5 -41q0 -18 3 -30.5t18 -25.5q11 -7 12.5 -23.5t0.5 -28.5
q-2 -9 -15.5 -12.5t-29 -1.5t-25.5 9zM246 429q-10 8 -15.5 24.5t-3.5 22.5q2 7 9.5 25.5t22.5 31.5q4 3 8.5 8.5t9.5 6.5q14 11 28.5 3.5t25.5 -27.5q11 -23 6.5 -38t-26.5 -41q-19 -25 -34.5 -27.5t-30.5 11.5zM401 429q-10 8 -15.5 24.5t-3.5 22.5q2 7 9.5 25.5
t22.5 31.5q4 3 8.5 8.5t9.5 6.5q14 11 28.5 3.5t25.5 -27.5q11 -23 6.5 -38t-26.5 -41q-19 -25 -34.5 -27.5t-30.5 11.5z" />
    <glyph glyph-name="yacute" unicode="&#xfd;" horiz-adv-x="341" 
d="M86 -208q-36 -7 -69 -2.5t-55.5 17.5t-27.5 29q-6 23 6 34t28.5 13t21.5 -4q8 -5 25.5 -15t43.5 -5q23 5 41 22t32 36q8 12 27 43t39.5 68.5t34.5 69.5q3 8 7 19t10 18q6 12 10.5 22.5t5.5 14.5q1 5 9 20t15 30q5 15 15 44t20 47q12 23 19.5 37.5t16.5 17.5v0v0q9 7 17 7
t19 -6q12 -12 19.5 -23.5t6 -28t-16.5 -44.5q-8 -24 -17.5 -43.5t-14.5 -25.5q-5 -12 -11.5 -26.5t-11.5 -26.5q-18 -40 -31 -65t-23 -46t-21 -49q-23 -37 -44.5 -70.5t-45.5 -62.5q-10 -9 -28.5 -23.5t-38 -27t-33.5 -15.5zM211 18q-15 2 -32.5 20t-29 38t-9.5 28v8v3
q-6 0 -9.5 17.5t-5 44.5t-1 56t2.5 53q4 17 4 37.5t1 32.5q-1 16 6.5 26t11.5 13v0v0q37 16 54 -17t12 -105q-2 -40 -2 -76.5t7 -62.5t24 -37q7 -4 5 -17t-9 -27.5t-15.5 -25t-14.5 -9.5zM301 435q-9 5 -12 21t-1 32q1 5 13.5 20.5t31 34.5t37 34.5t30.5 18.5q14 1 26 -13.5
t13 -35.5q0 -11 -10 -22t-25 -22.5t-30.5 -24t-25.5 -25.5q-10 -16 -22 -21t-25 3z" />
    <glyph glyph-name="thorn" unicode="&#xfe;" horiz-adv-x="378" 
d="M69 -233h-11.5t-12.5 10q-4 5 -11 22t-2 36q4 17 7.5 31.5t3.5 23.5q0 10 2.5 19.5t2.5 14.5q5 8 8 22.5t3 26.5q0 5 4 11t8 10q0 8 3.5 20.5t3.5 17.5q3 12 12.5 41t22 66.5l25 75t23 66.5t14.5 41l4 10l72 -24q49 30 86 32.5t61.5 -14t36.5 -42.5t11 -52
q0 -10 -8 -29.5t-18.5 -37.5t-16.5 -24q-4 0 -8 -7t-8 -15q-9 -10 -27 -22t-36 -19t-26 -4l-2.5 -0.5t-2.5 -5.5q0 -6 -14.5 -12t-34 -10.5t-35.5 -4.5q-12 0 -18 1.5t-11 5.5q-3 -2 -5 -6t-2 -9q-1 -7 -5.5 -19t-10.5 -21.5t-10 -9.5l-2 -3t2 -8l-0.5 -12t-5.5 -19
q0 -8 -2.5 -24t-7.5 -24q0 -13 -3.5 -24t-8.5 -11q-5 -1 -5.5 -15.5t-0.5 -19.5q-4 -23 -16.5 -39.5t-27.5 -16.5zM199 116q4 0 24.5 6.5t44.5 17t37 21.5q31 26 44.5 49t-2.5 45q-8 12 -21.5 13t-34.5 -11t-52 -39q-12 -13 -22 -30t-16.5 -33.5t-7.5 -27.5t6 -11zM170 310
q7 15 20.5 49t29 75.5t29.5 81t23.5 66.5t10.5 31q1 5 2.5 11.5t13.5 16.5q3 3 10 4.5t11 1.5l11.5 -1.5t18.5 -9.5q9 -13 12 -27.5t-1 -31.5q-2 -10 -9 -30.5t-22.5 -58.5t-43.5 -102l-38 -94z" />
    <glyph glyph-name="ydieresis" unicode="&#xff;" horiz-adv-x="341" 
d="M86 -208q-36 -7 -69 -2.5t-55.5 17.5t-27.5 29q-6 23 6 34t28.5 13t21.5 -4q8 -5 25.5 -15t43.5 -5q23 5 41 22t32 36q8 12 27 43t39.5 68.5t34.5 69.5q3 8 7 19t10 18q6 12 10.5 22.5t5.5 14.5q1 5 9 20t15 30q5 15 15 44t20 47q12 23 19.5 37.5t16.5 17.5v0v0q9 7 17 7
t19 -6q12 -12 19.5 -23.5t6 -28t-16.5 -44.5q-8 -24 -17.5 -43.5t-14.5 -25.5q-5 -12 -11.5 -26.5t-11.5 -26.5q-18 -40 -31 -65t-23 -46t-21 -49q-23 -37 -44.5 -70.5t-45.5 -62.5q-10 -9 -28.5 -23.5t-38 -27t-33.5 -15.5zM211 18q-15 2 -32.5 20t-29 38t-9.5 28v8v3
q-6 0 -9.5 17.5t-5 44.5t-1 56t2.5 53q4 17 4 37.5t1 32.5q-1 16 6.5 26t11.5 13v0v0q37 16 54 -17t12 -105q-2 -40 -2 -76.5t7 -62.5t24 -37q7 -4 5 -17t-9 -27.5t-15.5 -25t-14.5 -9.5zM195 429q-10 8 -15.5 24.5t-3.5 22.5q2 7 9.5 25.5t22.5 31.5q4 3 8.5 8.5t9.5 6.5
q14 11 28.5 3.5t25.5 -27.5q11 -23 6.5 -38t-26.5 -41q-19 -25 -34.5 -27.5t-30.5 11.5zM350 429q-10 8 -15.5 24.5t-3.5 22.5q2 7 9.5 25.5t22.5 31.5q4 3 8.5 8.5t9.5 6.5q14 11 28.5 3.5t25.5 -27.5q11 -23 6.5 -38t-26.5 -41q-19 -25 -34.5 -27.5t-30.5 11.5z" />
    <glyph glyph-name="Amacron" unicode="&#x100;" horiz-adv-x="502" 
d="M57 -33q-18 10 -19.5 22t13.5 42t47 93q24 45 32.5 70.5t9.5 36.5t1 14q-2 9 2 14.5t13 9.5q5 5 23 18t28 31q9 21 20.5 43t30.5 55.5t51 87.5q20 35 47.5 79t54.5 80q11 14 23 22t21 8q22 0 44 -11.5t39 -28.5t23 -32q5 -8 4 -34t-4 -63t-7 -79q-3 -41 -9 -97
t-11.5 -117t-8.5 -117.5t0 -98.5q1 -9 0 -17t-1 -13q-6 -6 -26 -5.5t-39 6.5t-21 15q-3 3 -4 5t0 19.5t3 64.5l5 153l-13 -1q-9 0 -32.5 -2t-51 -5.5t-50.5 -7t-32 -6.5q-9 0 -21.5 -12t-23.5 -31q-4 -14 -14.5 -29.5t-10.5 -20.5q-7 -5 -11.5 -12l-4.5 -7q0 -6 -8.5 -29.5
t-22 -52t-27.5 -49.5l-27 -38zM296 311l11 2t26.5 4.5t27.5 2.5q23 6 38.5 9t25.5 3.5t16 -2.5q4 -5 7.5 -6l3.5 -1q1 2 4 21t7 47t8 58.5t7 57t4 41.5q1 19 -1 34.5l-2 15.5q-6 0 -22.5 -21.5t-38 -57t-42.5 -76.5q-10 -19 -18.5 -30t-13.5 -11q-2 -2 -10.5 -15.5t-18 -30
t-16 -30t-3.5 -15.5zM471 760q-10 -1 -20.5 0.5t-20.5 4.5q-15 2 -22 6t-14 15q-9 15 4.5 22.5t46.5 11.5q31 6 57.5 10t57.5 4t49 -4.5t30 -16.5q13 -11 9 -26.5t-22 -17.5q-7 0 -22 -1t-31 -1.5t-28 -1.5q-8 -1 -18.5 -2t-24 -2t-31.5 -1z" />
    <glyph glyph-name="amacron" unicode="&#x101;" horiz-adv-x="437" 
d="M120 21q-4 8 -17.5 16t-13.5 12t-4.5 12.5t-8.5 12.5q-5 6 3 29.5t24 57.5t35 69q8 8 16 21t12 17q0 4 3 7.5t7 3.5l8 16q2 4 12.5 16t25.5 26.5t30.5 27.5t25.5 19q21 14 43.5 13t38.5 -14q3 -3 13.5 -12t24 -20t23.5 -20l37 -33l-17 -50q-13 -40 -6.5 -70t18.5 -52
q5 -11 13.5 -17t22.5 -8q8 -1 15 -6t7 -16q0 -24 -8.5 -34.5t-18.5 -12.5q-33 -4 -63 7t-54 57q-4 6 -10.5 22.5t-7.5 21.5q-4 -5 -10.5 -12.5t-12.5 -13.5q-71 -72 -121.5 -93.5t-84.5 0.5zM175 104q7 -1 22 7.5t40 28.5q34 29 56 48t43 49l22 36q-10 23 -18 30t-16 7
q-13 0 -31 -16.5t-40.5 -48t-50.5 -78.5q-13 -22 -20 -42.5zM342 453q-6 0 -15 0.5t-20 4.5q-15 0 -23.5 6t-12.5 13q-10 15 2 23.5t49 12.5q34 8 59 11t65 3q25 0 41.5 -5t27.5 -15q15 -15 7.5 -31.5t-30.5 -13.5q-7 -1 -29.5 -2t-40.5 -2q-10 -1 -31 -3t-49 -2z" />
    <glyph glyph-name="Abreve" unicode="&#x102;" horiz-adv-x="502" 
d="M57 -33q-18 10 -19.5 22t13.5 42t47 93q24 45 32.5 70.5t9.5 36.5t1 14q-2 9 2 14.5t13 9.5q5 5 23 18t28 31q9 21 20.5 43t30.5 55.5t51 87.5q20 35 47.5 79t54.5 80q11 14 23 22t21 8q22 0 44 -11.5t39 -28.5t23 -32q5 -8 4 -34t-4 -63t-7 -79q-3 -41 -9 -97
t-11.5 -117t-8.5 -117.5t0 -98.5q1 -9 0 -17t-1 -13q-6 -6 -26 -5.5t-39 6.5t-21 15q-3 3 -4 5t0 19.5t3 64.5l5 153l-13 -1q-9 0 -32.5 -2t-51 -5.5t-50.5 -7t-32 -6.5q-9 0 -21.5 -12t-23.5 -31q-4 -14 -14.5 -29.5t-10.5 -20.5q-7 -5 -11.5 -12l-4.5 -7q0 -6 -8.5 -29.5
t-22 -52t-27.5 -49.5l-27 -38zM296 311l11 2t26.5 4.5t27.5 2.5q23 6 38.5 9t25.5 3.5t16 -2.5q4 -5 7.5 -6l3.5 -1q1 2 4 21t7 47t8 58.5t7 57t4 41.5q1 19 -1 34.5l-2 15.5q-6 0 -22.5 -21.5t-38 -57t-42.5 -76.5q-10 -19 -18.5 -30t-13.5 -11q-2 -2 -10.5 -15.5t-18 -30
t-16 -30t-3.5 -15.5zM519 701q-32 3 -59.5 16t-40 38.5t-3.5 63.5q6 27 19 37.5t26 9t20.5 -12.5t2.5 -28q-3 -11 -2.5 -24t11.5 -22t41 -8q13 1 24 9.5t19.5 20.5t14.5 22q17 30 30.5 37.5t23 1t13 -20.5t0.5 -28q-4 -19 -16.5 -40t-31 -38t-42 -26.5t-50.5 -7.5z" />
    <glyph glyph-name="abreve" unicode="&#x103;" horiz-adv-x="437" 
d="M120 21q-4 8 -17.5 16t-13.5 12t-4.5 12.5t-8.5 12.5q-5 6 3 29.5t24 57.5t35 69q8 8 16 21t12 17q0 4 3 7.5t7 3.5l8 16q2 4 12.5 16t25.5 26.5t30.5 27.5t25.5 19q21 14 43.5 13t38.5 -14q3 -3 13.5 -12t24 -20t23.5 -20l37 -33l-17 -50q-13 -40 -6.5 -70t18.5 -52
q5 -11 13.5 -17t22.5 -8q8 -1 15 -6t7 -16q0 -24 -8.5 -34.5t-18.5 -12.5q-33 -4 -63 7t-54 57q-4 6 -10.5 22.5t-7.5 21.5q-4 -5 -10.5 -12.5t-12.5 -13.5q-71 -72 -121.5 -93.5t-84.5 0.5zM175 104q7 -1 22 7.5t40 28.5q34 29 56 48t43 49l22 36q-10 23 -18 30t-16 7
q-13 0 -31 -16.5t-40.5 -48t-50.5 -78.5q-13 -22 -20 -42.5zM378 426q-32 3 -59 16t-40 38.5t-4 63.5q6 27 19 37.5t26 9t20.5 -12.5t2.5 -28q-3 -11 -2.5 -24t11.5 -22t41 -8q13 1 24 9.5t19.5 20.5t14.5 22q17 30 30.5 37.5t23 1t13 -20.5t0.5 -28q-4 -19 -16.5 -40
t-31 -38t-42 -26.5t-50.5 -7.5z" />
    <glyph glyph-name="Aogonek" unicode="&#x104;" horiz-adv-x="502" 
d="M57 -33q-18 10 -19.5 22t13.5 42t47 93q24 45 32.5 70.5t9.5 36.5t1 14q-2 9 2 14.5t13 9.5q5 5 23 18t28 31q9 21 20.5 43t30.5 55.5t51 87.5q20 35 47.5 79t54.5 80q11 14 23 22t21 8q22 0 44 -11.5t39 -28.5t23 -32q5 -8 4 -34t-4 -63t-7 -79q-3 -41 -9 -97
t-11.5 -117t-8.5 -117.5t0 -98.5q1 -9 0 -17t-1 -13q-6 -6 -26 -5.5t-39 6.5t-21 15q-3 3 -4 5t0 19.5t3 64.5l5 153l-13 -1q-9 0 -32.5 -2t-51 -5.5t-50.5 -7t-32 -6.5q-9 0 -21.5 -12t-23.5 -31q-4 -14 -14.5 -29.5t-10.5 -20.5q-7 -5 -11.5 -12l-4.5 -7q0 -6 -8.5 -29.5
t-22 -52t-27.5 -49.5l-27 -38zM296 311l11 2t26.5 4.5t27.5 2.5q23 6 38.5 9t25.5 3.5t16 -2.5q4 -5 7.5 -6l3.5 -1q1 2 4 21t7 47t8 58.5t7 57t4 41.5q1 19 -1 34.5l-2 15.5q-6 0 -22.5 -21.5t-38 -57t-42.5 -76.5q-10 -19 -18.5 -30t-13.5 -11q-2 -2 -10.5 -15.5t-18 -30
t-16 -30t-3.5 -15.5zM388 -207q-20 6 -40 22t-27 40.5t11 54.5q13 22 36 45.5t49.5 45t48.5 35.5l55 -30q-22 -13 -52.5 -38.5t-48.5 -47.5q-14 -17 -19.5 -28t1.5 -22q3 -6 18 -6q23 4 39 14t41 22q13 7 20 0.5t8.5 -18.5t-3 -24.5t-16.5 -17.5q-4 -1 -19 -8t-34.5 -15.5
t-38 -15t-29.5 -8.5z" />
    <glyph glyph-name="aogonek" unicode="&#x105;" horiz-adv-x="437" 
d="M120 21q-4 8 -17.5 16t-13.5 12t-4.5 12.5t-8.5 12.5q-5 6 3 29.5t24 57.5t35 69q8 8 16 21t12 17q0 4 3 7.5t7 3.5l8 16q2 4 12.5 16t25.5 26.5t30.5 27.5t25.5 19q21 14 43.5 13t38.5 -14q3 -3 13.5 -12t24 -20t23.5 -20l37 -33l-17 -50q-13 -40 -6.5 -70t18.5 -52
q5 -11 13.5 -17t22.5 -8q8 -1 15 -6t7 -16q0 -24 -8.5 -34.5t-18.5 -12.5q-33 -4 -63 7t-54 57q-4 6 -10.5 22.5t-7.5 21.5q-4 -5 -10.5 -12.5t-12.5 -13.5q-71 -72 -121.5 -93.5t-84.5 0.5zM175 104q7 -1 22 7.5t40 28.5q34 29 56 48t43 49l22 36q-10 23 -18 30t-16 7
q-13 0 -31 -16.5t-40.5 -48t-50.5 -78.5q-13 -22 -20 -42.5zM373 -150q-20 6 -40 22t-27 40.5t11 54.5q13 22 36 45.5t49.5 45t48.5 35.5l55 -30q-22 -13 -52.5 -38.5t-48.5 -47.5q-14 -17 -19.5 -28t1.5 -22q3 -6 18 -6q23 4 39 14t41 22q13 7 20 0.5t8.5 -18.5t-3 -24.5
t-16.5 -17.5q-4 -1 -19 -8t-34.5 -15.5t-38 -15t-29.5 -8.5z" />
    <glyph glyph-name="Cacute" unicode="&#x106;" horiz-adv-x="482" 
d="M217 -66q-15 6 -35 16.5t-38 27.5t-28 41q-10 29 -13.5 57t-2.5 65q0 52 7.5 90.5t23.5 78.5q2 3 7.5 17.5t13 31.5t11.5 26q8 17 24.5 45.5t35.5 55.5q29 43 49 70.5t38.5 46.5t41 37t56.5 41q22 16 56.5 20t67.5 -10.5t49 -54.5q11 -21 10 -52.5t-12 -67t-28 -66.5
t-38 -50q-13 -12 -34.5 -4t-35.5 21q-9 17 -9.5 20t3.5 4q6 7 16 24t20 36.5t14 31.5q8 42 11 55.5t-6 22.5q-4 4 -11.5 3t-24.5 -10q-23 -10 -54.5 -40.5t-62.5 -72.5q-40 -53 -67 -94t-41 -84q-2 -4 -6.5 -15l-4.5 -11q1 -4 -3 -19.5t-9 -26.5q-11 -46 -13 -88.5t5.5 -74
t22.5 -46.5q13 -9 33 -6t46 14t56 24q24 10 44 22t30 21q8 6 20.5 12.5t21.5 6.5q14 5 21 -8t7 -33q0 -14 -20 -34t-44 -34q-8 -8 -21.5 -14.5t-27.5 -11.5q-21 -16 -52 -31t-62.5 -23t-57.5 -3zM468 714q-7 7 -10.5 17.5t-2.5 35.5q1 5 13.5 20t30 34t35.5 34t29 19
q13 5 27.5 -10t15.5 -38q2 -8 -9 -20.5t-28 -26t-33 -27t-24 -24.5q-10 -16 -21.5 -18.5t-22.5 4.5z" />
    <glyph glyph-name="cacute" unicode="&#x107;" horiz-adv-x="355" 
d="M217 -4q-29 -5 -57.5 5t-47 32.5t-18.5 54.5q-3 30 5.5 71.5t26 83.5t40.5 71q20 24 40 44t36 27q14 6 34.5 9.5t28.5 3.5q16 -4 35.5 -13t19.5 -21l2.5 -2.5l2.5 -2.5q6 0 13.5 -14.5t11.5 -33t-2 -29.5q-4 -19 -15.5 -37t-19.5 -18q-4 0 -7.5 -0.5t-3.5 -5.5t-10.5 -5
t-21.5 4t-14 12q0 5 2 13t6 27q6 28 1 37.5t-25 1.5q-25 -14 -41 -32.5t-28.5 -51.5t-27.5 -92q-6 -23 -1.5 -36t7.5 -14q14 -4 30.5 -1.5t27.5 8.5q16 8 28.5 17.5t27.5 20.5q5 3 9 11.5t12 12.5q8 12 20.5 12.5t24.5 0.5q8 -2 17 -10t13.5 -15.5t-1.5 -10.5
q-4 0 -4.5 -2.5l-0.5 -2.5q2 -4 -8.5 -18t-26.5 -30t-30.5 -27.5t-20.5 -11.5q-10 0 -10 -6q0 -2 -14.5 -10t-33 -16t-32.5 -11zM341 435q-9 5 -12 21t-1 32q1 5 13.5 20.5t31 34.5t37 34.5t30.5 18.5q14 1 26 -13.5t13 -35.5q0 -11 -10 -22t-25 -22.5t-30.5 -24
t-25.5 -25.5q-10 -16 -22 -21t-25 3z" />
    <glyph glyph-name="Ccircumflex" unicode="&#x108;" horiz-adv-x="482" 
d="M217 -66q-15 6 -35 16.5t-38 27.5t-28 41q-10 29 -13.5 57t-2.5 65q0 52 7.5 90.5t23.5 78.5q2 3 7.5 17.5t13 31.5t11.5 26q8 17 24.5 45.5t35.5 55.5q29 43 49 70.5t38.5 46.5t41 37t56.5 41q22 16 56.5 20t67.5 -10.5t49 -54.5q11 -21 10 -52.5t-12 -67t-28 -66.5
t-38 -50q-13 -12 -34.5 -4t-35.5 21q-9 17 -9.5 20t3.5 4q6 7 16 24t20 36.5t14 31.5q8 42 11 55.5t-6 22.5q-4 4 -11.5 3t-24.5 -10q-23 -10 -54.5 -40.5t-62.5 -72.5q-40 -53 -67 -94t-41 -84q-2 -4 -6.5 -15l-4.5 -11q1 -4 -3 -19.5t-9 -26.5q-11 -46 -13 -88.5t5.5 -74
t22.5 -46.5q13 -9 33 -6t46 14t56 24q24 10 44 22t30 21q8 6 20.5 12.5t21.5 6.5q14 5 21 -8t7 -33q0 -14 -20 -34t-44 -34q-8 -8 -21.5 -14.5t-27.5 -11.5q-21 -16 -52 -31t-62.5 -23t-57.5 -3zM455 727q-17 -17 -31 -11.5t-18.5 22t4.5 30.5q3 4 15.5 15.5t29.5 26.5
t33.5 27.5t26.5 18.5q13 11 26.5 8.5t19.5 -11.5q12 -10 29 -26.5t33 -33t23 -26.5q6 -12 2.5 -25t-13.5 -21t-23 -6.5t-26 18.5q-7 6 -22 21.5t-30 28.5q-12 -7 -28 -18t-30 -21.5t-21 -16.5z" />
    <glyph glyph-name="ccircumflex" unicode="&#x109;" horiz-adv-x="355" 
d="M217 -4q-29 -5 -57.5 5t-47 32.5t-18.5 54.5q-3 30 5.5 71.5t26 83.5t40.5 71q20 24 40 44t36 27q14 6 34.5 9.5t28.5 3.5q16 -4 35.5 -13t19.5 -21l2.5 -2.5l2.5 -2.5q6 0 13.5 -14.5t11.5 -33t-2 -29.5q-4 -19 -15.5 -37t-19.5 -18q-4 0 -7.5 -0.5t-3.5 -5.5t-10.5 -5
t-21.5 4t-14 12q0 5 2 13t6 27q6 28 1 37.5t-25 1.5q-25 -14 -41 -32.5t-28.5 -51.5t-27.5 -92q-6 -23 -1.5 -36t7.5 -14q14 -4 30.5 -1.5t27.5 8.5q16 8 28.5 17.5t27.5 20.5q5 3 9 11.5t12 12.5q8 12 20.5 12.5t24.5 0.5q8 -2 17 -10t13.5 -15.5t-1.5 -10.5
q-4 0 -4.5 -2.5l-0.5 -2.5q2 -4 -8.5 -18t-26.5 -30t-30.5 -27.5t-20.5 -11.5q-10 0 -10 -6q0 -2 -14.5 -10t-33 -16t-32.5 -11zM257 441q-17 -17 -31 -11t-18.5 22.5t6.5 30.5q3 4 15 15.5t28 25.5t32 26t26 18q17 13 30.5 10t19.5 -12q12 -10 29.5 -27.5l32.5 -32.5
t17 -18q11 -12 9.5 -26t-11.5 -24t-23.5 -10t-27.5 16q-7 9 -23 24.5t-31 28.5q-12 -7 -28.5 -18t-30.5 -21.5t-21 -16.5z" />
    <glyph glyph-name="Cdotaccent" unicode="&#x10a;" horiz-adv-x="482" 
d="M217 -66q-15 6 -35 16.5t-38 27.5t-28 41q-10 29 -13.5 57t-2.5 65q0 52 7.5 90.5t23.5 78.5q2 3 7.5 17.5t13 31.5t11.5 26q8 17 24.5 45.5t35.5 55.5q29 43 49 70.5t38.5 46.5t41 37t56.5 41q22 16 56.5 20t67.5 -10.5t49 -54.5q11 -21 10 -52.5t-12 -67t-28 -66.5
t-38 -50q-13 -12 -34.5 -4t-35.5 21q-9 17 -9.5 20t3.5 4q6 7 16 24t20 36.5t14 31.5q8 42 11 55.5t-6 22.5q-4 4 -11.5 3t-24.5 -10q-23 -10 -54.5 -40.5t-62.5 -72.5q-40 -53 -67 -94t-41 -84q-2 -4 -6.5 -15l-4.5 -11q1 -4 -3 -19.5t-9 -26.5q-11 -46 -13 -88.5t5.5 -74
t22.5 -46.5q13 -9 33 -6t46 14t56 24q24 10 44 22t30 21q8 6 20.5 12.5t21.5 6.5q14 5 21 -8t7 -33q0 -14 -20 -34t-44 -34q-8 -8 -21.5 -14.5t-27.5 -11.5q-21 -16 -52 -31t-62.5 -23t-57.5 -3zM486 736q-7 7 -13.5 21t-5.5 25q2 5 10 26.5t25 35.5q3 2 6.5 6.5t7.5 5.5
q12 8 24.5 7.5t30.5 -20.5q17 -29 10.5 -47t-26.5 -42q-15 -20 -31 -28t-38 10z" />
    <glyph glyph-name="cdotaccent" unicode="&#x10b;" horiz-adv-x="355" 
d="M217 -4q-29 -5 -57.5 5t-47 32.5t-18.5 54.5q-3 30 5.5 71.5t26 83.5t40.5 71q20 24 40 44t36 27q14 6 34.5 9.5t28.5 3.5q16 -4 35.5 -13t19.5 -21l2.5 -2.5l2.5 -2.5q6 0 13.5 -14.5t11.5 -33t-2 -29.5q-4 -19 -15.5 -37t-19.5 -18q-4 0 -7.5 -0.5t-3.5 -5.5t-10.5 -5
t-21.5 4t-14 12q0 5 2 13t6 27q6 28 1 37.5t-25 1.5q-25 -14 -41 -32.5t-28.5 -51.5t-27.5 -92q-6 -23 -1.5 -36t7.5 -14q14 -4 30.5 -1.5t27.5 8.5q16 8 28.5 17.5t27.5 20.5q5 3 9 11.5t12 12.5q8 12 20.5 12.5t24.5 0.5q8 -2 17 -10t13.5 -15.5t-1.5 -10.5
q-4 0 -4.5 -2.5l-0.5 -2.5q2 -4 -8.5 -18t-26.5 -30t-30.5 -27.5t-20.5 -11.5q-10 0 -10 -6q0 -2 -14.5 -10t-33 -16t-32.5 -11zM328 426q-10 8 -15 25.5t-3 22.5q2 8 9.5 27t23.5 32q4 3 9 8.5t9 6.5q15 11 29.5 4t26.5 -27q11 -25 6.5 -40.5t-27.5 -42.5
q-19 -25 -35 -27.5t-33 11.5z" />
    <glyph glyph-name="Ccaron" unicode="&#x10c;" horiz-adv-x="482" 
d="M217 -66q-15 6 -35 16.5t-38 27.5t-28 41q-10 29 -13.5 57t-2.5 65q0 52 7.5 90.5t23.5 78.5q2 3 7.5 17.5t13 31.5t11.5 26q8 17 24.5 45.5t35.5 55.5q29 43 49 70.5t38.5 46.5t41 37t56.5 41q22 16 56.5 20t67.5 -10.5t49 -54.5q11 -21 10 -52.5t-12 -67t-28 -66.5
t-38 -50q-13 -12 -34.5 -4t-35.5 21q-9 17 -9.5 20t3.5 4q6 7 16 24t20 36.5t14 31.5q8 42 11 55.5t-6 22.5q-4 4 -11.5 3t-24.5 -10q-23 -10 -54.5 -40.5t-62.5 -72.5q-40 -53 -67 -94t-41 -84q-2 -4 -6.5 -15l-4.5 -11q1 -4 -3 -19.5t-9 -26.5q-11 -46 -13 -88.5t5.5 -74
t22.5 -46.5q13 -9 33 -6t46 14t56 24q24 10 44 22t30 21q8 6 20.5 12.5t21.5 6.5q14 5 21 -8t7 -33q0 -14 -20 -34t-44 -34q-8 -8 -21.5 -14.5t-27.5 -11.5q-21 -16 -52 -31t-62.5 -23t-57.5 -3zM528 720q-8 -6 -19 -8t-25 10q-10 10 -29.5 28t-36.5 36.5t-22 27.5
q-4 17 5 31.5t25 16.5t32 -17q7 -10 22 -23.5t31 -27.5q12 7 30 18.5t34 23t23 17.5q18 11 29 4.5t14.5 -20t-1.5 -23.5q-1 -4 -14 -16.5t-31 -28t-36 -29t-31 -20.5z" />
    <glyph glyph-name="ccaron" unicode="&#x10d;" horiz-adv-x="355" 
d="M217 -4q-29 -5 -57.5 5t-47 32.5t-18.5 54.5q-3 30 5.5 71.5t26 83.5t40.5 71q20 24 40 44t36 27q14 6 34.5 9.5t28.5 3.5q16 -4 35.5 -13t19.5 -21l2.5 -2.5l2.5 -2.5q6 0 13.5 -14.5t11.5 -33t-2 -29.5q-4 -19 -15.5 -37t-19.5 -18q-4 0 -7.5 -0.5t-3.5 -5.5t-10.5 -5
t-21.5 4t-14 12q0 5 2 13t6 27q6 28 1 37.5t-25 1.5q-25 -14 -41 -32.5t-28.5 -51.5t-27.5 -92q-6 -23 -1.5 -36t7.5 -14q14 -4 30.5 -1.5t27.5 8.5q16 8 28.5 17.5t27.5 20.5q5 3 9 11.5t12 12.5q8 12 20.5 12.5t24.5 0.5q8 -2 17 -10t13.5 -15.5t-1.5 -10.5
q-4 0 -4.5 -2.5l-0.5 -2.5q2 -4 -8.5 -18t-26.5 -30t-30.5 -27.5t-20.5 -11.5q-10 0 -10 -6q0 -2 -14.5 -10t-33 -16t-32.5 -11zM373 445q-16 -13 -29.5 -10t-19.5 12q-12 10 -30 27.5t-32.5 32.5t-17.5 18q-10 11 -8 25t11.5 24.5t23.5 10.5t27 -16q7 -9 23 -24t31 -28
q13 7 29 17.5t30 21t21 15.5q19 17 32.5 11t18 -22t-4.5 -29q-3 -4 -15.5 -15.5t-29.5 -25.5t-33 -26.5t-27 -18.5z" />
    <glyph glyph-name="Dcaron" unicode="&#x10e;" horiz-adv-x="578" 
d="M208 -106q-19 -3 -46 0.5t-58 11.5q-16 5 -22.5 12t-21.5 26q-10 15 -12.5 34t5 34t25.5 18q8 2 19.5 -3.5t24.5 -13.5q21 -12 45 -24.5t44 -9.5q14 3 33.5 3.5t38 3.5t29.5 11q53 36 79 57.5l26 21.5q2 4 7.5 6.5t13.5 5.5q6 6 19 19.5t25.5 26.5t15.5 15q2 9 4 14.5
t2 11.5q8 8 21.5 33.5t27.5 57t20 57.5q13 55 9 100t-23 81t-51 63q-11 9 -30 19.5t-39 20t-35.5 14.5t-18.5 4q-4 -1 -15.5 -30.5t-28 -75.5t-35 -98.5t-35.5 -99.5q-5 -19 -12.5 -40t-12.5 -36.5t-5 -20.5q-11 -17 -23 -52t-20 -100q-9 -34 -13 -56.5t-8 -21.5l-1 -9.5
t-4 -12.5q0 -6 -12 -8t-28 5t-30 27q-3 11 -4.5 32.5t6.5 50.5q5 19 14 49t20 62t20.5 59t13.5 40q7 17 20 64q8 26 16.5 52t16.5 46.5t11 26.5q5 13 12.5 42.5t23.5 67.5l7 33l-11 5q-12 -4 -18.5 -2.5t-8.5 2.5q-6 -2 -15.5 3.5t-17 14.5t-9.5 15q-2 4 -2.5 10.5l-0.5 6.5
q1 6 17 12.5t41.5 12.5t54.5 9t54 1q26 -2 64 -12t65 -20q32 -12 69 -41t67.5 -69t40.5 -84q3 -12 6 -34t3.5 -42.5t-4.5 -26.5q-2 -4 -2.5 -9.5t3.5 -7.5q-1 -3 -7 -22.5t-11 -33.5q-2 -26 -13.5 -60t-25 -64.5t-23.5 -47.5q-4 0 -7.5 -1.5t0.5 -2.5q0 -5 -11 -19
q-4 -3 -12.5 -14.5t-13.5 -15.5q-1 -7 -6 -11.5t-9 -4.5h-1.5t-1.5 -4q-8 -12 -27 -31t-43 -39t-48 -37t-44 -25q-10 -7 -21 -11.5t-21 -9.5q-5 -4 -29 -7t-50.5 -5t-41.5 -5zM576 720q-8 -6 -19 -8t-25 10q-10 10 -29.5 28t-36.5 36.5t-22 27.5q-4 17 5 31.5t25 16.5
t32 -17q7 -10 22 -23.5t31 -27.5q12 7 30 18.5t34 23t23 17.5q18 11 29 4.5t14.5 -20t-1.5 -23.5q-1 -4 -14 -16.5t-31 -28t-36 -29t-31 -20.5z" />
    <glyph glyph-name="dcaron" unicode="&#x10f;" horiz-adv-x="459" 
d="M370 -19q-13 -3 -25.5 6.5t-17.5 20.5q-6 16 -7.5 30.5t-2.5 33.5l-1 34l-41 -37q-34 -32 -63.5 -45.5t-53.5 -13.5q-11 2 -26.5 14.5t-28 28t-17.5 25.5q-6 14 -3.5 39t12 55t24 59t33.5 50q33 50 82 62.5t87 -8.5q18 -9 26 -7t10 13q4 16 9 30t14 42q25 76 43.5 119
t33.5 75q11 23 22 32t19 8q11 0 27.5 -8t21.5 -22q4 -9 3.5 -19t-6.5 -21q-13 -24 -30.5 -63.5t-35 -86.5t-32.5 -93t-25 -81q-6 -22 -9.5 -56t-5 -69.5t-0.5 -63t3 -35.5q6 -20 0 -30t-17 -13.5t-22 -4.5zM205 102q14 5 25 12t26 18q30 23 43.5 40t21.5 42q5 15 0.5 26
t-15.5 21q-11 9 -28 7.5t-39 -21.5q-24 -22 -41 -51t-28 -83q-2 -10 7 -14t28 3zM536 436q-10 0 -12.5 1.5t-6.5 8.5q0 7 3.5 16.5t10.5 15.5q10 10 22.5 24.5t22 29.5t8.5 25q-1 22 11 39.5t29 24t32 -8.5q4 -21 4 -45.5t-11 -49.5q-2 -7 -12.5 -20.5t-21 -25t-13.5 -11.5
q-4 0 -10 -7t-10 -11t-19.5 -5t-26.5 -1z" />
    <glyph glyph-name="Dcroat" unicode="&#x110;" horiz-adv-x="578" 
d="M224 -104q-22 -4 -53 -2t-76 15q-10 5 -21 17.5t-19 28.5t-8 30q0 26 11.5 35t22.5 10q19 -1 32.5 -12.5t19.5 -19.5q22 -7 39 -12.5t34 -6.5q22 2 42 3.5t36 4t24 7.5q53 36 80.5 58.5l27.5 22.5q2 4 7.5 6.5t13.5 5.5q6 6 19.5 20t26 27t15.5 15q2 9 4 14.5t2 11.5
q8 8 22 34t28 58t20 58q13 65 7 110t-27.5 78t-53.5 60q-14 11 -32.5 20.5t-36 17t-31 11t-16.5 2.5t-12.5 -25t-23.5 -62t-30 -84.5t-33 -92.5h4q28 -3 39.5 -8t22.5 -13q14 -15 7 -30.5t-32 -13.5q-7 -1 -22.5 -2t-29.5 -2h-5.5h-6.5q-7 -22 -14 -42t-7 -25
q-11 -17 -23 -52t-20 -100q-9 -34 -13 -57t-8 -22l-1 -7q0 -6 -14 -9t-30 -1t-22 8q-3 11 -10 28t-1 42q4 23 13.5 55.5t20.5 66.5t21 61.5t14 40.5q1 2 1.5 4.5t1.5 3.5h-6q-1 0 -7.5 1t-15.5 4q-15 0 -24 6.5t-14 15.5q-7 15 6.5 22t47.5 11l18 4t16 3q1 2 1 4t1 3
q8 24 15.5 48t14.5 43t12 27q5 13 12.5 43t23.5 68l7 32l-11 5q-7 -3 -14.5 -2.5t-12.5 2.5q-5 -1 -12 2.5t-14 9.5t-12 12q-5 9 -6 16.5l-1 7.5q1 8 21 16t53 14.5t73 7.5q40 -1 81 -12.5t68 -21.5q35 -12 71 -41t64 -65.5t38 -74.5q7 -23 10 -49t3 -46t-5 -26
q-2 -4 -2.5 -9.5t3.5 -7.5q-1 -3 -7 -22.5t-11 -33.5q-3 -27 -14 -59t-24 -61t-23 -46q-4 0 -7.5 -1.5t0.5 -2.5q0 -7 -6 -13t-12 -14q-4 -3 -9 -10.5t-10 -11.5q-1 -7 -6 -11.5t-9 -4.5h-1.5t-1.5 -4q-8 -12 -26.5 -31t-42.5 -39t-48 -37t-44 -25q-10 -7 -21 -11.5
t-21 -9.5q-5 -4 -24 -6.5t-42 -4t-40 -4.5z" />
    <glyph glyph-name="dcroat" unicode="&#x111;" horiz-adv-x="393" 
d="M370 -19q-13 -3 -25.5 6.5t-17.5 20.5q-6 16 -7.5 30.5t-2.5 33.5l-1 34l-41 -37q-34 -32 -63.5 -45.5t-53.5 -13.5q-11 2 -26.5 14.5t-28 28t-17.5 25.5q-6 14 -3.5 39t12 55t24 59t33.5 50q33 50 82 62.5t87 -8.5q18 -9 26 -7t10 13q4 16 9 30t14 42q25 76 43.5 119
t33.5 75q11 23 22 32t19 8q11 0 27.5 -8t21.5 -22q4 -9 3.5 -19t-6.5 -21q-13 -24 -30.5 -63.5t-35 -86.5t-32.5 -93t-25 -81q-6 -22 -9.5 -56t-5 -69.5t-0.5 -63t3 -35.5q6 -20 0 -30t-17 -13.5t-22 -4.5zM205 102q14 5 25 12t26 18q30 23 43.5 40t21.5 42q5 15 0.5 26
t-15.5 21q-11 9 -28 7.5t-39 -21.5q-24 -22 -41 -51t-28 -83q-2 -10 7 -14t28 3zM359 460q-6 0 -15 0.5t-20 4.5q-15 0 -23.5 6.5t-12.5 13.5q-11 15 1.5 23.5t49.5 12.5q34 8 67 11t73 3q26 0 42.5 -5t27.5 -16q15 -15 7 -31.5t-31 -12.5q-7 -1 -29.5 -2t-40.5 -3
q-11 -1 -39 -3t-57 -2z" />
    <glyph glyph-name="Emacron" unicode="&#x112;" horiz-adv-x="548" 
d="M235 -39q-31 2 -62 22.5t-57 38.5q-17 17 -26 36.5t-15 51.5q-4 19 0 50t13 62.5t17 49.5q12 28 30.5 60.5t37 62t29.5 47.5q7 7 6.5 7.5l-0.5 0.5q0 5 10.5 25.5t18.5 36.5q15 16 17 26t-3 16q-2 4 8.5 17t29.5 29.5t42 29.5q24 19 46.5 20.5t26.5 -9.5q0 -3 11.5 -1.5
t27 5t27.5 5.5q5 6 23.5 9.5t43.5 6.5q13 -1 29 -0.5t28.5 1.5l12.5 1q7 2 20.5 -8.5t21.5 -28.5q7 -18 -12 -31t-60 -18q-30 -4 -46.5 -6.5t-35 -6t-53.5 -11.5q-25 -5 -42 -8t-29.5 -12t-27.5 -32q-7 -5 -18 -26l-22 -42q-28 -39 -41.5 -57.5t-9.5 -23.5l14 -3t18 -3
q10 5 24.5 7t23.5 4q62 16 91.5 23.5t42 10.5t22.5 4q14 11 28.5 -1.5t20.5 -29.5q7 -20 0 -31t-30.5 -18t-66.5 -16.5t-108 -27.5q-55 -16 -89 -19t-32 17q-7 4 -15.5 -7.5t-15.5 -31.5t-12.5 -43t-6.5 -43t3 -31q8 -23 25.5 -39.5t51.5 -26.5q20 -1 39 -3t43 8
q59 10 82 21t28 15q8 4 10.5 8t7.5 4q-3 -5 2 0t16 14q21 18 42 22t35 0.5t15 -8.5q6 -10 -6 -31.5t-36.5 -45.5t-57.5 -43q-53 -28 -115 -39.5t-111 -12.5zM493 760q-10 -1 -20.5 0.5t-20.5 4.5q-15 2 -22 6t-14 15q-9 15 4.5 22.5t46.5 11.5q31 6 57.5 10t57.5 4t49 -4.5
t30 -16.5q13 -11 9 -26.5t-22 -17.5q-7 0 -22 -1t-31 -1.5t-28 -1.5q-8 -1 -18.5 -2t-24 -2t-31.5 -1z" />
    <glyph glyph-name="emacron" unicode="&#x113;" horiz-adv-x="325" 
d="M289 20q-30 -17 -63.5 -19.5t-62.5 9t-47 34.5q-10 13 -19 41.5t-3 77.5q6 46 28.5 93t55.5 83t72 49q14 5 28.5 7.5t38.5 0.5q23 -3 41 -11.5t26 -18.5q16 -16 21 -31t4 -29q-5 -32 -28.5 -69t-65.5 -55q-17 -7 -40 -9t-63 6q-24 5 -31.5 -5t-6.5 -39q2 -18 8.5 -31.5
t24.5 -18.5q23 -4 33 -0.5t25 10.5q8 5 15.5 11l15 12t12.5 9q5 4 10 5t10 1q11 -1 21 -12t13 -21q0 -8 -10 -22.5t-26.5 -30t-36.5 -27.5zM276 243q7 3 20.5 14t24.5 23.5t11 19.5q0 11 -14.5 19t-37.5 3q-8 -2 -19 -11t-22 -20.5t-19 -22t-11 -16.5q4 -5 16 -8t26.5 -3
t24.5 2zM284 453q-6 0 -15 0.5t-20 4.5q-15 0 -23.5 6t-12.5 13q-10 15 2 23.5t49 12.5q34 8 59 11t65 3q25 0 41.5 -5t27.5 -15q15 -15 7.5 -31.5t-30.5 -13.5q-7 -1 -29.5 -2t-40.5 -2q-10 -1 -31 -3t-49 -2z" />
    <glyph glyph-name="Ebreve" unicode="&#x114;" horiz-adv-x="548" 
d="M235 -39q-31 2 -62 22.5t-57 38.5q-17 17 -26 36.5t-15 51.5q-4 19 0 50t13 62.5t17 49.5q12 28 30.5 60.5t37 62t29.5 47.5q7 7 6.5 7.5l-0.5 0.5q0 5 10.5 25.5t18.5 36.5q15 16 17 26t-3 16q-2 4 8.5 17t29.5 29.5t42 29.5q24 19 46.5 20.5t26.5 -9.5q0 -3 11.5 -1.5
t27 5t27.5 5.5q5 6 23.5 9.5t43.5 6.5q13 -1 29 -0.5t28.5 1.5l12.5 1q7 2 20.5 -8.5t21.5 -28.5q7 -18 -12 -31t-60 -18q-30 -4 -46.5 -6.5t-35 -6t-53.5 -11.5q-25 -5 -42 -8t-29.5 -12t-27.5 -32q-7 -5 -18 -26l-22 -42q-28 -39 -41.5 -57.5t-9.5 -23.5l14 -3t18 -3
q10 5 24.5 7t23.5 4q62 16 91.5 23.5t42 10.5t22.5 4q14 11 28.5 -1.5t20.5 -29.5q7 -20 0 -31t-30.5 -18t-66.5 -16.5t-108 -27.5q-55 -16 -89 -19t-32 17q-7 4 -15.5 -7.5t-15.5 -31.5t-12.5 -43t-6.5 -43t3 -31q8 -23 25.5 -39.5t51.5 -26.5q20 -1 39 -3t43 8
q59 10 82 21t28 15q8 4 10.5 8t7.5 4q-3 -5 2 0t16 14q21 18 42 22t35 0.5t15 -8.5q6 -10 -6 -31.5t-36.5 -45.5t-57.5 -43q-53 -28 -115 -39.5t-111 -12.5zM541 701q-32 3 -59.5 16t-40 38.5t-3.5 63.5q6 27 19 37.5t26 9t20.5 -12.5t2.5 -28q-3 -11 -2.5 -24t11.5 -22
t41 -8q13 1 24 9.5t19.5 20.5t14.5 22q17 30 30.5 37.5t23 1t13 -20.5t0.5 -28q-4 -19 -16.5 -40t-31 -38t-42 -26.5t-50.5 -7.5z" />
    <glyph glyph-name="ebreve" unicode="&#x115;" horiz-adv-x="325" 
d="M289 20q-30 -17 -63.5 -19.5t-62.5 9t-47 34.5q-10 13 -19 41.5t-3 77.5q6 46 28.5 93t55.5 83t72 49q14 5 28.5 7.5t38.5 0.5q23 -3 41 -11.5t26 -18.5q16 -16 21 -31t4 -29q-5 -32 -28.5 -69t-65.5 -55q-17 -7 -40 -9t-63 6q-24 5 -31.5 -5t-6.5 -39q2 -18 8.5 -31.5
t24.5 -18.5q23 -4 33 -0.5t25 10.5q8 5 15.5 11l15 12t12.5 9q5 4 10 5t10 1q11 -1 21 -12t13 -21q0 -8 -10 -22.5t-26.5 -30t-36.5 -27.5zM276 243q7 3 20.5 14t24.5 23.5t11 19.5q0 11 -14.5 19t-37.5 3q-8 -2 -19 -11t-22 -20.5t-19 -22t-11 -16.5q4 -5 16 -8t26.5 -3
t24.5 2zM320 426q-32 3 -59 16t-40 38.5t-4 63.5q6 27 19 37.5t26 9t20.5 -12.5t2.5 -28q-3 -11 -2.5 -24t11.5 -22t41 -8q13 1 24 9.5t19.5 20.5t14.5 22q17 30 30.5 37.5t23 1t13 -20.5t0.5 -28q-4 -19 -16.5 -40t-31 -38t-42 -26.5t-50.5 -7.5z" />
    <glyph glyph-name="Edotaccent" unicode="&#x116;" horiz-adv-x="548" 
d="M235 -39q-31 2 -62 22.5t-57 38.5q-17 17 -26 36.5t-15 51.5q-4 19 0 50t13 62.5t17 49.5q12 28 30.5 60.5t37 62t29.5 47.5q7 7 6.5 7.5l-0.5 0.5q0 5 10.5 25.5t18.5 36.5q15 16 17 26t-3 16q-2 4 8.5 17t29.5 29.5t42 29.5q24 19 46.5 20.5t26.5 -9.5q0 -3 11.5 -1.5
t27 5t27.5 5.5q5 6 23.5 9.5t43.5 6.5q13 -1 29 -0.5t28.5 1.5l12.5 1q7 2 20.5 -8.5t21.5 -28.5q7 -18 -12 -31t-60 -18q-30 -4 -46.5 -6.5t-35 -6t-53.5 -11.5q-25 -5 -42 -8t-29.5 -12t-27.5 -32q-7 -5 -18 -26l-22 -42q-28 -39 -41.5 -57.5t-9.5 -23.5l14 -3t18 -3
q10 5 24.5 7t23.5 4q62 16 91.5 23.5t42 10.5t22.5 4q14 11 28.5 -1.5t20.5 -29.5q7 -20 0 -31t-30.5 -18t-66.5 -16.5t-108 -27.5q-55 -16 -89 -19t-32 17q-7 4 -15.5 -7.5t-15.5 -31.5t-12.5 -43t-6.5 -43t3 -31q8 -23 25.5 -39.5t51.5 -26.5q20 -1 39 -3t43 8
q59 10 82 21t28 15q8 4 10.5 8t7.5 4q-3 -5 2 0t16 14q21 18 42 22t35 0.5t15 -8.5q6 -10 -6 -31.5t-36.5 -45.5t-57.5 -43q-53 -28 -115 -39.5t-111 -12.5zM520 736q-7 7 -13.5 21t-5.5 25q2 5 10 26.5t25 35.5q3 2 6.5 6.5t7.5 5.5q12 8 24.5 7.5t30.5 -20.5
q17 -29 10.5 -47t-26.5 -42q-15 -20 -31 -28t-38 10z" />
    <glyph glyph-name="edotaccent" unicode="&#x117;" horiz-adv-x="325" 
d="M289 20q-30 -17 -63.5 -19.5t-62.5 9t-47 34.5q-10 13 -19 41.5t-3 77.5q6 46 28.5 93t55.5 83t72 49q14 5 28.5 7.5t38.5 0.5q23 -3 41 -11.5t26 -18.5q16 -16 21 -31t4 -29q-5 -32 -28.5 -69t-65.5 -55q-17 -7 -40 -9t-63 6q-24 5 -31.5 -5t-6.5 -39q2 -18 8.5 -31.5
t24.5 -18.5q23 -4 33 -0.5t25 10.5q8 5 15.5 11l15 12t12.5 9q5 4 10 5t10 1q11 -1 21 -12t13 -21q0 -8 -10 -22.5t-26.5 -30t-36.5 -27.5zM276 243q7 3 20.5 14t24.5 23.5t11 19.5q0 11 -14.5 19t-37.5 3q-8 -2 -19 -11t-22 -20.5t-19 -22t-11 -16.5q4 -5 16 -8t26.5 -3
t24.5 2zM314 426q-10 8 -15 25.5t-3 22.5q2 8 9.5 27t23.5 32q4 3 9 8.5t9 6.5q15 11 29.5 4t26.5 -27q11 -25 6.5 -40.5t-27.5 -42.5q-19 -25 -35 -27.5t-33 11.5z" />
    <glyph glyph-name="Eogonek" unicode="&#x118;" horiz-adv-x="548" 
d="M235 -39q-31 2 -62 22.5t-57 38.5q-17 17 -26 36.5t-15 51.5q-4 19 0 50t13 62.5t17 49.5q12 28 30.5 60.5t37 62t29.5 47.5q7 7 6.5 7.5l-0.5 0.5q0 5 10.5 25.5t18.5 36.5q15 16 17 26t-3 16q-2 4 8.5 17t29.5 29.5t42 29.5q24 19 46.5 20.5t26.5 -9.5q0 -3 11.5 -1.5
t27 5t27.5 5.5q5 6 23.5 9.5t43.5 6.5q13 -1 29 -0.5t28.5 1.5l12.5 1q7 2 20.5 -8.5t21.5 -28.5q7 -18 -12 -31t-60 -18q-30 -4 -46.5 -6.5t-35 -6t-53.5 -11.5q-25 -5 -42 -8t-29.5 -12t-27.5 -32q-7 -5 -18 -26l-22 -42q-28 -39 -41.5 -57.5t-9.5 -23.5l14 -3t18 -3
q10 5 24.5 7t23.5 4q62 16 91.5 23.5t42 10.5t22.5 4q14 11 28.5 -1.5t20.5 -29.5q7 -20 0 -31t-30.5 -18t-66.5 -16.5t-108 -27.5q-55 -16 -89 -19t-32 17q-7 4 -15.5 -7.5t-15.5 -31.5t-12.5 -43t-6.5 -43t3 -31q8 -23 25.5 -39.5t51.5 -26.5q20 -1 39 -3t43 8
q59 10 82 21t28 15q8 4 10.5 8t7.5 4q-3 -5 2 0t16 14q21 18 42 22t35 0.5t15 -8.5q6 -10 -6 -31.5t-36.5 -45.5t-57.5 -43q-53 -28 -115 -39.5t-111 -12.5zM368 -177q-20 6 -40 22t-27 40.5t11 54.5q13 22 36 45.5t49.5 45t48.5 35.5l55 -30q-22 -13 -52.5 -38.5
t-48.5 -47.5q-14 -17 -19.5 -28t1.5 -22q3 -6 18 -6q23 4 39 14t41 22q13 7 20 0.5t8.5 -18.5t-3 -24.5t-16.5 -17.5q-4 -1 -19 -8t-34.5 -15.5t-38 -15t-29.5 -8.5z" />
    <glyph glyph-name="eogonek" unicode="&#x119;" horiz-adv-x="325" 
d="M289 20q-30 -17 -63.5 -19.5t-62.5 9t-47 34.5q-10 13 -19 41.5t-3 77.5q6 46 28.5 93t55.5 83t72 49q14 5 28.5 7.5t38.5 0.5q23 -3 41 -11.5t26 -18.5q16 -16 21 -31t4 -29q-5 -32 -28.5 -69t-65.5 -55q-17 -7 -40 -9t-63 6q-24 5 -31.5 -5t-6.5 -39q2 -18 8.5 -31.5
t24.5 -18.5q23 -4 33 -0.5t25 10.5q8 5 15.5 11l15 12t12.5 9q5 4 10 5t10 1q11 -1 21 -12t13 -21q0 -8 -10 -22.5t-26.5 -30t-36.5 -27.5zM276 243q7 3 20.5 14t24.5 23.5t11 19.5q0 11 -14.5 19t-37.5 3q-8 -2 -19 -11t-22 -20.5t-19 -22t-11 -16.5q4 -5 16 -8t26.5 -3
t24.5 2zM155 -177q-20 6 -40 22t-27 40.5t11 54.5q13 22 36 45.5t49.5 45t48.5 35.5l55 -30q-22 -13 -52.5 -38.5t-48.5 -47.5q-14 -17 -19.5 -28t1.5 -22q3 -6 18 -6q23 4 39 14t41 22q13 7 20 0.5t8.5 -18.5t-3 -24.5t-16.5 -17.5q-4 -1 -19 -8t-34.5 -15.5t-38 -15
t-29.5 -8.5z" />
    <glyph glyph-name="Ecaron" unicode="&#x11a;" horiz-adv-x="548" 
d="M235 -39q-31 2 -62 22.5t-57 38.5q-17 17 -26 36.5t-15 51.5q-4 19 0 50t13 62.5t17 49.5q12 28 30.5 60.5t37 62t29.5 47.5q7 7 6.5 7.5l-0.5 0.5q0 5 10.5 25.5t18.5 36.5q15 16 17 26t-3 16q-2 4 8.5 17t29.5 29.5t42 29.5q24 19 46.5 20.5t26.5 -9.5q0 -3 11.5 -1.5
t27 5t27.5 5.5q5 6 23.5 9.5t43.5 6.5q13 -1 29 -0.5t28.5 1.5l12.5 1q7 2 20.5 -8.5t21.5 -28.5q7 -18 -12 -31t-60 -18q-30 -4 -46.5 -6.5t-35 -6t-53.5 -11.5q-25 -5 -42 -8t-29.5 -12t-27.5 -32q-7 -5 -18 -26l-22 -42q-28 -39 -41.5 -57.5t-9.5 -23.5l14 -3t18 -3
q10 5 24.5 7t23.5 4q62 16 91.5 23.5t42 10.5t22.5 4q14 11 28.5 -1.5t20.5 -29.5q7 -20 0 -31t-30.5 -18t-66.5 -16.5t-108 -27.5q-55 -16 -89 -19t-32 17q-7 4 -15.5 -7.5t-15.5 -31.5t-12.5 -43t-6.5 -43t3 -31q8 -23 25.5 -39.5t51.5 -26.5q20 -1 39 -3t43 8
q59 10 82 21t28 15q8 4 10.5 8t7.5 4q-3 -5 2 0t16 14q21 18 42 22t35 0.5t15 -8.5q6 -10 -6 -31.5t-36.5 -45.5t-57.5 -43q-53 -28 -115 -39.5t-111 -12.5zM562 720q-8 -6 -19 -8t-25 10q-10 10 -29.5 28t-36.5 36.5t-22 27.5q-4 17 5 31.5t25 16.5t32 -17q7 -10 22 -23.5
t31 -27.5q12 7 30 18.5t34 23t23 17.5q18 11 29 4.5t14.5 -20t-1.5 -23.5q-1 -4 -14 -16.5t-31 -28t-36 -29t-31 -20.5z" />
    <glyph glyph-name="ecaron" unicode="&#x11b;" horiz-adv-x="325" 
d="M289 20q-30 -17 -63.5 -19.5t-62.5 9t-47 34.5q-10 13 -19 41.5t-3 77.5q6 46 28.5 93t55.5 83t72 49q14 5 28.5 7.5t38.5 0.5q23 -3 41 -11.5t26 -18.5q16 -16 21 -31t4 -29q-5 -32 -28.5 -69t-65.5 -55q-17 -7 -40 -9t-63 6q-24 5 -31.5 -5t-6.5 -39q2 -18 8.5 -31.5
t24.5 -18.5q23 -4 33 -0.5t25 10.5q8 5 15.5 11l15 12t12.5 9q5 4 10 5t10 1q11 -1 21 -12t13 -21q0 -8 -10 -22.5t-26.5 -30t-36.5 -27.5zM276 243q7 3 20.5 14t24.5 23.5t11 19.5q0 11 -14.5 19t-37.5 3q-8 -2 -19 -11t-22 -20.5t-19 -22t-11 -16.5q4 -5 16 -8t26.5 -3
t24.5 2zM359 445q-16 -13 -29.5 -10t-19.5 12q-12 10 -30 27.5t-32.5 32.5t-17.5 18q-10 11 -8 25t11.5 24.5t23.5 10.5t27 -16q7 -9 23 -24t31 -28q13 7 29 17.5t30 21t21 15.5q19 17 32.5 11t18 -22t-4.5 -29q-3 -4 -15.5 -15.5t-29.5 -25.5t-33 -26.5t-27 -18.5z" />
    </font>
</defs>
</svg>
